<?xml version="1.0" encoding="UTF-8" standalone="no"?>
<svg
   xmlns:dc="http://purl.org/dc/elements/1.1/"
   xmlns:cc="http://creativecommons.org/ns#"
   xmlns:rdf="http://www.w3.org/1999/02/22-rdf-syntax-ns#"
   xmlns:svg="http://www.w3.org/2000/svg"
   xmlns="http://www.w3.org/2000/svg"
   xmlns:sodipodi="http://sodipodi.sourceforge.net/DTD/sodipodi-0.dtd"
   xmlns:inkscape="http://www.inkscape.org/namespaces/inkscape"
   inkscape:version="1.0 (1.0+r73+1)"
   sodipodi:docname="crest-icon.svg"
   viewBox="0 0 108.57202 107.33334"
   height="107.33334"
   width="108.57202"
   id="svg44"
   version="1.1">
  <g
     transform="translate(183.14376,1.2659233)"
     id="g52"
     inkscape:label="Image"
     inkscape:groupmode="layer">
    <g
       transform="translate(-182.47709,-0.59925664)"
       id="g56">
      <path
         id="path60"
         d="m 3.9282224,88.333333 -4.59488907,-5 4.99999997,4.59489 c 4.6538915,4.276822 5.61305,5.40511 4.5948891,5.40511 -0.2228111,0 -2.4728111,-2.25 -5,-5 z M 102.66667,88.666667 C 105.15438,86.1 107.48978,84 107.85645,84 c 0.36666,0 -1.36874,2.1 -3.85645,4.666667 -2.48771,2.566666 -4.823112,4.666666 -5.189779,4.666666 -0.366666,0 1.368739,-2.1 3.856449,-4.666666 z M 50,80 c 1.327315,-1.466667 2.7133,-2.666667 3.079967,-2.666667 0.366666,0 -0.419319,1.2 -1.746634,2.666667 -1.327314,1.466667 -2.7133,2.666667 -3.079966,2.666667 -0.366667,0 0.419318,-1.2 1.746633,-2.666667 z m 6.539984,-0.333333 -2.539984,-3 3,2.539984 c 1.65,1.39699 3,2.74699 3,3 0,1.067004 -1.073059,0.279276 -3.460016,-2.539984 z m -41.229389,-41.333334 -14.64392833,-15 15.00000033,14.643928 c 13.932592,13.601858 15.605453,15.356072 14.643928,15.356072 -0.19584,0 -6.94584,-6.75 -15,-15 z m 76.022738,0.333334 C 99.374987,30.6 106.25452,24 106.62119,24 c 0.36667,0 -5.91287,6.6 -13.954523,14.666667 -8.041654,8.066666 -14.92119,14.666666 -15.287856,14.666666 -0.366667,0 5.912869,-6.6 13.954522,-14.666666 z M 38.644917,15 23.333333,-0.66666667 38.680792,14.326615 54.028251,29.319897 69.340267,14.326615 84.652283,-0.66666667 69.347891,15 C 60.930475,23.616667 54.023924,30.666667 54,30.666667 c -0.02392,0 -6.933712,-7.05 -15.355083,-15.666667 z"
         style="fill:#00a758;fill-opacity:1;stroke-width:1.33333" />
      <path
         id="path58"
         d="M 15.933537,100.33333 C 12.652117,96.85 7.895876,91.738551 5.3641117,88.974559 L 0.76090411,83.949117 16.025369,68.641225 31.289835,53.333333 16.307292,38.308167 1.3247491,23.282999 12.673418,11.993284 24.022087,0.70356847 38.996917,15.6784 53.971749,30.653231 68.982015,15.685547 83.992281,0.71786216 95.333767,12.000431 106.67525,23.282999 91.692708,38.308167 76.710165,53.333333 91.940179,68.606675 107.17019,83.880017 97.863415,94.162729 c -5.118728,5.655491 -10.379154,10.932491 -11.689834,11.726661 -2.039953,1.23605 -4.469538,-0.7157 -16.874916,-13.556057 -7.970524,-8.25 -14.864608,-15 -15.320189,-15 -0.455581,0 -7.152708,6.6 -14.882505,14.666667 -7.729796,8.06667 -14.761135,14.66667 -15.625196,14.66667 -0.86406,0 -4.255818,-2.85 -7.537238,-6.33334 z"
         style="fill:#00a758;fill-opacity:1;stroke-width:1.33333" />
    </g>
  </g>
</svg>
