<?xml version="1.0" encoding="UTF-8" standalone="no"?>
<svg
   xmlns:dc="http://purl.org/dc/elements/1.1/"
   xmlns:cc="http://creativecommons.org/ns#"
   xmlns:rdf="http://www.w3.org/1999/02/22-rdf-syntax-ns#"
   xmlns:svg="http://www.w3.org/2000/svg"
   xmlns="http://www.w3.org/2000/svg"
   xmlns:sodipodi="http://sodipodi.sourceforge.net/DTD/sodipodi-0.dtd"
   xmlns:inkscape="http://www.inkscape.org/namespaces/inkscape"
   inkscape:version="1.0 (1.0+r73+1)"
   sodipodi:docname="garant-icon-1.svg"
   viewBox="0 0 1119.8447 572.45685"
   height="572.45685"
   width="1119.8447"
   id="svg380"
   version="1.1">
  <g
     transform="translate(1689.8826,-436.12776)"
     id="g388"
     inkscape:label="Image"
     inkscape:groupmode="layer">
    <path
       id="path552"
       d="m -1165.8741,1007.3321 c -34.4525,-3.059 -64.196,-10.4742 -87.5527,-21.82735 -25.4938,-12.392 -34.9363,-24.19951 -29.0139,-36.2809 5.1792,-10.56535 17.199,-14.15976 25.9403,-7.75724 21.2351,15.55344 40.0569,22.54311 75.8639,28.17273 21.7202,3.41489 77.0284,3.47865 98.3582,0.11333 30.1986,-4.76447 53.1282,-12.19769 68.5611,-22.22578 6.8203,-4.43177 9.4321,-5.37867 14.83598,-5.37867 5.87527,0 7.11475,0.55634 11.89936,5.34095 5.214,5.214 5.32599,5.52145 4.71116,12.93544 -0.58211,7.01945 -1.09903,8.0193 -6.82701,13.20518 -17.49429,15.83863 -61.59959,29.52851 -108.87219,33.79281 -17.572,1.5851 -49.5109,1.5425 -67.9042,-0.091 z m 17.9042,-52.66474 c -25.2739,-2.65128 -43.9916,-5.2145 -58.6666,-8.03383 -106.4982,-20.46033 -204.9729,-70.3496 -301.3334,-152.66167 -8.8,-7.51706 -29.8119,-27.50251 -46.6931,-44.41214 -46.7029,-46.78151 -80.8745,-88.20538 -115.3512,-139.8322 -18.1375,-27.15988 -21.142,-33.33744 -19.4647,-40.0205 1.8428,-7.34235 6.5947,-10.62855 36.1261,-24.98304 122.1989,-59.39803 229.8744,-94.87156 322.0496,-106.09873 27.206,-3.31375 80.1395,-3.3335 101.3333,-0.0378 37.5103,5.83294 67.8547,16.70423 90.3973,32.38598 4.6184,3.21284 8.9397,5.84153 9.6027,5.84153 0.6631,0 4.9844,-2.62869 9.6028,-5.84153 22.6139,-15.73136 52.9763,-26.61367 90.3972,-32.39956 21.2199,-3.28094 74.19551,-3.25408 101.33337,0.0514 92.16478,11.2259 199.86456,46.70742 322.04967,106.09873 44.6761,21.71599 44.8837,22.36433 19.5008,60.8726 -36.4747,55.33564 -77.9699,105.34952 -127.68045,153.89234 -113.5902,110.92199 -239.05499,175.94449 -371.86999,192.72278 -16.2724,2.05566 -51.6455,3.47192 -61.3334,2.45566 z m 62,-38.45251 c 108.18459,-14.53285 210.02181,-63.44008 308.64355,-148.2257 33.42416,-28.73493 74.87442,-71.35745 105.52319,-108.50753 23.893,-28.96113 58.6438,-77.08598 56.8824,-78.77368 -1.8874,-1.80834 -49.774,-23.93376 -77.71577,-35.90759 -91.26702,-39.11052 -171.87008,-62.25582 -244.04101,-70.07676 -25.73019,-2.78831 -75.27266,-2.09452 -93.95896,1.31578 -37.2717,6.80219 -63.2061,17.90408 -82.3479,35.25112 -13.7582,12.46825 -20.2127,12.46825 -33.9709,0 -19.4485,-17.62503 -48.193,-29.55649 -87.0146,-36.11855 -16.0719,-2.71666 -79.165,-2.25386 -101.3333,0.7433 -84.8338,11.46958 -181.4611,43.30487 -293.8015,96.7972 l -17.1349,8.15898 2.3085,3.63844 c 6.6942,10.55084 32.4034,45.58756 45.1099,61.47613 124.8513,156.11716 275.9856,251.59775 427.518,270.08873 9.1667,1.11857 18.7667,2.28993 21.3333,2.60302 9.0481,1.1037 48.8527,-0.42809 64,-2.46289 z m -79.3333,-159.48167 c -85.8715,-8.82183 -183.5595,-47.67639 -276,-109.77659 -11,-7.38963 -22.2165,-15.43413 -24.9256,-17.87663 -8.5852,-7.74036 -9.6822,-17.50228 -2.8757,-25.59127 4.764,-5.66176 10.2314,-6.71533 27.5741,-5.31363 61.1655,4.9436 183.3964,12.23966 247.5605,14.7771 41.4214,1.63804 114.9236,0.98092 162,-1.44832 55.4982,-2.8638 121.86012,-6.92954 173.9186,-10.6553 58.6742,-4.19922 58.55436,-4.20474 65.19073,2.99686 1.72587,1.87285 3.43391,5.7942 3.83886,8.81333 1.52268,11.35244 -1.95754,14.85045 -38.9783,39.17761 -62.29338,40.93437 -133.15096,73.99402 -194.63649,90.81056 -16.9923,4.64745 -35.908,8.59748 -56,11.69406 -19.9956,3.08171 -67.2568,4.38624 -86.6667,2.39222 z m 88.7981,-39.04903 c 42.8298,-7.45268 79.51017,-18.94952 125.86857,-39.4513 25.31236,-11.19427 76.3868,-38.14221 74.97214,-39.55687 -0.29524,-0.29524 -18.78475,0.64599 -41.0878,2.0916 -111.72361,7.2416 -186.32691,10.00129 -240.55101,8.89837 -53.0783,-1.07961 -149.4035,-5.86262 -220,-10.92403 l -10.6667,-0.76475 11.3334,6.77066 c 15.4447,9.22686 59.9418,31.4709 78.6666,39.32539 44.1765,18.53059 88.6384,30.96563 129.3334,36.17175 22.6809,2.90157 67.9747,1.64262 92.1314,-2.56082 z"
       style="fill-opacity:1;stroke-width:1.33333" />
  </g>
</svg>
