<?xml version="1.0" encoding="UTF-8" standalone="no"?>
<svg
   xmlns:dc="http://purl.org/dc/elements/1.1/"
   xmlns:cc="http://creativecommons.org/ns#"
   xmlns:rdf="http://www.w3.org/1999/02/22-rdf-syntax-ns#"
   xmlns:svg="http://www.w3.org/2000/svg"
   xmlns="http://www.w3.org/2000/svg"
   xmlns:sodipodi="http://sodipodi.sourceforge.net/DTD/sodipodi-0.dtd"
   xmlns:inkscape="http://www.inkscape.org/namespaces/inkscape"
   inkscape:version="1.0 (1.0+r73+1)"
   sodipodi:docname="garant-icon-3.svg"
   viewBox="0 0 586.5492 932.70129"
   height="932.70129"
   width="586.54919"
   id="svg404"
   version="1.1">
  <g
     transform="translate(684.31617,-0.26217989)"
     id="g412"
     inkscape:label="Image"
     inkscape:groupmode="layer">
    <path
       id="path512"
       d="m -621.39446,930.72735 c -14.66635,-3.97837 -24.99009,-10.03508 -36.38997,-21.34917 -12.27726,-12.1849 -19.04915,-24.79182 -21.89397,-40.75906 -2.77046,-15.54983 -2.93279,-550.46551 -0.16903,-556.99529 3.94861,-9.32914 4.8182,-9.57902 34.91568,-10.0328 l 27.12502,-0.40894 0.40499,-40.25772 c 0.508,-50.49648 0.16754,-49.69771 22.03171,-51.69052 33.94307,-3.09376 60.85621,-25.19984 70.49126,-57.90052 3.34734,-11.36065 3.06455,-31.85377 -0.59825,-43.35371 -7.65331,-24.02877 -27.09868,-43.927042 -50.85306,-52.037487 -11.84458,-4.044092 -30.89354,-4.94221 -43.24718,-2.039014 -11.94319,2.806736 -24.73614,9.149875 -32.55072,16.139654 -7.82518,6.99926 -11.41369,8.890558 -16.86877,8.890558 -5.7785,0 -9.59337,-2.202614 -12.73303,-7.351762 -5.24022,-8.59414 -2.68224,-15.67079 9.18251,-25.40341 13.26948,-10.88492 27.94684,-18.306258 45.71185,-23.113368 12.97264,-3.510318 40.05748,-3.202487 53.3809,0.606695 38.88214,11.116454 66.63457,38.060908 78.66577,76.375504 2.71573,8.64854 3.12534,12.66162 3.12534,30.61967 0,22.80659 -1.95829,32.04806 -10.30261,48.61968 -15.00048,29.79059 -42.77795,52.15888 -73.28794,59.01643 l -10.40945,2.33965 v 30.34545 30.34546 h 25.46095 c 28.21547,0 31.05235,0.691 35.19608,8.57304 1.96441,3.73662 2.11636,28.27978 1.74228,281.42695 -0.392,265.27439 -0.51663,277.65219 -2.86636,284.66666 -8.78549,26.22664 -27.00412,45.0883 -51.53295,53.35186 -12.56279,4.23231 -31.05515,4.81396 -43.73105,1.37551 z m 39.99305,-33.64847 c 9.67199,-4.49861 18.9612,-13.77696 23.51109,-23.48357 l 3.56025,-7.59533 0.3521,-227 0.35211,-226.99999 h -47.36715 -47.36715 l 0.34837,227.66666 0.34838,227.66666 3.21505,6.53187 c 5.81696,11.81804 15.91505,20.90489 28.12547,25.30893 9.24111,3.33307 25.32549,2.36803 34.92148,-2.09523 z m 26.40467,-540.41222 v -23.33334 h -47.33334 -47.33333 v 23.33334 23.33333 h 47.33333 47.33334 z m 313.60229,574.06069 c -27.56048,-7.47601 -48.584,-28.07048 -57.29037,-56.12116 -2.08482,-6.717 -2.28656,-28.3419 -2.6396,-282.93056 -0.42128,-303.7984 -1.01562,-282.19714 7.91412,-287.64146 4.02237,-2.45236 6.68853,-2.69132 30.08024,-2.69586 l 25.66666,-0.005 v -25.25164 -25.25163 l -6.33333,-0.91393 c -9.14657,-1.3199 -26.40232,-6.92654 -35.66667,-11.5886 -33.41212,-16.81391 -57.46981,-46.94679 -66.79373,-83.66087 -3.74028,-14.72781 -3.44276,-45.92012 0.57865,-60.666662 5.8964,-21.622133 17.84675,-42.047686 33.73767,-57.664524 11.39687,-11.200287 19.51035,-16.897957 33.81075,-23.743502 16.01889,-7.6681808 30.15276,-11.2476512 48,-12.15623424 36.22775,-1.84431426 69.64577,11.05112124 95.41279,36.81813424 49.539161,49.539159 49.532961,127.884498 -0.014,177.492148 -19.74211,19.76627 -36.01491,28.29776 -67.0654,35.16099 l -3.66667,0.81045 v 25.30793 25.30794 h 25.39955 c 28.07804,0 31.53624,0.78528 35.27198,8.00942 1.82866,3.53623 2.01084,33.9478 1.68724,281.64409 -0.34846,266.71706 -0.46074,277.96932 -2.84402,285.01314 -11.72951,34.66668 -38.22407,55.35074 -72.78726,56.82436 -9.82415,0.41886 -14.94731,-0.0595 -22.45855,-2.09699 z m 40.22664,-34.0332 c 8.98439,-4.54569 18.5534,-14.31477 22.59872,-23.0712 l 2.9057,-6.28964 0.34837,-227.66666 0.34837,-227.66666 h -47.34837 -47.34838 v 223.75799 c 0,246.77098 -0.54177,230.71828 8.25412,244.57136 4.97052,7.82832 12.28538,13.73494 22.17467,17.9057 6.42901,2.7114 9.29929,3.12554 19.02602,2.74519 9.41824,-0.36829 12.80353,-1.13032 19.04078,-4.28608 z m 26.17108,-540.02749 v -23.33334 h -47.33333 -47.33334 v 23.33334 23.33333 h 47.33334 47.33333 z M -237.6634,211.20571 c 0,-10.3092 2.47498,-15.51153 8.80959,-18.5175 5.72618,-2.71725 9.65972,-2.53836 14.93732,0.67929 5.40526,3.2955 8.2531,9.71012 8.2531,18.58967 0,7.98733 0.14774,8.02261 13.5872,3.24437 29.53732,-10.50167 52.77325,-35.72853 60.66984,-65.86821 3.07061,-11.71988 3.02572,-35.03974 -0.0899,-46.66667 -1.27726,-4.766662 -4.81494,-13.766662 -7.8615,-19.999995 -4.47638,-9.158808 -7.85119,-13.657937 -17.5891,-23.448856 -6.62741,-6.663537 -15.34988,-13.969397 -19.38321,-16.235243 -32.85197,-18.455588 -75.13048,-15.722557 -104.66667,6.766017 -27.16116,20.680254 -41.85395,56.201187 -36.76691,88.886817 4.37017,28.07957 18.88895,51.0021 42.16402,66.56942 9.30624,6.22439 26.44549,13.01792 36.93622,14.64051 0.55,0.0851 1,-3.80276 1,-8.63962 z"
       style="fill-opacity:1;stroke-width:1.33333" />
  </g>
</svg>
