<?xml version="1.0" encoding="UTF-8" standalone="no"?>
<svg
   xmlns:dc="http://purl.org/dc/elements/1.1/"
   xmlns:cc="http://creativecommons.org/ns#"
   xmlns:rdf="http://www.w3.org/1999/02/22-rdf-syntax-ns#"
   xmlns:svg="http://www.w3.org/2000/svg"
   xmlns="http://www.w3.org/2000/svg"
   xmlns:sodipodi="http://sodipodi.sourceforge.net/DTD/sodipodi-0.dtd"
   xmlns:inkscape="http://www.inkscape.org/namespaces/inkscape"
   inkscape:version="1.0 (1.0+r73+1)"
   sodipodi:docname="garant-icon-2.svg"
   viewBox="0 0 919.09247 945.60047"
   height="945.60046"
   width="919.09247"
   id="svg392"
   version="1.1">
  <g
     transform="translate(1276.3552,34.744543)"
     id="g400"
     inkscape:label="Image"
     inkscape:groupmode="layer">
    <path
       id="path532"
       d="m -1211.8729,908.39694 c -28.8463,-7.56247 -51.2118,-29.57031 -58.2954,-57.36313 -2.808,-11.01715 -3.7192,-569.92321 -0.9361,-574.17298 4.292,-6.55392 7.3139,-7.15532 35.9545,-7.15532 h 26.7943 l 0.02,-40.33333 c 0.014,-29.35767 0.4679,-41.20544 1.6667,-43.53814 3.1575,-6.14398 7.9985,-8.40173 20.5278,-9.57378 20.9427,-1.95906 36.8376,-9.35721 51.1207,-23.79358 15.1725,-15.33539 22.6652,-33.73999 22.6652,-55.673505 0,-22.79462 -6.8551,-39.230705 -23.3183,-55.908925 -11.4981,-11.648227 -23.224,-18.428909 -38.0151,-21.982749 -9.4088,-2.260648 -27.9245,-2.260648 -37.3333,0 -10.3782,2.493563 -25.0587,9.731187 -32.045,15.798539 -9.5493,8.29326 -12.1703,9.672127 -18.385,9.672127 -4.86,0 -6.5953,-0.758579 -10.37,-4.533333 -3.7149,-3.71493 -4.5333,-5.54327 -4.5333,-10.127611 0,-7.13251 2.5096,-11.206666 11.5019,-18.67239 38.0838,-31.618385 92.018,-35.024049 133.6204,-8.4374318 10.3395,6.607578 25.9269,21.9907038 32.8682,32.4374318 21.7937,32.799542 24.6377,74.402087 7.5198,110.000007 -9.2551,19.24657 -21.9858,33.50651 -41.1275,46.06766 -10.1201,6.64102 -28.8641,14.16772 -38.6085,15.50334 l -5.7743,0.79147 v 31.15209 31.15211 h 26.1276 c 22.2334,0 26.7015,0.33904 29.9784,2.27475 8.4846,5.01194 7.894,-16.73371 7.894,290.64663 0,307.32302 0.5511,286.3436 -7.9793,303.7453 -16.3054,33.26227 -55.7998,51.39402 -91.538,42.02475 z m 39.1542,-33.96912 c 9.7304,-4.36675 20.2356,-14.70796 24.7205,-24.33461 l 2.9759,-6.38768 0.3481,-231.00001 0.3482,-231.00001 h -48.0296 -48.0297 l 0.3482,231.00001 0.3481,231.00001 2.9578,6.34526 c 1.6267,3.4899 5.8119,9.3967 9.3005,13.12622 14.5628,15.56881 35.4975,19.87377 54.712,11.25081 z m 28.3631,-548.72231 v -24 h -48.6667 -48.6667 v 24 24 h 48.6667 48.6667 z m 199.99994,582.75318 c -22.10711,-6.74904 -41.84402,-32.93928 -60.35304,-80.0865 -26.6108,-67.78453 -50.4694,-194.97591 -58.4001,-311.33334 -4.5575,-66.86567 9.75,-126.51023 40.103,-167.18123 24.17415,-32.39159 57.88855,-49.79931 92.55577,-47.7892 14.90617,0.86431 24.93844,3.94984 50.76104,15.61209 42.25587,19.08399 46.13237,19.11335 86.87202,0.65795 27.23668,-12.33845 36.6922,-15.29559 51.94708,-16.24602 62.2406,-3.87782 114.85667,52.72335 129.7834,139.61308 5.49628,31.99434 5.11643,67.30637 -1.37691,128 -13.31549,124.4606 -37.8834,230.8429 -66.51069,288.00001 -11.34361,22.6486 -27.44636,41.57681 -40.91897,48.09878 -7.53687,3.64854 -19.54161,4.85202 -26.26505,2.63308 -2.79016,-0.92084 -7.48736,-4.56145 -11.37866,-8.81914 -12.10009,-13.23944 -17.7339,-32.34867 -31.42186,-106.57939 -9.26075,-50.22171 -16.90875,-84.25634 -22.84786,-101.67598 -6.95421,-20.39701 -16.58265,-34.99069 -23.08571,-34.99069 -5.30658,0 -12.1326,11.63662 -18.86346,32.1574 -6.06564,18.4927 -13.09809,47.97809 -24.47612,102.62255 -14.59493,70.09405 -21.73766,93.00496 -33.45234,107.30119 -7.87132,9.6059 -20.90532,13.59745 -32.67154,10.00536 z m 11.27764,-35.49079 c 6.6065,-13.92215 13.31079,-39.90986 24.74772,-95.92904 18.23703,-89.3267 28.63102,-120.90857 45.74963,-139.00898 9.71767,-10.27499 15.24417,-12.85157 27.55835,-12.84832 12.08619,0.003 20.95277,3.95291 30.17485,13.44173 19.86957,20.4443 30.28996,53.06799 47.83153,149.7489 9.96084,54.89945 17.71343,86.02136 22.10424,88.73504 2.47429,1.5292 10.67111,-5.08509 16.6024,-13.39706 29.79198,-41.74974 63.02833,-177.1179 76.11406,-310.00465 3.19987,-32.49492 3.23319,-83.924 0.0661,-101.99183 -8.90966,-50.82802 -27.52802,-86.30951 -55.18332,-105.16427 -11.33984,-7.73124 -22.1916,-11.59135 -35.10953,-12.48892 -12.8143,-0.89037 -19.61231,1.03764 -46.42007,13.16535 -26.48521,11.98178 -37.83041,15.71526 -50.7926,16.71484 -17.51413,1.35058 -30.70105,-2.14975 -61.81334,-16.40772 -30.47848,-13.96751 -41.74259,-16.24236 -58.63672,-11.842 -40.03499,10.42778 -69.59298,54.89192 -79.14048,119.05101 -2.7973,18.79764 -2.759,61.23884 0.084,93.6302 10.1543,115.67527 39.72504,246.13554 68.39795,301.75797 6.46973,12.55075 19.16529,27.57538 23.30065,27.57538 1.1638,0 3.12766,-2.13194 4.36414,-4.73763 z m -72.05058,-413.77634 c -6.0509,-3.68987 -7.7207,-8.98888 -6.8929,-21.87431 2.2355,-34.79723 26.05455,-66.91019 59.71292,-80.5054 16.54379,-6.68234 36.45595,-8.98316 43.99656,-5.08376 7.23771,3.74276 10.06728,14.02778 6.0151,21.86384 -2.38927,4.62034 -9.41291,8.11358 -16.31344,8.11358 -14.75159,0 -32.76867,8.43215 -44.25608,20.71224 -11.16292,11.93319 -17.42939,26.49696 -17.47837,40.6211 -0.0495,14.26821 -13.49922,23.03401 -24.78379,16.15271 z m 501.63287,448.40198 c -13.04968,-3.159 -25.77956,-10.68877 -36.9048,-21.82932 -11.54835,-11.56425 -17.47203,-21.80324 -21.32121,-36.85337 -2.58164,-10.09417 -2.63392,-15.81451 -2.63392,-288.21711 0,-305.2539 -0.58926,-283.70234 7.89393,-288.71348 3.27689,-1.93571 7.74501,-2.27475 29.97845,-2.27475 h 26.12761 v -26 -26 h -3.74888 c -6.10877,0 -24.13724,-5.19996 -34.2869,-9.8894 -14.53483,-6.71551 -24.27256,-13.48073 -36.40849,-25.29456 -17.55882,-17.09279 -28.73184,-36.05282 -35.05319,-59.48338 -2.54813,-9.44489 -3.05744,-14.66422 -3.05744,-31.332665 0,-23.67467 2.55121,-35.44421 11.86517,-54.737672 13.09186,-27.1192438 36.632,-49.946983 63.47184,-61.550966 19.21451,-8.307232 28.80365,-10.16141 52.55123,-10.16141 25.12698,0 35.04238,2.128162 55.26662,11.861983 36.90839,17.7638072 61.3454,48.809211 70.25579,89.254725 4.27306,19.39609 2.28981,47.476865 -4.795,67.891955 -14.19455,40.90207 -52.0395,73.8161 -94.47376,82.16454 l -8.25365,1.6238 v 25.82653 25.82652 h 26.12761 c 28.94746,0 31.70746,0.65988 35.85757,8.57304 1.95764,3.73269 2.11171,28.83951 1.74753,284.7603 l -0.39938,280.66668 -3.6368,10.66666 c -9.00522,26.41216 -30.68081,46.45954 -57.64333,53.3133 -9.76922,2.48329 -28.06884,2.43962 -38.5266,-0.092 z m 40.94258,-35.02464 c 9.66331,-4.75724 17.59294,-12.74984 22.46844,-22.64691 l 3.06238,-6.21646 0.3445,-231.00001 0.34451,-231.00001 h -48.03336 -48.03335 l 0.35551,229.66668 0.35552,229.66667 3.54721,7.56687 c 6.1262,13.06832 17.7958,23.3213 31.78612,27.92746 1.83334,0.60362 8.22606,0.92488 14.20604,0.71394 9.08494,-0.32047 12.30714,-1.0897 19.59648,-4.67823 z m 27.53082,-546.86339 v -24 h -48.66667 -48.66667 v 24 24 h 48.66667 48.66667 z m -65.33334,-146.04283 c 0,-13.802 6.19022,-21.95717 16.66667,-21.95717 10.43929,0 16.66667,8.15684 16.66667,21.8306 v 7.24959 l 7.14902,-1.86688 c 30.8997,-8.06903 56.65864,-32.56814 67.16495,-63.87998 3.20482,-9.55133 3.57906,-12.61849 3.57906,-29.333335 0,-16.71484 -0.37424,-19.782 -3.57906,-29.333338 -5.14424,-15.331309 -12.1395,-26.478304 -24.34295,-38.790669 -8.7814,-8.859766 -12.95746,-11.902112 -23.33333,-16.9988028 -17.65561,-8.67254 -26.74175,-10.829788 -45.30436,-10.756239 -18.16369,0.07197 -27.7266,2.293804 -44,10.222918 -9.34933,4.5554008 -13.56248,7.7512458 -24.06701,18.2557778 -10.46021,10.460212 -13.7258,14.757134 -18.29055,24.067015 -7.27876,14.845142 -10.03113,26.735098 -10.03113,43.333338 0,16.598245 2.75237,28.488185 10.03113,43.333335 4.57011,9.32081 7.81804,13.59113 18.29055,24.04797 10.35869,10.34321 14.84749,13.76327 24.06701,18.33693 9.90727,4.91484 22.51385,9.25606 27.66667,9.52736 1.14306,0.0601 1.66666,-2.22958 1.66666,-7.28842 z"
       style="fill-opacity:1;stroke-width:1.33333" />
  </g>
</svg>
