<?xml version="1.0" encoding="UTF-8" standalone="no"?>
<svg
   xmlns:dc="http://purl.org/dc/elements/1.1/"
   xmlns:cc="http://creativecommons.org/ns#"
   xmlns:rdf="http://www.w3.org/1999/02/22-rdf-syntax-ns#"
   xmlns:svg="http://www.w3.org/2000/svg"
   xmlns="http://www.w3.org/2000/svg"
   xmlns:sodipodi="http://sodipodi.sourceforge.net/DTD/sodipodi-0.dtd"
   xmlns:inkscape="http://www.inkscape.org/namespaces/inkscape"
   inkscape:version="1.0 (1.0+r73+1)"
   sodipodi:docname="garant-icon-6.svg"
   viewBox="0 0 800.00531 1000"
   height="1000"
   width="800.00531"
   id="svg440"
   version="1.1">
  <g
     transform="translate(1354.4464)"
     id="g448"
     inkscape:label="Image"
     inkscape:groupmode="layer">
    <path
       id="path452"
       d="m -970.69789,992.4346 c -59.48001,-40.61587 -247.98411,-170.52841 -255.74581,-176.25392 -14.5447,-10.72901 -41.674,-38.50065 -54.8814,-56.18068 -39.6509,-53.07861 -65.3583,-115.31928 -71.7083,-173.61412 -0.933,-8.56577 -1.4103,-86.75516 -1.4103,-231.04281 0,-235.68591 -0.3515,-224.18516 6.999,-229.00143 C -1343.3993,123.691 -958.64348,0 -954.44373,0 c 4.19975,0 388.95556,123.691 393.00095,126.34164 7.35056,4.81627 6.99905,-6.68448 6.99905,229.00143 0,144.28765 -0.47729,222.47704 -1.41035,231.04281 -6.34998,58.29484 -32.05741,120.53551 -71.70828,173.61412 -13.20736,17.68003 -40.33672,45.45167 -54.88137,56.18068 -7.76172,5.72551 -196.26585,135.63805 -255.74584,176.25392 -8.78057,5.9958 -12.15283,7.5654 -16.25416,7.5654 -4.10133,0 -7.47359,-1.5696 -16.25416,-7.5654 z m 138.48733,-115.30056 c 67.33842,-46.3096 126.0335,-86.90679 130.4335,-90.21595 11.96648,-8.99977 34.70618,-32.50329 46.0898,-47.63792 31.62377,-42.04409 52.65848,-88.67437 62.82868,-139.28017 l 3.08152,-15.33333 V 368.81584 152.965 L -772.1104,94.442955 -954.44373,35.920909 -1136.7771,94.442955 -1319.1104,152.965 V 368.81584 584.66667 L -1316.0289,600 c 6.2073,30.88692 15.2082,57.00631 29.4064,85.33333 20.0487,39.99966 48.556,76.99119 75.9787,98.59128 7.1895,5.66298 251.81656,175.22871 255.76658,177.28722 0.12826,0.0668 55.32824,-37.76818 122.66666,-84.07779 z m -129.5665,15.92003 c -6.3378,-3.6399 -170.40544,-118.25215 -180.66664,-126.20775 -33.3336,-25.84387 -65.8919,-67.75773 -88.6938,-114.17965 -20.4227,-41.57842 -31.4004,-78.12031 -35.2179,-117.23158 -0.9135,-9.35876 -1.4217,-69.09906 -1.4217,-167.13182 0,-166.55867 -0.3679,-158.46791 7.4398,-163.58372 4.1096,-2.69272 301.71548,-99.38622 305.89357,-99.38622 4.17809,0 301.78397,96.6935 305.89357,99.38622 7.80772,5.11581 7.43976,-2.97495 7.43976,163.58372 0,160.53994 -0.26437,169.03989 -6.16184,198.10738 -15.38714,75.84034 -64.06384,157.71014 -119.17149,200.43567 -11.4214,8.85512 -175.49437,123.36541 -180.91235,126.26287 -3.6819,1.96902 -10.94486,1.94128 -14.42098,-0.0551 z m 86.89813,-92.57712 c 92.14589,-64.13836 90.93351,-63.24192 106.25893,-78.56735 49.7708,-49.7708 85.57951,-124.95412 91.54264,-192.20124 0.89238,-10.06357 1.25651,-66.47413 1.01328,-156.97993 l -0.37965,-141.27159 -139,-45.12196 -139,-45.12196 -138.99997,45.12196 -139,45.12196 -0.3797,141.27159 c -0.2432,90.5058 0.1209,146.91636 1.0133,156.97993 4.2586,48.02495 23.7227,100.62221 54.1365,146.29164 20.8419,31.29613 42.1558,53.2818 72.4311,74.71376 16.4756,11.66313 149.43456,104.65029 150.36357,105.1594 0.12733,0.0697 36.12731,-24.85853 80,-55.39621 z M -1032.58,680.80631 c -8.0472,-3.74707 -14.3758,-9.77988 -21.9322,-20.90718 -18.1191,-26.68145 -35.2892,-85.78514 -46.5935,-160.3859 -7.4317,-49.04404 -8.5778,-62.11103 -8.6113,-98.1799 -0.03,-32.21848 0.1534,-34.77434 3.4979,-48.7784 13.282,-55.61416 46.5304,-89.31937 87.7754,-88.98126 12.6969,0.10413 19.96104,2.29645 43.99997,13.27952 19.42869,8.8767 23.34667,8.76984 44.97544,-1.22671 22.01853,-10.17668 29.26479,-12.21053 43.02456,-12.07595 30.16529,0.29506 56.9382,19.94304 73.28601,53.7828 18.22144,37.71815 21.03312,75.90004 11.29138,153.33334 -15.35308,122.03542 -42.98951,200.04041 -74.90802,211.431 -13.24088,4.7252 -25.69621,0.7694 -33.31629,-10.58122 -7.49437,-11.16334 -9.99285,-20.95674 -23.0074,-90.18312 -5.23073,-27.82309 -11.17704,-50.44025 -15.50869,-58.98836 -3.15288,-6.2219 -3.48739,-6.48564 -5.17323,-4.07877 -4.50785,6.43585 -11.11299,31.21667 -20.00856,75.06713 -10.84521,53.4611 -16.94192,72.5127 -26.39837,82.49232 -8.3493,8.81123 -20.24,10.6395 -32.3931,4.98066 z M -1018.633,634 c 1.4993,-5.13333 5.7848,-24.33333 9.5232,-42.66667 8.4113,-41.24964 12.46982,-57.99138 17.6039,-72.61836 6.55928,-18.68741 15.51741,-31.28785 25.99596,-36.5657 6.71714,-3.3833 18.55322,-2.80842 26.80126,1.30176 19.4067,9.67076 29.81836,35.28942 42.21878,103.8823 7.02814,38.87627 11.16632,58 12.55057,58 1.9836,0 9.67449,-14.66529 14.69239,-28.01602 14.71092,-39.14026 29.9259,-113.31254 36.23641,-176.65064 2.47673,-24.85891 2.20607,-60.39031 -0.56704,-74.4352 -5.03023,-25.47648 -14.12329,-43.84247 -27.94985,-56.45254 -15.19208,-13.85544 -27.06179,-14.46825 -52.56606,-2.7139 -18.85432,8.68952 -28.88648,11.60164 -39.96737,11.60164 -10.16776,0 -18.51276,-2.50482 -39.04955,-11.72102 -21.7892,-9.77824 -29.4065,-10.57825 -41.9454,-4.40533 -16.4563,8.1014 -29.099,27.04245 -36.2422,54.29728 -11.6427,44.42284 2.5868,165.46627 29.0136,246.80404 7.9778,24.55436 17.2202,43.59181 19.8298,40.84491 0.6025,-0.63427 2.3223,-5.35322 3.8216,-10.48655 z"
       style="fill-opacity:1;stroke-width:1.33333" />
  </g>
</svg>
