<?xml version="1.0" encoding="UTF-8" standalone="no"?>
<svg
   xmlns:dc="http://purl.org/dc/elements/1.1/"
   xmlns:cc="http://creativecommons.org/ns#"
   xmlns:rdf="http://www.w3.org/1999/02/22-rdf-syntax-ns#"
   xmlns:svg="http://www.w3.org/2000/svg"
   xmlns="http://www.w3.org/2000/svg"
   xmlns:sodipodi="http://sodipodi.sourceforge.net/DTD/sodipodi-0.dtd"
   xmlns:inkscape="http://www.inkscape.org/namespaces/inkscape"
   inkscape:version="1.0 (1.0+r73+1)"
   sodipodi:docname="garant-icon-5.svg"
   viewBox="0 0 1171.9999 946.59381"
   height="946.59381"
   width="1171.9999"
   id="svg428"
   version="1.1">
  <g
     transform="translate(1606.0736,-8.9002405)"
     id="g436"
     inkscape:label="Image"
     inkscape:groupmode="layer">
    <path
       id="path472"
       d="m -1595.9788,953.1628 c -7.0203,-3.57971 -10.0948,-8.685 -10.0948,-16.76237 0,-4.82863 0.8011,-7.96998 2.6667,-10.45636 6.0674,-8.08663 2.6368,-7.77546 86.2057,-7.81951 l 76.4609,-0.0403 85.0247,-65.1712 c 46.7636,-35.84416 86.9031,-65.82603 89.199,-66.62636 2.5917,-0.90352 17.0058,-1.4552 38.0194,-1.4552 h 33.8452 l -9.8829,-19 c -5.4357,-10.45 -23.4672,-45.7 -40.0701,-78.33334 l -30.1871,-59.33333 -121.4779,-171.33334 c -66.8129,-94.23333 -123.2967,-175.16644 -125.5195,-179.85136 -12.8007,-26.97842 -0.4858,-59.6998 27.6879,-73.56815 8.9689,-4.41494 9.8605,-4.5805 24.6666,-4.5805 14.4805,0 15.8721,0.24195 24.2675,4.21936 4.8984,2.32066 11.4984,6.6099 14.6667,9.53165 3.2339,2.98222 52.2539,71.72845 111.7605,156.73419 l 106,151.42191 62.3333,0.0464 62.3334,0.0465 v -190 -190.00001 h -29.1897 -29.1897 l -2.3671,9.6589 c -1.3018,5.3124 -5.2515,15.3624 -8.777,22.33333 -11.744,23.22119 -28.5048,39.61288 -52.4765,51.32067 -18.8965,9.22904 -25.8065,10.66163 -51.3334,10.64253 -21.3693,-0.016 -22.3631,-0.14168 -34.6666,-4.38457 -17.7029,-6.10485 -30.6211,-13.83455 -43.6133,-26.0962 -12.8462,-12.12392 -22.7517,-26.40416 -28.3064,-40.80799 -11.305,-29.31487 -10.3716,-59.55118 2.7102,-87.791358 27.3908,-59.129548 97.8371,-83.6694789 156.5428,-54.531597 29.1513,14.468918 50.2358,39.888736 59.4044,71.619014 l 3.093,10.703941 40.7513,0.002 c 45.4967,0.002 47.1028,0.28067 53.0581,9.19511 l 3.0265,4.53045 v 125.82883 125.82882 l 29,-0.35933 29.00005,-0.35934 0.66666,-22.89721 c 0.64434,-22.1302 0.77834,-23.01807 4,-26.50518 6.9038,-7.47258 3.72463,-7.26428 110.86955,-7.26428 97.19251,0 99.05626,0.0489 104.62934,2.74682 4.11961,1.99426 6.42669,4.30134 8.42096,8.42096 2.647,5.46796 2.74681,7.82389 2.74681,64.83223 0,57.00833 -0.0999,59.36426 -2.74681,64.83222 -4.59731,9.49678 -9.83537,11.16778 -35.00748,11.16778 h -20.91237 l -0.005,12.33333 c -0.005,14.29795 -2.07458,19.15215 -9.70577,22.77339 -5.96219,2.82924 -11.94963,2.82924 -17.91181,0 -7.63119,-3.62124 -9.7,-8.47544 -9.70577,-22.77339 l -0.005,-12.33333 h -19.1743 -19.17429 l -0.54553,12.4731 c -0.60508,13.8347 -2.29194,17.79509 -9.51166,22.33145 -3.2717,2.0557 -5.90812,2.55532 -11.35628,2.15206 -6.04765,-0.44761 -7.81961,-1.249 -12,-5.42713 l -4.90461,-4.90197 -0.45828,-13.31375 -0.45827,-13.31376 h -20.58456 c -22.38446,0 -26.67321,-0.95864 -32.49889,-7.26428 -3.22166,-3.48711 -3.35566,-4.37498 -4,-26.50518 l -0.66666,-22.89721 -29.00003,-0.35933 -29,-0.35934 v 57.35934 57.35933 h 36.1603 36.16033 l 230.04926,117.00001 c 244.67354,124.43772 239.01264,121.34892 247.74074,135.17517 12.0917,19.15456 11.0361,44.91779 -2.5995,63.44039 -13.7673,18.70156 -39.9688,27.52292 -62.1683,20.9304 -3.9276,-1.16639 -104.40119,-51.86639 -223.27449,-112.66667 l -216.13324,-110.5458 h -9.9789 -9.9789 l -29.2476,29.27032 -29.2477,29.27032 33.259,49.60151 c 18.2925,27.28083 34.159,50.82409 35.259,52.31836 1.6833,2.28664 2.1056,12.23013 2.6667,62.79484 l 0.6667,60.07799 282.66664,0.66667 c 233.81269,0.55144 283.12759,0.97677 285.33329,2.46093 5.5092,3.70685 8,8.61832 8,15.77463 0,8.07737 -3.0745,13.18266 -10.0947,16.76237 -4.3316,2.20872 -34.6038,2.33125 -575.90523,2.33125 -541.3014,0 -571.5737,-0.12253 -575.9052,-2.33125 z m 546.5718,-82.33127 V 823.4982 h -102.6159 -102.6159 l -60.6605,46.33333 c -33.3632,25.48334 -60.6861,46.78334 -60.7174,47.33334 -0.031,0.55 73.4431,1 163.2764,1 h 163.3333 z m 511.44783,-51.95239 c 4.9911,-3.27026 8.5416,-9.99301 8.5472,-16.18377 0.011,-12.15263 15.1969,-3.67812 -232.04078,-129.49155 l -225.9542,-114.9828 -120.66665,-0.0331 c -115.3317,-0.0316 -120.8435,-0.1428 -124.6667,-2.51564 -2.5953,-1.61078 -42.5412,-57.52326 -113.7494,-159.21568 -89.1628,-127.33351 -110.5844,-157.12936 -114.2015,-158.84574 -12.5616,-5.96089 -25.9447,1.7263 -27.061,15.54374 -0.6885,8.52172 -16.7735,-15.27506 124.8854,184.76011 l 112.5402,158.91681 h 128.6867 128.68676 l 217.61623,111.31829 c 119.68893,61.22505 219.03684,111.91772 220.77314,112.65037 4.1803,1.76399 12.4387,0.80854 16.6046,-1.92104 z m -528.28493,-35.71428 c -0.5469,-0.91666 -13.5307,-20.48206 -28.8527,-43.47867 -17.3767,-26.08037 -28.1299,-43.48589 -28.5803,-46.26094 -1.3906,-8.56946 0.4702,-11.25583 24.6551,-35.59372 l 23.518,-23.66667 h -76.9515 c -42.3233,0 -76.9515,0.30267 -76.9515,0.67259 0,0.36992 5.3286,11.01992 11.8414,23.66666 6.5127,12.64675 23.6489,46.24408 38.0805,74.66075 l 26.2393,51.66667 h 43.9981 c 34.84,0 43.7911,-0.34691 43.0036,-1.66667 z m 133.08268,-380.98127 0.42113,-22.64795 4.90461,-4.90112 c 4.18007,-4.17708 5.95282,-4.97871 12,-5.42628 5.44816,-0.40325 8.08458,0.0964 11.35628,2.15207 8.26211,5.19132 9.02554,7.73658 9.5205,31.74141 l 0.44805,21.7298 h 19.21861 19.21862 v -21.39955 c 0,-23.95761 0.83378,-27.0928 8.45838,-31.80506 8.47409,-5.23728 21.37171,-2.41683 26.36071,5.76456 2.17828,3.57212 2.50492,6.92718 2.50925,25.77338 l 0.005,21.66667 h 10 10 v -37.33333 -37.33334 h -77.33333 -77.33334 v 37.33334 37.33333 h 9.9122 9.9122 z M -1238.3448,194.93726 c 11.7713,-3.70984 22.7711,-10.52583 32.3817,-20.06521 14.7554,-14.64604 21.8433,-31.52634 21.8737,-52.09374 0.049,-33.102442 -19.8344,-60.631695 -51.7642,-71.669968 -44.0862,-15.240774 -91.6115,12.330693 -100.3092,58.193648 -4.4602,23.51824 3.5881,48.40342 21.4089,66.19619 15.7789,15.75409 35.0518,23.17379 57.3469,22.07751 6.9667,-0.34256 15.5447,-1.52986 19.0622,-2.63843 z"
       style="fill-opacity:1;stroke-width:1.33333" />
  </g>
</svg>
