<?xml version="1.0" encoding="UTF-8" standalone="no"?>
<svg
   xmlns:dc="http://purl.org/dc/elements/1.1/"
   xmlns:cc="http://creativecommons.org/ns#"
   xmlns:rdf="http://www.w3.org/1999/02/22-rdf-syntax-ns#"
   xmlns:svg="http://www.w3.org/2000/svg"
   xmlns="http://www.w3.org/2000/svg"
   xmlns:sodipodi="http://sodipodi.sourceforge.net/DTD/sodipodi-0.dtd"
   xmlns:inkscape="http://www.inkscape.org/namespaces/inkscape"
   inkscape:version="1.0 (1.0+r73+1)"
   sodipodi:docname="garant-icon-4.svg"
   viewBox="0 0 1053.2837 960.00244"
   height="960.00244"
   width="1053.2837"
   id="svg416"
   version="1.1">
  <g
     transform="translate(1457.6753,-0.02795249)"
     id="g424"
     inkscape:label="Image"
     inkscape:groupmode="layer">
    <path
       id="path492"
       d="m -1109.7878,956.97519 c -7.5585,-5.09368 -7.8646,-6.64591 -7.8862,-39.99478 l -0.02,-30.3529 4.5618,-4.98043 4.5617,-4.98041 30.0973,-0.40418 c 29.7575,-0.39962 30.1046,-0.43725 30.7449,-3.33333 0.7073,-3.19919 11.3677,-78.01465 11.3677,-79.77928 0,-0.59731 -82.35,-1.25039 -183,-1.45128 l -183,-0.36527 -8.5155,-3.0755 c -4.6835,-1.69154 -11.5835,-5.04015 -15.3333,-7.44136 -8.5452,-5.47188 -19.945,-17.84911 -24.2326,-26.31027 -7.6364,-15.06973 -7.2109,6.05132 -7.2323,-358.98041 -0.018,-302.132442 0.1921,-336.629086 2.0925,-343.999997 6.3308,-24.554098 25.7365,-43.7506437 50.0119,-49.4727485 7.5336,-1.77581299 63.5785,-2.01362827 474.54253,-2.01362827 514.01605,0 474.22065,-0.67465751 491.19195,8.32725347 10.3544,5.4922173 21.6158,16.7536183 27.108,27.1080773 8.9299,16.835372 8.3273,-9.252846 8.3273,360.525253 0,364.52795 0.4243,343.4354 -7.2126,358.5062 -4.2876,8.46116 -15.6874,20.83839 -24.2326,26.31027 -3.7498,2.40121 -10.6498,5.74982 -15.3333,7.44136 l -8.51543,3.0755 -183,0.36527 c -100.64999,0.20089 -182.99999,0.85397 -182.99999,1.45128 0,1.79797 10.66756,76.6134 11.38544,79.85012 0.65432,2.95019 1.00255,3.00015 20.97329,3.00879 17.8275,0.008 20.78552,0.32361 24.21803,2.58633 7.03894,4.64011 7.32485,6.18116 7.37598,39.7578 l 0.0472,31.01957 -4.56406,4.98043 -4.56406,4.98041 -167.21619,0.34854 -167.21619,0.34853 -4.5337,-3.05521 z M -795.02697,918 v -8.66667 H -939.69364 -1084.3603 V 918 v 8.66667 h 144.66666 144.66667 z m -54.7548,-45.66667 c -0.0485,-2.01666 -2.62663,-20.76666 -5.72924,-41.66666 l -5.6411,-38 h -69.88695 -69.88694 l -5.6345,38 c -3.099,20.9 -5.6717,39.65 -5.7171,41.66666 l -0.083,3.66667 h 81.33333 81.33333 z m 391.42145,-117.53325 c 7.0641,-3.27775 13.7693,-10.0844 17.2065,-17.46675 l 2.7935,-6 V 396.66667 c 0,-271.39947 -0.3281,-335.591997 -1.7353,-339.561403 -2.8499,-8.038438 -8.6942,-14.860296 -16.3675,-19.105267 l -7.23053,-4 h -467.33332 -467.33333 l -7.2305,4 c -7.6733,4.244971 -13.5176,11.066829 -16.3675,19.105267 -1.4073,3.969406 -1.7353,68.161933 -1.7353,339.561403 v 334.66666 l 2.7935,6 c 3.4372,7.38235 10.1424,14.189 17.2065,17.46675 5.1634,2.39584 20.223,2.47469 472.66663,2.47469 452.4436,0 467.50324,-0.0788 472.66665,-2.47469 z m -939.25108,-15.90311 c -2.4986,-1.33998 -5.6392,-4.48062 -6.9792,-6.97918 -2.3408,-4.36476 -2.4364,-17.52119 -2.4364,-335.60648 0,-364.377073 -0.6463,-337.517935 8.2531,-342.943797 4.4045,-2.685318 5.3708,-2.690878 467.74693,-2.690878 462.37611,0 463.34244,0.0056 467.74689,2.690878 8.89946,5.425862 8.25306,-21.433276 8.25306,342.943797 0,318.08529 -0.095,331.24172 -2.4363,335.60648 -1.34001,2.49856 -4.48065,5.6392 -6.97921,6.97918 -4.37467,2.34616 -21.64837,2.43636 -466.58444,2.43636 -444.93603,0 -462.20973,-0.0902 -466.58443,-2.43636 z M -489.69365,396 V 84 h -441.33332 -441.33333 v 312 312 h 441.33333 441.33332 z m -523.57455,208.19253 c -14.7155,-5.08501 -26.9832,-18.94554 -39.7043,-44.8592 -15.4655,-31.50417 -27.261,-73.6907 -37.2805,-133.33333 -9.1579,-54.51408 -12.2821,-101.32184 -8.2883,-124.18092 10.5763,-60.5348 47.6812,-99.15241 95.2687,-99.15241 13.76399,0 22.62404,2.2272 44.17163,11.1037 15.66285,6.4523 17.47033,6.8963 28.074,6.8963 10.60367,0 12.41115,-0.444 28.074,-6.8963 21.54759,-8.8765 30.40764,-11.1037 44.17166,-11.1037 47.58743,0 84.6924,38.61761 95.26865,99.15241 4.89354,28.00889 -1.26588,94.08215 -14.93221,160.18092 -13.43061,64.95875 -32.65604,111.98529 -53.90914,131.86509 -14.87426,13.91312 -32.7988,16.3817 -44.47967,6.12576 -10.05237,-8.82609 -15.98617,-25.5112 -25.59512,-71.97014 -11.56993,-55.94028 -18.73146,-78.58496 -26.32082,-83.2262 -6.35232,-3.88472 -13.30366,16.71978 -29.64538,87.87216 -11.36349,49.47701 -20.7425,68.27701 -36.20426,72.5705 -6.98874,1.94067 -10.61744,1.73762 -18.66894,-1.04464 z m 11.4244,-40.76393 c 1.4895,-3.98095 5.06841,-17.03095 7.95319,-29 2.8848,-11.96907 7.77958,-32.26193 10.87728,-45.09527 9.52221,-39.44909 16.74605,-56.73676 28.79559,-68.91185 14.53286,-14.68432 35.21672,-14.10043 50.3008,1.41995 13.93417,14.33721 22.27437,37.76281 34.15385,95.92984 6.0508,29.62733 10.23014,46.79194 12.364,50.77909 1.36422,2.54909 1.63906,2.44133 5.67162,-2.22365 17.66451,-20.43483 42.69743,-103.18207 51.93106,-171.66004 8.06273,-59.79446 5.89325,-91.92298 -8.1907,-121.2983 -10.82388,-22.57569 -27.39409,-35.46074 -47.56437,-36.98622 -10.23016,-0.77371 -13.30929,0.0719 -44.57972,12.24145 -26.0508,10.13831 -39.00541,9.39339 -72.40505,-4.16339 -18.51289,-7.51432 -19.56109,-7.77436 -31.15735,-7.72988 -10.4378,0.04 -13.0415,0.54716 -20,3.89543 -21.1683,10.1856 -36.2365,35.35436 -41.5334,69.37424 -7.5168,48.27745 11.4606,158.68304 38.8468,226 7.7326,19.00719 17.1388,34.66667 20.8232,34.66667 0.5528,0 2.2238,-3.25714 3.7132,-7.23807 z"
       style="fill-opacity:1;stroke-width:1.33333" />
  </g>
</svg>
