<?xml version="1.0" encoding="UTF-8" standalone="no"?>
<svg
   xmlns:dc="http://purl.org/dc/elements/1.1/"
   xmlns:cc="http://creativecommons.org/ns#"
   xmlns:rdf="http://www.w3.org/1999/02/22-rdf-syntax-ns#"
   xmlns:svg="http://www.w3.org/2000/svg"
   xmlns="http://www.w3.org/2000/svg"
   xmlns:sodipodi="http://sodipodi.sourceforge.net/DTD/sodipodi-0.dtd"
   xmlns:inkscape="http://www.inkscape.org/namespaces/inkscape"
   inkscape:version="1.0 (1.0+r73+1)"
   sodipodi:docname="intro-icon-3.svg"
   viewBox="0 0 692.56823 772.99902"
   height="772.99902"
   width="692.56824"
   id="svg184"
   version="1.1">
  <g
     transform="translate(824.82014,-55.649437)"
     id="g192"
     inkscape:label="Image"
     inkscape:groupmode="layer">
    <g
       transform="translate(-824.91854,55.487505)"
       id="g232">
      <path
         id="path236"
         d="m 688.66664,769.33331 c 1.32732,-1.46667 2.71331,-2.66667 3.07998,-2.66667 0.36666,0 -0.41932,1.2 -1.74664,2.66667 -1.32732,1.46667 -2.71331,2.66667 -3.07998,2.66667 -0.36666,0 0.41932,-1.2 1.74664,-2.66667 z M 562.66242,743.72946 c -0.36435,-11.51546 -0.19581,-20.46882 0.37452,-19.89638 0.57033,0.57246 0.86843,9.99419 0.66244,20.93719 l -0.37453,19.89637 z m 65.33708,3.28112 38.66714,-0.38422 v -97.95971 -97.95972 l -38.66714,-0.38421 -38.66715,-0.38422 39.00048,0.0308 39.00048,0.0308 v 98.66667 98.66666 l -39.00048,0.0308 -39.00048,0.0308 38.66715,-0.38421 z m -293.69591,-1.30624 c 2.36697,-0.29455 6.56697,-0.29939 9.33333,-0.0107 2.76635,0.28864 0.82974,0.52963 -4.3036,0.53555 -5.13333,0.005 -7.39672,-0.23024 -5.02973,-0.52479 z m 34.02973,-0.0177 c 3.48333,-0.27466 9.18333,-0.27466 12.66667,0 3.48333,0.27467 0.63333,0.49939 -6.33334,0.49939 -6.96666,0 -9.81666,-0.22472 -6.33333,-0.49939 z m -53.30796,-1.27726 c 1.2973,-0.33806 3.0973,-0.31583 4,0.0495 0.90271,0.36524 -0.1587,0.64183 -2.3587,0.61466 -2.2,-0.0272 -2.93859,-0.326 -1.6413,-0.66406 z m 87.32351,-0.0191 c 1.65854,-0.31892 4.05854,-0.30681 5.33333,0.0269 1.27479,0.33372 -0.0823,0.59467 -3.01555,0.57987 -2.93333,-0.0148 -3.97633,-0.28785 -2.31778,-0.60677 z m -98.59888,-1.30113 c 0.96249,-0.38516 2.11249,-0.3378 2.55556,0.1052 0.44305,0.44305 -0.34445,0.75818 -1.75,0.70029 -1.55327,-0.064 -1.8692,-0.37992 -0.80556,-0.80555 z m 116.6087,-0.0133 c 1.2973,-0.33805 3.0973,-0.31582 4,0.0495 0.90271,0.36524 -0.1587,0.64183 -2.3587,0.61465 -2.2,-0.0272 -2.93859,-0.326 -1.6413,-0.66405 z m 13.97463,-1.2922 c 0.91667,-0.36988 2.41667,-0.36988 3.33333,0 0.91667,0.36988 0.16667,0.67252 -1.66666,0.67252 -1.83334,0 -2.58334,-0.30264 -1.66667,-0.67252 z m 13.41666,-1.3611 c 0.9625,-0.38516 2.11251,-0.3378 2.55556,0.1052 0.44306,0.44305 -0.34445,0.75818 -1.75,0.70029 -1.55326,-0.064 -1.8692,-0.37992 -0.80556,-0.80555 z m 10.58334,-1.30556 c 0.91666,-0.36988 2.41666,-0.36988 3.33333,0 0.91667,0.36988 0.16667,0.67252 -1.66667,0.67252 -1.83333,0 -2.58333,-0.30264 -1.66666,-0.67252 z m 10.66666,-1.33334 c 0.91667,-0.36988 2.41667,-0.36988 3.33334,0 0.91666,0.36988 0.16666,0.67252 -1.66667,0.67252 -1.83333,0 -2.58333,-0.30264 -1.66667,-0.67252 z m 10.75,-1.3611 c 0.9625,-0.38516 2.11251,-0.3378 2.55556,0.1052 0.44306,0.44305 -0.34445,0.75818 -1.75,0.70029 -1.55326,-0.064 -1.8692,-0.37992 -0.80556,-0.80555 z m 9.25,-1.30556 c 0.91667,-0.36988 2.41667,-0.36988 3.33334,0 0.91666,0.36988 0.16666,0.67252 -1.66667,0.67252 -1.83333,0 -2.58333,-0.30264 -1.66667,-0.67252 z m 9.41667,-1.36111 c 0.96249,-0.38516 2.11251,-0.3378 2.55556,0.1052 0.44305,0.44305 -0.34445,0.75819 -1.75,0.70029 -1.55327,-0.064 -1.8692,-0.37992 -0.80556,-0.80554 z M 262.41666,732.4225 c 0.96249,-0.38516 2.11249,-0.3378 2.55556,0.1052 0.44305,0.44305 -0.34446,0.75818 -1.75,0.70029 -1.55327,-0.064 -1.8692,-0.37992 -0.80556,-0.80555 z m 245.33332,0 c 0.9625,-0.38516 2.11251,-0.3378 2.55556,0.1052 0.44306,0.44305 -0.34445,0.75818 -1.75,0.70029 -1.55326,-0.064 -1.8692,-0.37992 -0.80556,-0.80555 z m -255.99999,-1.33334 c 0.96249,-0.38516 2.11249,-0.3378 2.55556,0.1052 0.44305,0.44306 -0.34445,0.75819 -1.75,0.7003 -1.55327,-0.064 -1.8692,-0.37992 -0.80556,-0.80555 z m 263.99999,0 c 0.9625,-0.38516 2.11251,-0.3378 2.55556,0.1052 0.44306,0.44306 -0.34445,0.75819 -1.75,0.7003 -1.55326,-0.064 -1.8692,-0.37992 -0.80556,-0.80555 z M 240.99999,729.7836 c 0.91667,-0.36988 2.41667,-0.36988 3.33334,0 0.91666,0.36988 0.16666,0.67252 -1.66667,0.67252 -1.83333,0 -2.58333,-0.30264 -1.66667,-0.67252 z m -10.66666,-1.33333 c 0.91666,-0.36988 2.41666,-0.36988 3.33333,0 0.91667,0.36988 0.16667,0.67252 -1.66667,0.67252 -1.83333,0 -2.58333,-0.30264 -1.66666,-0.67252 z m -9.25,-1.36111 c 0.96249,-0.38516 2.11249,-0.3378 2.55556,0.1052 0.44305,0.44306 -0.34446,0.75819 -1.75,0.7003 -1.55327,-0.064 -1.8692,-0.37992 -0.80556,-0.80555 z m -10.66667,-1.33333 c 0.96249,-0.38516 2.11249,-0.3378 2.55556,0.1052 0.44305,0.44305 -0.34445,0.75819 -1.75,0.70029 -1.55327,-0.064 -1.8692,-0.37992 -0.80556,-0.80554 z m 337.33332,0 c 0.96249,-0.38516 2.11251,-0.3378 2.55556,0.1052 0.44305,0.44305 -0.34445,0.75819 -1.75,0.70029 -1.55327,-0.064 -1.8692,-0.37992 -0.80556,-0.80554 z m -348.08332,-1.30556 c 0.91667,-0.36988 2.41667,-0.36988 3.33333,0 0.91667,0.36988 0.16667,0.67252 -1.66666,0.67252 -1.83334,0 -2.58334,-0.30264 -1.66667,-0.67252 z m -9.25,-1.36111 c 0.96249,-0.38516 2.11249,-0.3378 2.55556,0.1052 0.44305,0.44306 -0.34445,0.75819 -1.75,0.7003 -1.55327,-0.064 -1.8692,-0.37992 -0.80556,-0.80555 z m -10.66667,-1.33333 c 0.9625,-0.38516 2.1125,-0.3378 2.55556,0.1052 0.44306,0.44305 -0.34445,0.75819 -1.75,0.70029 -1.55326,-0.064 -1.8692,-0.37992 -0.80556,-0.80554 z m -10.75,-1.30556 c 0.91667,-0.36988 2.41667,-0.36988 3.33334,0 0.91666,0.36988 0.16666,0.67252 -1.66667,0.67252 -1.83333,0 -2.58333,-0.30264 -1.66667,-0.67252 z m -9.25,-1.36111 c 0.9625,-0.38516 2.1125,-0.3378 2.55556,0.1052 0.44306,0.44306 -0.34445,0.75819 -1.75,0.7003 -1.55326,-0.064 -1.8692,-0.37992 -0.80556,-0.80555 z m 165.26555,-0.0321 c 1.65854,-0.31892 4.05854,-0.30681 5.33333,0.0269 1.27479,0.33372 -0.0823,0.59467 -3.01555,0.57987 -2.93333,-0.0148 -3.97633,-0.28785 -2.31778,-0.60677 z m 62.65111,0.003 c 1.65,-0.31782 4.35,-0.31782 6,0 1.65,0.3178 0.3,0.57782 -3,0.57782 -3.3,0 -4.65,-0.26002 -3,-0.57782 z m -238.58332,-1.30317 c 0.96249,-0.38516 2.11249,-0.3378 2.55556,0.1052 0.44305,0.44305 -0.34446,0.75818 -1.75,0.70029 -1.55327,-0.064 -1.8692,-0.37992 -0.80556,-0.80555 z m 161.24999,0.0277 c 0.91667,-0.36988 2.41667,-0.36988 3.33334,0 0.91666,0.36988 0.16666,0.67252 -1.66667,0.67252 -1.83333,0 -2.58333,-0.30264 -1.66667,-0.67252 z m 98,-0.0361 c 1.28333,-0.33536 3.38333,-0.33536 4.66667,0 1.28333,0.33537 0.23333,0.60977 -2.33334,0.60977 -2.56666,0 -3.61666,-0.2744 -2.33333,-0.60977 z m -269.99999,-1.29727 c 0.91667,-0.36988 2.41667,-0.36988 3.33333,0 0.91667,0.36988 0.16667,0.67252 -1.66666,0.67252 -1.83334,0 -2.58334,-0.30264 -1.66667,-0.67252 z m 287.3587,-0.0409 c 1.29729,-0.33806 3.09729,-0.31583 4,0.0495 0.9027,0.36524 -0.15871,0.64183 -2.35871,0.61466 -2.2,-0.0272 -2.93859,-0.326 -1.64129,-0.66406 z m -296.6087,-1.32076 c 0.9625,-0.38516 2.1125,-0.3378 2.55555,0.1052 0.44306,0.44305 -0.34444,0.75818 -1.75,0.70029 -1.55325,-0.064 -1.86919,-0.37992 -0.80555,-0.80555 z m 165.33333,0 c 0.96249,-0.38516 2.11249,-0.3378 2.55556,0.1052 0.44305,0.44305 -0.34446,0.75818 -1.75,0.70029 -1.55327,-0.064 -1.8692,-0.37992 -0.80556,-0.80555 z m 145.24999,0.0277 c 0.91667,-0.36988 2.41667,-0.36988 3.33334,0 0.91666,0.36988 0.16666,0.67252 -1.66667,0.67252 -1.83333,0 -2.58333,-0.30264 -1.66667,-0.67252 z m -321.24999,-1.36107 c 0.9625,-0.38516 2.1125,-0.3378 2.55556,0.1052 0.44305,0.44306 -0.34445,0.75819 -1.75,0.7003 -1.55326,-0.064 -1.8692,-0.37992 -0.80556,-0.80555 z m 333.24999,0.0277 c 0.91667,-0.36988 2.41667,-0.36988 3.33333,0 0.91667,0.36988 0.16667,0.67252 -1.66666,0.67252 -1.83334,0 -2.58334,-0.30264 -1.66667,-0.67252 z m 10.66667,-1.33334 c 0.91666,-0.36988 2.41666,-0.36988 3.33333,0 0.91667,0.36988 0.16667,0.67252 -1.66667,0.67252 -1.83333,0 -2.58333,-0.30264 -1.66666,-0.67252 z m 10.75,-1.3611 c 0.96249,-0.38516 2.1125,-0.3378 2.55556,0.1052 0.44305,0.44305 -0.34446,0.75818 -1.75,0.70029 -1.55327,-0.064 -1.8692,-0.37992 -0.80556,-0.80555 z m 9.25,-1.30556 c 0.91666,-0.36988 2.41666,-0.36988 3.33333,0 0.91667,0.36988 0.16667,0.67252 -1.66667,0.67252 -1.83333,0 -2.58333,-0.30264 -1.66666,-0.67252 z m 9.41666,-1.36111 c 0.9625,-0.38516 2.11251,-0.3378 2.55556,0.1052 0.44306,0.44305 -0.34445,0.75819 -1.75,0.70029 -1.55326,-0.064 -1.8692,-0.37992 -0.80556,-0.80554 z m -224.08332,-1.30552 c 0.91666,-0.36988 2.41666,-0.36988 3.33333,0 0.91667,0.36988 0.16667,0.67252 -1.66667,0.67252 -1.83333,0 -2.58333,-0.30264 -1.66666,-0.67252 z m 233.41666,-0.0277 c 0.96249,-0.38516 2.1125,-0.3378 2.55556,0.1052 0.44305,0.44305 -0.34446,0.75818 -1.75,0.70029 -1.55327,-0.064 -1.8692,-0.37992 -0.80556,-0.80555 z m -242.66666,-1.33334 c 0.96249,-0.38516 2.11249,-0.3378 2.55556,0.1052 0.44305,0.44306 -0.34446,0.75819 -1.75,0.7003 -1.55327,-0.064 -1.8692,-0.37992 -0.80556,-0.80555 z m 251.99999,0 c 0.96249,-0.38516 2.11251,-0.3378 2.55556,0.1052 0.44305,0.44306 -0.34445,0.75819 -1.75,0.7003 -1.55327,-0.064 -1.8692,-0.37992 -0.80556,-0.80555 z m -262.66666,-1.33333 c 0.96249,-0.38516 2.11249,-0.3378 2.55556,0.1052 0.44305,0.44305 -0.34445,0.75819 -1.75,0.70029 -1.55326,-0.064 -1.8692,-0.37992 -0.80556,-0.80554 z m 270.66666,0 c 0.96249,-0.38516 2.11251,-0.3378 2.55556,0.1052 0.44305,0.44305 -0.34445,0.75819 -1.75,0.70029 -1.55327,-0.064 -1.8692,-0.37992 -0.80556,-0.80554 z m -281.41666,-1.3056 c 0.91667,-0.36988 2.41667,-0.36988 3.33334,0 0.91666,0.36988 0.16666,0.67252 -1.66667,0.67252 -1.83333,0 -2.58333,-0.30264 -1.66667,-0.67252 z m 289.41666,-0.0277 c 0.96249,-0.38516 2.11251,-0.3378 2.55556,0.1052 0.44305,0.44305 -0.34445,0.75818 -1.75,0.70029 -1.55327,-0.064 -1.8692,-0.37992 -0.80556,-0.80555 z m -298.66666,-1.33334 c 0.9625,-0.38516 2.1125,-0.3378 2.55556,0.1052 0.44306,0.44306 -0.34445,0.75819 -1.75,0.7003 -1.55326,-0.064 -1.8692,-0.37992 -0.80556,-0.80555 z m 306.66666,0 c 0.96249,-0.38516 2.11251,-0.3378 2.55556,0.1052 0.44305,0.44306 -0.34445,0.75819 -1.75,0.7003 -1.55327,-0.064 -1.8692,-0.37992 -0.80556,-0.80555 z m -317.33332,-1.33333 c 0.96249,-0.38516 2.11249,-0.3378 2.55556,0.1052 0.44305,0.44305 -0.34446,0.75819 -1.75,0.70029 -1.55327,-0.064 -1.8692,-0.37992 -0.80556,-0.80554 z m -10.75,-1.30556 c 0.91666,-0.36988 2.41666,-0.36988 3.33333,0 0.91667,0.36988 0.16667,0.67252 -1.66667,0.67252 -1.83333,0 -2.58333,-0.30264 -1.66666,-0.67252 z m 342.74998,-0.0277 c 0.9625,-0.38516 2.11251,-0.3378 2.55556,0.1052 0.44306,0.44305 -0.34445,0.75818 -1.75,0.70029 -1.55326,-0.064 -1.8692,-0.37992 -0.80556,-0.80555 z m -351.99998,-1.33334 c 0.96249,-0.38516 2.11249,-0.3378 2.55556,0.1052 0.44305,0.44306 -0.34446,0.75819 -1.75,0.7003 -1.55327,-0.064 -1.8692,-0.37992 -0.80556,-0.80555 z m -10.66667,-1.33333 c 0.96249,-0.38516 2.11249,-0.3378 2.55556,0.1052 0.44305,0.44305 -0.34445,0.75819 -1.75,0.70029 -1.55327,-0.064 -1.8692,-0.37992 -0.80556,-0.80554 z m 376.56593,-47.40915 -0.31594,-48.98654 -61,-0.36057 -61,-0.36058 61.04184,-0.31954 c 47.96496,-0.2511 61.17938,0.0388 61.68386,1.35352 0.35311,0.92018 0.47646,23.27018 0.27411,49.66666 l -0.36791,47.9936 z m -387.31593,46.10351 c 0.91667,-0.36988 2.41667,-0.36988 3.33333,0 0.91667,0.36988 0.16667,0.67252 -1.66666,0.67252 -1.83334,0 -2.58334,-0.30264 -1.66667,-0.67252 z m -9.25,-1.36111 c 0.96249,-0.38516 2.11249,-0.3378 2.55556,0.1052 0.44305,0.44306 -0.34445,0.75819 -1.75,0.7003 -1.55327,-0.064 -1.8692,-0.37992 -0.80556,-0.80555 z m -10.66667,-1.33333 c 0.9625,-0.38516 2.1125,-0.3378 2.55556,0.1052 0.44306,0.44305 -0.34445,0.75819 -1.75,0.70029 -1.55326,-0.064 -1.8692,-0.37992 -0.80556,-0.80554 z M 145,691.11694 c 0.91666,-0.36988 2.41666,-0.36988 3.33333,0 0.91666,0.36988 0.16667,0.67252 -1.66667,0.67252 -1.83333,0 -2.58333,-0.30264 -1.66666,-0.67252 z m -9.25,-1.36111 c 0.96249,-0.38516 2.11249,-0.3378 2.55556,0.1052 0.44305,0.44306 -0.34446,0.75819 -1.75,0.7003 -1.55327,-0.064 -1.8692,-0.37992 -0.80556,-0.80555 z m -10.66667,-1.33333 c 0.9625,-0.38516 2.1125,-0.3378 2.55556,0.1052 0.44305,0.44305 -0.34445,0.75819 -1.75,0.70029 -1.55326,-0.064 -1.8692,-0.37992 -0.80556,-0.80554 z M 10.565752,656.33331 7.3333331,652.66665 11,655.89906 c 2.016666,1.77784 3.666666,3.42784 3.666666,3.66667 0,1.0457 -1.079732,0.19464 -4.100914,-3.23242 z M 127.01833,641.70987 c 2.02675,-0.30648 5.02675,-0.29828 6.66667,0.0181 1.63992,0.31648 -0.0184,0.56722 -3.685,0.55722 -3.66667,-0.0107 -5.00842,-0.26896 -2.98167,-0.57542 z m 57.315,-1.36529 c 4.95,-0.25655 13.05,-0.25655 18,0 4.95,0.25655 0.9,0.46644 -9,0.46644 -9.9,0 -13.95,-0.20989 -9,-0.46644 z m 69.33333,-1.2996 c 2.01666,-0.30551 5.31666,-0.30551 7.33333,0 2.01667,0.30549 0.36667,0.55545 -3.66667,0.55545 -4.03333,0 -5.68333,-0.24996 -3.66666,-0.55545 z M 0.10526316,635.22221 c 0.0639785,-1.55327 0.37992038,-1.8692 0.80555553,-0.80556 0.38516081,0.96249 0.33779241,2.1125 -0.1052632,2.55556 -0.44305554,0.44305 -0.7581871,-0.34446 -0.70029233,-1.75 z m 25.43859584,-5.8889 c 0,-1.83333 0.302631,-2.58333 0.672515,-1.66666 0.369882,0.91666 0.369882,2.41666 0,3.33333 -0.369884,0.91667 -0.672515,0.16667 -0.672515,-1.66667 z m -25.43859584,-6.1111 c 0.0639785,-1.55327 0.37992038,-1.8692 0.80555553,-0.80556 0.38516081,0.96249 0.33779241,2.1125 -0.1052632,2.55556 -0.44305554,0.44305 -0.7581871,-0.34446 -0.70029233,-1.75 z M 157.70689,615.01829 c 3.50546,-0.27558 8.90546,-0.27224 12,0.008 3.09454,0.27962 0.22644,0.50509 -6.37356,0.50102 -6.6,-0.004 -9.1319,-0.23285 -5.62644,-0.50841 z m 68.49532,-1.35164 c -0.34202,-0.55 3.07258,-0.83292 7.58797,-0.62871 14.70401,0.66499 16.44344,1.19764 4.62184,1.41532 -6.37339,0.11733 -11.8678,-0.23661 -12.20981,-0.78661 z m 87.34163,-12.33333 c 0,-1.83334 0.30264,-2.58334 0.67252,-1.66667 0.36988,0.91667 0.36988,2.41667 0,3.33333 -0.36988,0.91667 -0.67252,0.16667 -0.67252,-1.66666 z M 17.333333,589.99998 c 1.722326,-1.83333 3.431504,-3.33333 3.79817,-3.33333 0.366667,0 -0.74251,1.5 -2.464837,3.33333 -1.722327,1.83334 -3.431504,3.33334 -3.798171,3.33334 -0.366666,0 0.742511,-1.5 2.464838,-3.33334 z m 89.746487,-12 c 0.007,-4.4 0.2564,-6.03925 0.55315,-3.64278 0.29675,2.39646 0.29063,5.99646 -0.0136,8 -0.30423,2.00353 -0.54703,0.0428 -0.53954,-4.35722 z m 25.1307,-0.66666 c 0,-1.83334 0.30263,-2.58334 0.67252,-1.66667 0.36988,0.91667 0.36988,2.41667 0,3.33333 -0.36989,0.91667 -0.67252,0.16667 -0.67252,-1.66666 z m 106.28606,0.33333 c -1.65849,-2.11475 -1.61133,-2.16191 0.50341,-0.50341 1.28334,1.00646 2.33334,2.05646 2.33334,2.33333 0,1.09739 -1.09492,0.39108 -2.83675,-1.82992 z m -193.496582,0.11696 c 0.916667,-0.36988 2.416667,-0.36988 3.333334,0 0.916666,0.36988 0.166666,0.67252 -1.666667,0.67252 -1.833333,0 -2.583333,-0.30264 -1.666667,-0.67252 z M 563.1999,553.99998 c 0.001,-11 0.20839,-15.32257 0.45892,-9.60572 0.25053,5.71684 0.24901,14.71684 -0.004,20 -0.2524,5.28315 -0.45739,0.60572 -0.45552,-10.39428 z m -335.95045,13.66667 -3.91612,-4.33333 4.33333,3.91612 c 4.03928,3.65037 4.9462,4.75054 3.91612,4.75054 -0.22947,0 -2.17947,-1.95 -4.33333,-4.33333 z m -77.58279,-9.91911 c 1.28333,-0.33536 3.38333,-0.33536 4.66667,0 1.28333,0.33538 0.23333,0.60978 -2.33334,0.60978 -2.56666,0 -3.61666,-0.2744 -2.33333,-0.60978 z m 102.16325,-2.74756 c -1.65849,-2.11474 -1.61133,-2.1619 0.50341,-0.50341 2.221,1.74183 2.92731,2.83675 1.82992,2.83675 -0.27686,0 -1.32686,-1.05 -2.33333,-2.33334 z M 116,548.9161 c 0,-0.22946 1.95,-2.17946 4.33333,-4.33333 l 4.33333,-3.91612 -3.91612,4.33333 C 117.10017,549.03926 116,549.94618 116,548.9161 Z m 67.24945,-3.91612 -3.91612,-4.33333 4.33333,3.91612 c 4.03928,3.65037 4.9462,4.75055 3.91612,4.75055 -0.22947,0 -2.17947,-1.95 -4.33333,-4.33334 z m 25.08678,-13.66666 c 0.0148,-2.93334 0.28786,-3.97634 0.60678,-2.31779 0.31892,1.65855 0.30681,4.05855 -0.0269,5.33333 -0.33372,1.27479 -0.59466,-0.0823 -0.57986,-3.01554 z m -48.58624,1.08918 c 0.9625,-0.38516 2.1125,-0.3378 2.55556,0.1052 0.44306,0.44306 -0.34445,0.75819 -1.75,0.7003 -1.55326,-0.064 -1.8692,-0.37992 -0.80556,-0.80555 z m 94.58333,-7.97222 c 0.91667,-0.36988 2.41667,-0.36988 3.33334,0 0.91666,0.36988 0.16666,0.67252 -1.66667,0.67252 -1.83333,0 -2.58333,-0.30264 -1.66667,-0.67252 z m 20.08334,-22.69444 c 0.96249,-0.38516 2.11249,-0.3378 2.55556,0.1052 0.44305,0.44305 -0.34446,0.75818 -1.75,0.70029 -1.55327,-0.064 -1.8692,-0.37992 -0.80556,-0.80555 z m -6.66667,-1.33334 c 0.96249,-0.38516 2.11249,-0.3378 2.55556,0.1052 0.44305,0.44306 -0.34445,0.75819 -1.75,0.7003 -1.55327,-0.064 -1.8692,-0.37992 -0.80556,-0.80555 z m -30.66666,-1.33333 c 0.96249,-0.38516 2.11249,-0.3378 2.55556,0.1052 0.44305,0.44305 -0.34446,0.75819 -1.75,0.70029 -1.55327,-0.064 -1.8692,-0.37992 -0.80556,-0.80554 z m 19.27537,-0.0133 c 1.29729,-0.33806 3.09729,-0.31583 4,0.0495 0.9027,0.36524 -0.15871,0.64183 -2.35871,0.61466 -2.2,-0.0272 -2.93859,-0.326 -1.64129,-0.66406 z m 46.84794,-8.74252 -2.53998,-3 3,2.53999 c 2.81925,2.38696 3.60698,3.46001 2.53998,3.46001 -0.25301,0 -1.60301,-1.35 -3,-3 z m -169.94509,-6 -4.59489,-5 5,4.59489 c 4.6539,4.27682 5.61306,5.40511 4.5949,5.40511 -0.22282,0 -2.47282,-2.25 -5.00001,-5 z m 174.84371,-53.11111 c 0.064,-1.55326 0.37992,-1.8692 0.80554,-0.80556 0.38516,0.9625 0.3378,2.11251 -0.1052,2.55556 -0.44306,0.44306 -0.75818,-0.34445 -0.70029,-1.75 z m -26.66667,-6.66666 c 0.064,-1.55327 0.37992,-1.8692 0.80555,-0.80556 0.38516,0.96249 0.3378,2.1125 -0.1052,2.55556 -0.44307,0.44305 -0.75819,-0.34446 -0.7003,-1.75 z m -80,-10.66667 c 0.064,-1.55327 0.37992,-1.8692 0.80555,-0.80556 0.38516,0.96249 0.3378,2.11251 -0.1052,2.55556 -0.44307,0.44305 -0.75819,-0.34445 -0.70029,-1.75 z m 77.33333,-4 c 0.064,-1.55327 0.37992,-1.8692 0.80555,-0.80556 0.38516,0.96249 0.3378,2.11251 -0.1052,2.55556 -0.44307,0.44305 -0.75819,-0.34445 -0.70029,-1.75 z m 25.33334,0 c 0.064,-1.55327 0.37992,-1.8692 0.80554,-0.80556 0.38516,0.96249 0.3378,2.11251 -0.1052,2.55556 -0.44306,0.44305 -0.75818,-0.34445 -0.70029,-1.75 z m -101.33333,-2.66667 c 0.064,-1.55326 0.37992,-1.8692 0.80554,-0.80556 0.38516,0.9625 0.3378,2.11251 -0.1052,2.55556 -0.44306,0.44306 -0.75818,-0.34445 -0.70029,-1.75 z m 1.33333,-6.66666 c 0.064,-1.55327 0.37992,-1.8692 0.80555,-0.80556 0.38516,0.96249 0.3378,2.1125 -0.1052,2.55556 -0.44307,0.44305 -0.75819,-0.34446 -0.7003,-1.75 z m 97.33333,-5.33334 c 0.064,-1.55326 0.37992,-1.8692 0.80555,-0.80556 0.38516,0.9625 0.3378,2.11251 -0.1052,2.55556 -0.44307,0.44306 -0.75819,-0.34445 -0.7003,-1.75 z m -96,-1.33333 c 0.064,-1.55327 0.37992,-1.8692 0.80555,-0.80556 0.38516,0.96249 0.3378,2.11251 -0.1052,2.55556 -0.44307,0.44305 -0.75819,-0.34445 -0.70029,-1.75 z m 1.33334,-6.66667 c 0.064,-1.55326 0.37992,-1.86919 0.80554,-0.80555 0.38516,0.96249 0.3378,2.1125 -0.1052,2.55555 -0.44306,0.44306 -0.75818,-0.34445 -0.70029,-1.75 z m 67.99999,0 c 0.064,-1.55326 0.37992,-1.86919 0.80555,-0.80555 0.38516,0.96249 0.3378,2.1125 -0.1052,2.55555 -0.44307,0.44306 -0.75819,-0.34445 -0.70029,-1.75 z m 25.33334,0 c 0.064,-1.55326 0.37992,-1.86919 0.80554,-0.80555 0.38516,0.96249 0.3378,2.1125 -0.1052,2.55555 -0.44306,0.44306 -0.75818,-0.34445 -0.70029,-1.75 z m -2.66667,-14.66666 c 0.064,-1.55327 0.37992,-1.8692 0.80555,-0.80556 0.38516,0.96249 0.3378,2.11251 -0.1052,2.55556 -0.44307,0.44305 -0.75819,-0.34445 -0.7003,-1.75 z m -110.66666,-12 c 0.064,-1.55327 0.37992,-1.8692 0.80554,-0.80556 0.38516,0.96249 0.3378,2.11251 -0.1052,2.55556 -0.44306,0.44305 -0.75818,-0.34445 -0.70029,-1.75 z M 77.438593,337.88888 c 0.06397,-1.55326 0.379922,-1.8692 0.805556,-0.80556 0.385162,0.9625 0.337792,2.1125 -0.105266,2.55556 -0.443056,0.44306 -0.758188,-0.34445 -0.700294,-1.75 z m -1.333333,-6.66666 c 0.06397,-1.55327 0.379921,-1.8692 0.805556,-0.80556 0.385161,0.96249 0.337792,2.11249 -0.105267,2.55556 -0.443056,0.44305 -0.758188,-0.34446 -0.700293,-1.75 z m 327.99999,-9.33334 c 0.064,-1.55326 0.37992,-1.8692 0.80555,-0.80556 0.38516,0.9625 0.3378,2.1125 -0.1052,2.55556 -0.44305,0.44306 -0.75819,-0.34445 -0.70029,-1.75 z m -22.66666,-13.33333 c 0.064,-1.55327 0.37992,-1.8692 0.80554,-0.80556 0.38516,0.96249 0.3378,2.11249 -0.1052,2.55556 -0.44305,0.44305 -0.75818,-0.34445 -0.70029,-1.75 z m 25.33333,-1.33333 c 0.064,-1.55327 0.37992,-1.8692 0.80555,-0.80556 0.38516,0.96249 0.3378,2.11249 -0.1052,2.55556 -0.44306,0.44305 -0.75819,-0.34446 -0.7003,-1.75 z m 1.33333,-8 c 0.064,-1.55327 0.37992,-1.8692 0.80555,-0.80556 0.38516,0.96249 0.3378,2.11249 -0.1052,2.55556 -0.44305,0.44305 -0.75819,-0.34446 -0.70029,-1.75 z m -162.23194,-6.22223 -2.53998,-3 3,2.53999 c 2.81925,2.38696 3.60698,3.46001 2.53998,3.46001 -0.25301,0 -1.60301,-1.35 -3,-3 z m 138.23194,0.88889 c 0.064,-1.55326 0.37992,-1.8692 0.80555,-0.80556 0.38516,0.9625 0.3378,2.1125 -0.1052,2.55556 -0.44305,0.44306 -0.75819,-0.34445 -0.70029,-1.75 z m -150.77192,0.27436 c 0,-0.27686 1.05,-1.32686 2.33333,-2.33333 2.11475,-1.65849 2.16191,-1.61133 0.50341,0.50341 -1.74182,2.221 -2.83674,2.92731 -2.83674,1.82992 z m 176.10526,-2.94102 c 0.064,-1.55327 0.37992,-1.8692 0.80554,-0.80556 0.38516,0.96249 0.3378,2.11249 -0.1052,2.55556 -0.44305,0.44305 -0.75818,-0.34446 -0.70029,-1.75 z M 93.438593,288.55555 c 0.06397,-1.55327 0.379921,-1.8692 0.805556,-0.80556 0.385161,0.96249 0.337792,2.11249 -0.105267,2.55556 -0.443056,0.44305 -0.758188,-0.34445 -0.700293,-1.75 z m 146.311397,1.20029 c 0.9625,-0.38516 2.1125,-0.3378 2.55556,0.1052 0.44306,0.44306 -0.34445,0.75819 -1.75,0.7003 -1.55326,-0.064 -1.8692,-0.37992 -0.80556,-0.80555 z m 145.6886,-3.86696 c 0.064,-1.55326 0.37992,-1.8692 0.80554,-0.80556 0.38516,0.9625 0.3378,2.1125 -0.1052,2.55556 -0.44305,0.44306 -0.75818,-0.34445 -0.70029,-1.75 z m 25.33333,-4 c 0.064,-1.55326 0.37992,-1.8692 0.80555,-0.80556 0.38516,0.9625 0.3378,2.1125 -0.1052,2.55556 -0.44306,0.44306 -0.75819,-0.34445 -0.7003,-1.75 z M 92.10526,280.55555 c 0.06397,-1.55327 0.379921,-1.8692 0.805556,-0.80556 0.385161,0.96249 0.337792,2.11249 -0.105267,2.55556 -0.443056,0.44305 -0.758188,-0.34445 -0.700293,-1.75 z m 170.48962,-5.55556 -4.59489,-5 5,4.5949 c 4.65389,4.27681 5.61305,5.4051 4.59489,5.4051 -0.22281,0 -2.47281,-2.25 -5,-5 z m 124.17704,2.88889 c 0.064,-1.55326 0.37992,-1.86919 0.80555,-0.80556 0.38516,0.9625 0.3378,2.1125 -0.1052,2.55556 -0.44306,0.44306 -0.75819,-0.34445 -0.7003,-1.75 z M 66.771927,276.55555 c 0.06397,-1.55326 0.379921,-1.8692 0.805556,-0.80556 0.385161,0.96249 0.337792,2.11249 -0.105267,2.55556 -0.443056,0.44305 -0.758188,-0.34445 -0.700293,-1.75 z m 151.894733,-2.55556 c 1.72233,-1.83333 3.43151,-3.33333 3.79817,-3.33333 0.36667,0 -0.7425,1.5 -2.46484,3.33333 -1.72233,1.83334 -3.4315,3.33333 -3.79817,3.33333 -0.36667,0 0.74251,-1.49999 2.46484,-3.33333 z m 193.43859,-0.11106 c 0.064,-1.55327 0.37992,-1.8692 0.80555,-0.80556 0.38516,0.96249 0.3378,2.11249 -0.1052,2.55556 -0.44305,0.44305 -0.75819,-0.34446 -0.70029,-1.75 z M 90.771926,272.55559 c 0.06397,-1.55326 0.379922,-1.8692 0.805556,-0.80556 0.385162,0.9625 0.337792,2.1125 -0.105266,2.55556 -0.443056,0.44306 -0.758188,-0.34445 -0.700294,-1.75 z m 297.333324,-2.66666 c 0.064,-1.55327 0.37992,-1.8692 0.80555,-0.80556 0.38516,0.96249 0.3378,2.11249 -0.1052,2.55556 -0.44305,0.44305 -0.75819,-0.34446 -0.70029,-1.75 z M 65.438594,267.22226 c 0.06397,-1.55327 0.379921,-1.8692 0.805556,-0.80556 0.385161,0.96249 0.337792,2.11249 -0.105267,2.55556 -0.443056,0.44305 -0.758188,-0.34445 -0.700293,-1.75 z m 347.999996,-2.66667 c 0.064,-1.55326 0.37992,-1.8692 0.80554,-0.80556 0.38516,0.9625 0.3378,2.1125 -0.1052,2.55556 -0.44305,0.44306 -0.75818,-0.34445 -0.70029,-1.75 z M 89.438593,263.22226 c 0.06397,-1.55327 0.379921,-1.8692 0.805556,-0.80556 0.385161,0.96249 0.337792,2.11249 -0.105267,2.55556 -0.443056,0.44305 -0.758188,-0.34445 -0.700293,-1.75 z m 148.253437,1.18712 c 1.2973,-0.33805 3.0973,-0.31583 4,0.0495 0.90271,0.36524 -0.1587,0.64182 -2.3587,0.61465 -2.2,-0.0272 -2.93859,-0.326 -1.6413,-0.66405 z m 151.74656,-3.85379 c 0.064,-1.55326 0.37992,-1.8692 0.80554,-0.80556 0.38516,0.9625 0.3378,2.1125 -0.1052,2.55556 -0.44305,0.44306 -0.75818,-0.34445 -0.70029,-1.75 z M 64.210525,257.33333 c 0,-1.83334 0.30263,-2.58334 0.672514,-1.66667 0.369883,0.91667 0.369883,2.41667 0,3.33333 -0.369884,0.91667 -0.672514,0.16667 -0.672514,-1.66666 z m 23.894735,-3.44444 c 0.06397,-1.55327 0.379921,-1.8692 0.805556,-0.80556 0.385161,0.96249 0.337792,2.11249 -0.105267,2.55556 -0.443056,0.44305 -0.758188,-0.34446 -0.700293,-1.75 z m 326.66666,0 c 0.064,-1.55327 0.37992,-1.8692 0.80555,-0.80556 0.38516,0.96249 0.3378,2.11249 -0.1052,2.55556 -0.44306,0.44305 -0.75819,-0.34446 -0.7003,-1.75 z m -24,-2.66667 c 0.064,-1.55327 0.37992,-1.8692 0.80555,-0.80556 0.38516,0.96249 0.3378,2.11249 -0.1052,2.55556 -0.44306,0.44305 -0.75819,-0.34445 -0.7003,-1.75 z m -327.999993,-4 c 0.06397,-1.55327 0.379922,-1.8692 0.805556,-0.80556 0.385162,0.96249 0.337792,2.11249 -0.105266,2.55556 -0.443056,0.44305 -0.758188,-0.34445 -0.700294,-1.75 z m 23.999999,-2.66667 c 0.06397,-1.55326 0.379922,-1.8692 0.805556,-0.80556 0.385162,0.9625 0.337792,2.1125 -0.105266,2.55556 -0.443056,0.44306 -0.758188,-0.34445 -0.700294,-1.75 z m 329.438584,-0.55556 c 0,-1.83333 0.30264,-2.58333 0.67252,-1.66666 0.36988,0.91666 0.36988,2.41666 0,3.33333 -0.36988,0.91667 -0.67252,0.16667 -0.67252,-1.66667 z m -24,-2.66666 c 0,-1.83334 0.30264,-2.58334 0.67252,-1.66667 0.36988,0.91667 0.36988,2.41667 0,3.33333 -0.36988,0.91667 -0.67252,0.16667 -0.67252,-1.66666 z M 61.543858,235.99999 c 0,-1.83333 0.302631,-2.58333 0.672515,-1.66666 0.369882,0.91666 0.369882,2.41666 0,3.33333 -0.369884,0.91667 -0.672515,0.16667 -0.672515,-1.66667 z m 23.999999,-2.66666 c 0,-1.83334 0.302631,-2.58334 0.672515,-1.66667 0.369882,0.91667 0.369882,2.41667 0,3.33333 -0.369884,0.91667 -0.672515,0.16667 -0.672515,-1.66666 z m 331.894733,-0.77778 c 0.064,-1.55326 0.37992,-1.8692 0.80554,-0.80556 0.38516,0.9625 0.3378,2.1125 -0.1052,2.55556 -0.44305,0.44306 -0.75818,-0.34445 -0.70029,-1.75 z m -24,-2.66666 c 0.064,-1.55327 0.37992,-1.8692 0.80554,-0.80556 0.38516,0.96249 0.3378,2.11249 -0.1052,2.55556 -0.44305,0.44305 -0.75818,-0.34446 -0.70029,-1.75 z m -333.228065,-5.8889 c 0,-1.83333 0.30263,-2.58333 0.672514,-1.66666 0.369883,0.91666 0.369883,2.41666 0,3.33333 -0.369884,0.91667 -0.672514,0.16667 -0.672514,-1.66667 z m 23.999999,-2.66666 c 0,-1.83334 0.30263,-2.58334 0.672514,-1.66667 0.369883,0.91667 0.369883,2.41667 0,3.33333 -0.369884,0.91667 -0.672514,0.16667 -0.672514,-1.66666 z m 334.666646,-1.33334 c 0,-1.83333 0.30264,-2.58333 0.67252,-1.66666 0.36988,0.91666 0.36988,2.41666 0,3.33333 -0.36988,0.91667 -0.67252,0.16667 -0.67252,-1.66667 z m -23.95058,-2 c 0.0272,-2.2 0.326,-2.93858 0.66405,-1.64129 0.33805,1.29729 0.31583,3.09729 -0.0495,4 -0.36524,0.90271 -0.64182,-0.15871 -0.61465,-2.35871 z M 58.877191,210.66666 c 0,-1.83333 0.302631,-2.58333 0.672515,-1.66667 0.369883,0.91667 0.369883,2.41667 0,3.33334 -0.369884,0.91666 -0.672515,0.16666 -0.672515,-1.66667 z m 24.049405,-2 c 0.02717,-2.2 0.325997,-2.93859 0.664056,-1.64129 0.338057,1.29729 0.315825,3.09729 -0.0494,4 -0.365236,0.9027 -0.641829,-0.15871 -0.614656,-2.35871 z m 337.333324,-1.33333 c 0.0272,-2.2 0.326,-2.93859 0.66405,-1.6413 0.33806,1.2973 0.31583,3.0973 -0.0495,4 -0.36524,0.90271 -0.64183,-0.1587 -0.61466,-2.3587 z m -24,-4 c 0.0272,-2.2 0.326,-2.93859 0.66405,-1.6413 0.33806,1.2973 0.31583,3.0973 -0.0495,4 -0.36524,0.90271 -0.64183,-0.1587 -0.61466,-2.3587 z M 57.593263,196.66666 c 0.02717,-2.2 0.325998,-2.93859 0.664056,-1.64129 0.338058,1.29729 0.315826,3.09729 -0.0494,4 -0.365236,0.9027 -0.641829,-0.15871 -0.614656,-2.35871 z m 24.049405,-4.66667 c 0,-2.56666 0.274393,-3.61666 0.609764,-2.33333 0.335369,1.28333 0.335369,3.38333 0,4.66667 -0.335371,1.28333 -0.609764,0.23333 -0.609764,-2.33334 z m 339.999982,0 c 0,-2.56666 0.2744,-3.61666 0.60978,-2.33333 0.33536,1.28333 0.33536,3.38333 0,4.66667 -0.33538,1.28333 -0.60978,0.23333 -0.60978,-2.33334 z m -23.94618,-6.66666 c 0,-3.3 0.26002,-4.65 0.57782,-3 0.31782,1.65 0.31782,4.35 0,6 -0.3178,1.65 -0.57782,0.3 -0.57782,-3 z M 56.36315,178.66666 c 0,-3.3 0.260021,-4.65 0.577825,-3 0.317804,1.65 0.317804,4.35 0,6 -0.317804,1.65 -0.577825,0.3 -0.577825,-3 z m 366.66665,-6.66667 c 0,-3.3 0.26003,-4.65 0.57783,-3 0.31781,1.65 0.31781,4.35 0,6 -0.3178,1.65 -0.57783,0.3 -0.57783,-3 z M 80.498753,158 c 0.0031,-8.06667 0.222615,-11.19476 0.488015,-6.95132 0.2654,4.24344 0.262939,10.84344 -0.0055,14.66666 -0.26841,3.82323 -0.485556,0.35132 -0.482548,-7.71534 z M 423.00289,139.33333 c 0.0148,-2.93333 0.28786,-3.97633 0.60678,-2.31779 0.31892,1.65855 0.30681,4.05855 -0.0269,5.33334 -0.33372,1.27478 -0.59466,-0.0823 -0.57986,-3.01555 z m -25.40964,-4 c 0.0272,-2.2 0.326,-2.93858 0.66406,-1.64129 0.33805,1.29729 0.31582,3.09729 -0.0495,4 -0.36524,0.9027 -0.64183,-0.15871 -0.61465,-2.35871 z M 56.25993,134 c 0.02717,-2.2 0.325997,-2.93859 0.664056,-1.64129 0.338057,1.29729 0.315825,3.09729 -0.0494,3.99999 C 56.50935,137.26141 56.232757,136.2 56.25993,134 Z m 25.283927,-3.33334 c 0,-1.83333 0.302631,-2.58333 0.672515,-1.66666 0.369883,0.91666 0.369883,2.41666 0,3.33333 C 81.846488,133.25 81.543857,132.5 81.543857,130.66666 Z M 116,128.82992 c 0,-0.27687 1.05,-1.32687 2.33333,-2.33333 2.11474,-1.6585 2.1619,-1.61134 0.50341,0.50341 C 117.09491,129.22099 116,129.9273 116,128.82992 Z m 305.43859,-4.27437 c 0.064,-1.55326 0.37992,-1.8692 0.80554,-0.80555 0.38516,0.9625 0.3378,2.1125 -0.1052,2.55555 -0.44305,0.44306 -0.75818,-0.34444 -0.70029,-1.75 z m -25.33334,-1.33333 c 0.064,-1.55326 0.37992,-1.8692 0.80555,-0.80556 0.38516,0.9625 0.3378,2.1125 -0.1052,2.55556 -0.44305,0.44305 -0.75819,-0.34445 -0.70029,-1.75 z M 57.438594,120.55555 c 0.06397,-1.55325 0.379921,-1.8692 0.805556,-0.80555 0.385161,0.9625 0.337792,2.1125 -0.105267,2.55555 -0.443056,0.44306 -0.758188,-0.34444 -0.700293,-1.75 z m 25.333333,0 c 0.06397,-1.55325 0.379921,-1.8692 0.805556,-0.80555 0.385161,0.9625 0.337792,2.1125 -0.105267,2.55555 -0.443056,0.44306 -0.758188,-0.34444 -0.700293,-1.75 z m 13.564314,-5.22222 c 0.0148,-2.93333 0.287846,-3.97634 0.60677,-2.31779 0.318924,1.65855 0.306816,4.05855 -0.02691,5.33334 -0.333724,1.27478 -0.594663,-0.0822 -0.579864,-3.01555 z m 298.435679,-0.11111 c 0.064,-1.55325 0.37992,-1.8692 0.80555,-0.80555 0.38516,0.9625 0.3378,2.1125 -0.1052,2.55555 -0.44306,0.44306 -0.75819,-0.34444 -0.7003,-1.75 z m 25.33333,0 c 0.064,-1.55325 0.37992,-1.8692 0.80555,-0.80555 0.38516,0.9625 0.3378,2.1125 -0.1052,2.55555 -0.44305,0.44306 -0.75819,-0.34444 -0.70029,-1.75 z M 58.771927,112.55556 c 0.06397,-1.55326 0.379922,-1.8692 0.805556,-0.80556 0.385162,0.9625 0.337792,2.1125 -0.105266,2.55556 -0.443056,0.44305 -0.758188,-0.34445 -0.700294,-1.75 z m 38.666666,-9.33334 c 0.06397,-1.55325 0.379921,-1.8692 0.805556,-0.80555 0.385161,0.9625 0.337792,2.1125 -0.105267,2.55555 -0.443056,0.44306 -0.758188,-0.34444 -0.700293,-1.75 z M 133.33333,84.829924 c 0,-0.276875 1.05,-1.326875 2.33333,-2.333333 2.11475,-1.658495 2.16191,-1.611335 0.50342,0.503406 -1.74183,2.220998 -2.83675,2.927306 -2.83675,1.829927 z M 140,78.163258 c 0,-0.276875 1.05,-1.326875 2.33333,-2.333334 2.11475,-1.658494 2.16191,-1.611334 0.50341,0.503407 C 141.09492,78.554328 140,79.260636 140,78.163258 Z m 23.74999,-12.407412 c 0.9625,-0.385161 2.1125,-0.337792 2.55556,0.105267 0.44306,0.443056 -0.34445,0.758188 -1.75,0.700293 -1.55326,-0.06397 -1.8692,-0.379921 -0.80556,-0.805556 z m 12,-1.333333 c 0.9625,-0.385162 2.1125,-0.337792 2.55556,0.105266 0.44306,0.443056 -0.34445,0.758188 -1.75,0.700294 -1.55326,-0.06397 -1.8692,-0.379922 -0.80556,-0.805556 z m -58.41666,-0.925922 c 0,-0.276874 1.05,-1.326874 2.33333,-2.333333 2.11474,-1.658494 2.1619,-1.611334 0.50341,0.503407 -1.74183,2.220997 -2.83674,2.927305 -2.83674,1.829926 z m 69.64266,-11.496593 c 0,-2.566666 0.2744,-3.616666 0.60978,-2.333333 0.33536,1.283333 0.33536,3.383333 0,4.666667 -0.33538,1.283333 -0.60978,0.233333 -0.60978,-2.333334 z m -77.64266,0.829927 c 0,-0.276875 1.05,-1.326875 2.33333,-2.333333 2.11474,-1.658495 2.1619,-1.611335 0.50341,0.503406 -1.74183,2.220998 -2.83674,2.927306 -2.83674,1.829927 z m 122.41666,-3.074079 c 0.9625,-0.385161 2.1125,-0.337791 2.55556,0.105267 0.44306,0.443056 -0.34445,0.758188 -1.75,0.700293 -1.55326,-0.06397 -1.8692,-0.379921 -0.80556,-0.805556 z m 13.25,0.02777 c 0.91667,-0.369883 2.41667,-0.369883 3.33333,0 0.91667,0.369884 0.16667,0.672514 -1.66666,0.672514 -1.83333,0 -2.58333,-0.30263 -1.66667,-0.672514 z m 116.33333,-5.116955 c -3.23871,-3.3 -5.58856,-6 -5.22189,-6 0.36666,0 3.31652,2.7 6.55522,6 3.23871,3.3 5.58856,6 5.2219,6 -0.36667,0 -3.31652,-2.7 -6.55523,-6 z M 168.33333,39.044993 c 2.01666,-0.3055 5.31666,-0.3055 7.33333,0 2.01667,0.305499 0.36667,0.555454 -3.66667,0.555454 -4.03333,0 -5.68333,-0.249955 -3.66666,-0.555454 z M 91.999997,34.163259 c 0,-0.276875 1.05,-1.326875 2.333333,-2.333333 2.114741,-1.658495 2.161901,-1.611335 0.503407,0.503406 -1.741825,2.220998 -2.83674,2.927306 -2.83674,1.829927 z m 287.270593,-7.829926 -5.2706,-5.666667 5.66666,5.270597 c 5.26995,4.901603 6.27938,6.062736 5.2706,6.062736 -0.21784,0 -2.76784,-2.55 -5.66666,-5.666666 z M 150.41666,25.755847 c 0.96249,-0.385161 2.11249,-0.337792 2.55556,0.105267 0.44305,0.443056 -0.34445,0.758188 -1.75,0.700293 -1.55327,-0.06397 -1.8692,-0.379921 -0.80556,-0.805556 z m 16,0 c 0.96249,-0.385161 2.11249,-0.337792 2.55556,0.105267 0.44305,0.443056 -0.34445,0.758188 -1.75,0.700293 -1.55327,-0.06397 -1.8692,-0.379921 -0.80556,-0.805556 z m 145.33333,0 c 0.96249,-0.385161 2.11249,-0.337792 2.55556,0.105267 0.44305,0.443056 -0.34445,0.758188 -1.75,0.700293 -1.55327,-0.06397 -1.8692,-0.379921 -0.80556,-0.805556 z M 104.66666,21.333333 c 1.32732,-1.466667 2.7133,-2.666667 3.07997,-2.666667 0.36667,0 -0.41932,1.2 -1.74663,2.666667 -1.32732,1.466666 -2.7133,2.666666 -3.07997,2.666666 -0.36667,0 0.41932,-1.2 1.74663,-2.666666 z M 149.69203,0.40934569 c 1.2973,-0.33805787 3.0973,-0.31582548 4,0.0494053 0.90271,0.36523079 -0.1587,0.64182361 -2.3587,0.61465071 -2.2,-0.027173 -2.93859,-0.32599815 -1.6413,-0.66405601 z m 16.72463,0.0131693 c 0.96249,-0.3851608 2.11249,-0.33779238 2.55556,0.10526319 0.44305,0.44305555 -0.34445,0.75818712 -1.75,0.70029242 -1.55327,-0.063978 -1.8692,-0.37992043 -0.80556,-0.80555561 z m 143.91666,0.0277774 c 0.91667,-0.36988303 2.41667,-0.36988303 3.33334,0 0.91666,0.36988303 0.16666,0.67251461 -1.66667,0.67251461 -1.83333,0 -2.58333,-0.30263158 -1.66667,-0.67251461 z m 16,0 c 0.91667,-0.36988303 2.41667,-0.36988303 3.33334,0 0.91666,0.36988303 0.16666,0.67251461 -1.66667,0.67251461 -1.83333,0 -2.58333,-0.30263158 -1.66667,-0.67251461 z"
         style="fill-opacity:1;stroke-width:1.33333" />
      <path
         id="path234"
         d="m 569.70243,770.72686 c -2.36365,-1.4543 -4.61797,-4.01278 -5.0096,-5.68552 -0.39164,-1.67275 -0.85773,-11.74136 -1.03578,-22.3747 -0.20031,-11.96249 -0.83207,-19.25241 -1.65707,-19.12109 -0.73333,0.11667 -14.23333,2.35407 -30,4.97187 -82.80404,13.74826 -150.23167,19.38354 -199.9043,16.70706 -25.97953,-1.39984 -41.35317,-3.8452 -57.96173,-9.21948 -10.0336,-3.24672 -24.9368,-5.5764 -86.0972,-13.45877 l -73.96323,-9.5324 -47.370093,-25.06329 C 40.649875,674.16573 16.696321,660.62006 13.473308,657.84905 5.2829801,650.80737 0.80940053,640.63847 0.79524876,629.03054 0.78538751,620.9419 1.4171481,618.81139 7.2287736,607.33464 17.411405,587.22605 29.208582,578.66665 46.741032,578.66665 c 8.665913,0 12.966123,1.7402 43.269528,17.51016 14.60936,7.60275 27.0466,14.02752 27.63831,14.27729 0.5917,0.24976 -1.18723,-3.88129 -3.95319,-9.1801 -4.89842,-9.38406 -5.02877,-10.00178 -5.01966,-23.78746 0.008,-12.72774 0.36569,-14.83006 3.54734,-20.87342 4.30296,-8.17322 13.80143,-17.18092 22.20908,-21.06159 8.69189,-4.01184 26.21925,-3.98515 35.13511,0.0535 11.8062,5.34793 17.38526,12.1965 38.14524,46.82525 l 19.54583,32.60345 14.88451,-0.73305 c 14.6797,-0.72298 15.00711,-0.8105 23.79421,-6.36004 4.90033,-3.09484 8.4191,-6.0382 7.8195,-6.5408 -0.5996,-0.50252 -8.29018,-5.64007 -17.09018,-11.41667 -18.40427,-12.08118 -36.51255,-29.33325 -42.66723,-40.64982 -3.49188,-6.42048 -3.98904,-8.67339 -3.99389,-18.09855 -0.005,-9.66479 0.40787,-11.43451 4.03887,-17.31291 3.09872,-5.01668 5.88301,-7.48777 11.90758,-10.56812 7.42706,-3.79744 8.68178,-4.01182 22.62225,-3.86533 35.00427,0.36784 86.06752,18.02019 162.27684,56.09836 l 35.51776,17.74655 h 58.81557 58.81557 v -20.72727 c 0,-20.07275 0.10053,-20.82784 3.18436,-23.91164 1.7514,-1.7514 5.2014,-3.55665 7.66667,-4.01169 2.46526,-0.45503 28.31932,-0.64479 57.45345,-0.4217 l 52.97113,0.40563 3.69553,3.69697 3.69552,3.69696 v 116.60607 116.60606 l -3.69584,3.69696 -3.69582,3.69697 -55.63751,0.35219 c -53.47746,0.33852 -55.80433,0.24953 -59.93504,-2.29197 z m 97.63088,-122.06021 v -98.66667 l -39,-0.35346 -39,-0.35348 v 99.37361 99.37361 l 39,-0.35348 39,-0.35347 z M 414.22847,717.9941 c 39.15998,-3.12889 92.90378,-10.36663 134.39591,-18.09923 l 15.40813,-2.87152 -0.3496,-48.84501 -0.3496,-48.84502 -63.33333,-0.66667 c -62.00049,-0.65264 -63.43154,-0.72733 -67.99999,-3.54949 -2.56667,-1.58556 -17.32055,-9.20146 -32.78642,-16.92423 -63.17626,-31.54663 -119.15929,-51.99261 -147.31383,-53.80161 -13.937,-0.89548 -17.23308,0.40298 -17.23308,6.78886 0,5.45668 4.79103,12.2978 15.43961,22.04626 9.83987,9.00809 32.20944,23.87826 47.45821,31.54782 6.36047,3.19908 12.51047,7.1671 13.66667,8.81779 2.54388,3.63191 2.67753,11.53833 0.24912,14.73716 -0.97253,1.28106 -11.78668,8.57394 -24.03144,16.20641 l -22.26319,13.87719 -14.92616,0.79981 c -8.20938,0.43991 -41.02615,0.94701 -72.92615,1.12692 l -58,0.32711 -34.666666,-18.29916 C 61.576335,610.17902 48.587117,604.05693 45.768965,604.03416 c -5.858582,-0.0473 -10.899514,4.63029 -16.228086,15.05846 -4.980844,9.74767 -4.932258,14.55033 0.194951,19.27081 1.61196,1.4841 22.983976,13.33954 47.493371,26.34543 l 44.562539,23.64707 75.43679,9.86361 c 60.87613,7.95975 76.98567,10.48325 83.46137,13.07395 7.12198,2.84924 24.71025,6.46516 37.97676,7.80753 13.50886,1.36689 73.26321,0.67473 95.56181,-1.10692 z m -229.98941,-103.15073 12.90573,-0.84339 -15.48926,-25.66884 c -14.18376,-23.50536 -15.98114,-25.90696 -21.32496,-28.49385 -13.04175,-6.3134 -27.51006,2.81628 -27.51006,17.35919 0,6.46768 3.51697,13.86768 16.06566,33.8035 l 3.14728,5 9.64993,-0.15661 c 5.30748,-0.0861 15.45752,-0.53614 22.55568,-1 z M 150.42629,495.22721 C 132.82482,489.81065 114.6648,462.66301 99.65817,419.33332 77.470496,355.2693 57.083401,230.65199 56.795595,157.33333 56.677974,127.36949 57.535795,119.42989 63.422249,95.999997 77.978987,38.059707 114.91382,1.1627275 158.66666,0.85319303 c 14.01431,-0.0991457 21.3992,2.01068077 46.17652,13.19239597 10.36375,4.67704 21.64909,9.210245 25.07853,10.073789 9.92783,2.499855 20.2982,0.854744 34.30141,-5.441423 C 305.18688,0.25969507 312.79995,-1.6145024 332.70135,1.8198646 377.46037,9.5438904 409.79552,52.173816 420.82489,118 c 5.37655,32.08857 1.11406,96.62439 -11.58049,175.33332 -18.38493,113.99055 -45.02563,184.24341 -75.8258,199.95649 -16.34813,8.3402 -28.60476,3.04516 -37.28384,-16.10716 -5.48902,-12.11276 -9.50929,-28.82578 -17.4435,-72.516 -10.91766,-60.11881 -16.64407,-83.28654 -24.77676,-100.24106 -4.45828,-9.29432 -9.64001,-15.09227 -13.48825,-15.09227 -9.3776,0 -19.65771,31.21498 -35.15367,106.74211 -9.76587,47.59874 -13.60561,63.01849 -18.8068,75.5247 -5.38681,12.95256 -10.78273,20.06775 -17.54805,23.13926 -6.58243,2.98847 -10.0667,3.08039 -18.49144,0.48782 z m 13.17192,-31.59541 c 4.57565,-11.38236 8.91192,-29.10783 17.84978,-72.96515 13.252,-65.02629 20.8333,-91.05049 31.26804,-107.33333 8.1055,-12.64815 16.5543,-18.02438 28.24114,-17.97071 16.11941,0.074 29.55525,13.85119 40.44087,41.46823 5.2357,13.28306 11.96923,42.37083 19.95199,86.18925 11.12283,61.05463 15.84972,78.9799 20.82704,78.9799 4.16501,0 14.36691,-12.29062 20.32532,-24.48668 C 370.60795,389.98496 398.66181,246.33899 398.65335,160 c -0.004,-38.19768 -4.65844,-61.767834 -17.24683,-87.333336 -14.98717,-30.43718 -36.88253,-47.333331 -61.33824,-47.333331 -9.08598,0 -16.6907,2.467869 -38.09617,12.362895 -20.36416,9.413665 -29.52905,12.058538 -41.97212,12.112628 -12.48778,0.05428 -20.76609,-2.375796 -44.66666,-13.111804 -24.86162,-11.167699 -27.10002,-11.797039 -39.42216,-11.083721 -34.286,1.984786 -63.58833,39.654591 -72.383694,93.053329 -3.251981,19.74355 -3.915691,38.59379 -2.276889,64.66667 7.310941,116.31503 41.763133,258.3159 68.695673,283.14144 3.39895,3.13304 7.165,5.50674 8.369,5.27487 1.24115,-0.23903 3.52879,-3.75424 5.28295,-8.11784 z M 104.476,129.39501 c -4.869585,-2.05111 -7.144218,-6.74273 -7.122962,-14.69169 0.104017,-38.898005 35.305292,-74.703321 73.443062,-74.703321 8.12295,0 9.74701,0.421906 12.59783,3.272726 5.30105,5.301048 4.15432,16.067817 -2.06588,19.396768 -1.43596,0.768502 -6.89363,1.935042 -12.12814,2.592312 -25.37298,3.185945 -43.57865,21.793319 -46.45985,47.485005 -0.90129,8.03675 -1.83217,10.95092 -4.27929,13.39648 -3.57159,3.56931 -9.79519,5.01642 -13.98477,3.25172 z"
         style="fill-opacity:1;stroke-width:1.33333" />
    </g>
  </g>
</svg>
