<?xml version="1.0" encoding="UTF-8" standalone="no"?>
<svg
   xmlns:dc="http://purl.org/dc/elements/1.1/"
   xmlns:cc="http://creativecommons.org/ns#"
   xmlns:rdf="http://www.w3.org/1999/02/22-rdf-syntax-ns#"
   xmlns:svg="http://www.w3.org/2000/svg"
   xmlns="http://www.w3.org/2000/svg"
   xmlns:sodipodi="http://sodipodi.sourceforge.net/DTD/sodipodi-0.dtd"
   xmlns:inkscape="http://www.inkscape.org/namespaces/inkscape"
   inkscape:version="1.0 (1.0+r73+1)"
   sodipodi:docname="intro-icon-1.svg"
   viewBox="0 0 742.63037 730.23822"
   height="730.23822"
   width="742.63037"
   id="svg160"
   version="1.1">
  <g
     transform="translate(732.77361,-12.47386)"
     id="g168"
     inkscape:label="Image"
     inkscape:groupmode="layer">
    <g
       transform="translate(-735.62953,5.5790786)"
       id="g280">
      <path
         id="path284"
         d="m 409.87333,731.66669 -2.53998,-3 3,2.53999 c 2.81925,2.38696 3.60698,3.46001 2.53998,3.46001 -0.25301,0 -1.60301,-1.35 -3,-3 z m 36.79335,-5.66667 c 1.72233,-1.83333 3.43151,-3.33333 3.79817,-3.33333 0.36667,0 -0.7425,1.5 -2.46484,3.33333 -1.72233,1.83334 -3.4315,3.33334 -3.79817,3.33334 -0.36667,0 0.74251,-1.5 2.46484,-3.33334 z m -175.41722,-17 -3.91612,-4.33333 4.33334,3.91612 c 4.03928,3.65037 4.9462,4.75055 3.91612,4.75055 -0.22947,0 -2.17947,-1.95 -4.33334,-4.33334 z M 60.000002,656.35833 c 91.926978,-0.92051 164.000648,-0.93148 164.000338,-0.0249 -1.9e-4,0.55 -44.85033,0.86023 -99.667,0.68939 -54.816671,-0.17088 -83.766672,-0.46987 -64.333338,-0.66445 z m 260.000008,-0.025 c 0,-0.55 15.3,-1 34,-1 18.7,0 34,0.45 34,1 0,0.55 -15.3,1 -34,1 -18.7,0 -34,-0.45 -34,-1 z m 211.09826,4.2e-4 c 27.00405,-0.20175 70.80406,-0.20164 97.33334,2.1e-4 26.52929,0.20187 4.43508,0.36693 -49.09826,0.36681 -53.53333,-1.2e-4 -75.23912,-0.16528 -48.23508,-0.36702 z m -122.99299,-7.77819 c 0.064,-1.55327 0.37992,-1.8692 0.80555,-0.80556 0.38516,0.96249 0.3378,2.11251 -0.1052,2.55556 -0.44306,0.44305 -0.75819,-0.34445 -0.7003,-1.75 z m -24,-8 c 0.064,-1.55327 0.37992,-1.8692 0.80555,-0.80556 0.38516,0.96249 0.3378,2.11251 -0.1052,2.55556 -0.44306,0.44305 -0.75819,-0.34445 -0.7003,-1.75 z m 21.33333,-6.66667 c 0.064,-1.55326 0.37992,-1.8692 0.80555,-0.80556 0.38516,0.9625 0.3378,2.11251 -0.1052,2.55556 -0.44305,0.44306 -0.75819,-0.34445 -0.70029,-1.75 z m -102.66667,-4 c 0.064,-1.55326 0.37992,-1.8692 0.80555,-0.80556 0.38516,0.9625 0.3378,2.11251 -0.1052,2.55556 -0.44307,0.44306 -0.75819,-0.34445 -0.70029,-1.75 z m 22.66667,0 c 0.064,-1.55326 0.37992,-1.8692 0.80555,-0.80556 0.38516,0.9625 0.3378,2.11251 -0.1052,2.55556 -0.44307,0.44306 -0.75819,-0.34445 -0.7003,-1.75 z m -21.33333,-6.66666 c 0.064,-1.55327 0.37992,-1.8692 0.80554,-0.80556 0.38516,0.96249 0.3378,2.1125 -0.1052,2.55556 -0.44306,0.44305 -0.75818,-0.34446 -0.70029,-1.75 z m 194.66667,-38.66667 c 0.064,-1.55327 0.37992,-1.8692 0.80555,-0.80556 0.38516,0.96249 0.3378,2.1125 -0.1052,2.55556 -0.44306,0.44305 -0.75819,-0.34446 -0.7003,-1.75 z m -270.66668,-1.33334 c 0.064,-1.55326 0.37992,-1.8692 0.80555,-0.80556 0.38516,0.9625 0.3378,2.11251 -0.1052,2.55556 -0.44307,0.44306 -0.75819,-0.34445 -0.70029,-1.75 z m -24,-8 c 0.064,-1.55326 0.37992,-1.8692 0.80555,-0.80556 0.38516,0.9625 0.3378,2.11251 -0.1052,2.55556 -0.44307,0.44306 -0.75819,-0.34445 -0.70029,-1.75 z m 297.33335,-5.33333 c 0.064,-1.55327 0.37992,-1.8692 0.80554,-0.80556 0.38516,0.96249 0.3378,2.11251 -0.1052,2.55556 -0.44305,0.44305 -0.75818,-0.34445 -0.70029,-1.75 z m -21.33334,-5.33333 c 0.064,-1.55327 0.37992,-1.8692 0.80555,-0.80556 0.38516,0.96249 0.3378,2.1125 -0.1052,2.55556 -0.44305,0.44305 -0.75819,-0.34446 -0.70029,-1.75 z m 22.66667,-2.66667 c 0.064,-1.55327 0.37992,-1.8692 0.80555,-0.80556 0.38516,0.96249 0.3378,2.11251 -0.1052,2.55556 -0.44306,0.44305 -0.75819,-0.34445 -0.7003,-1.75 z m -280.00001,-6.66667 c 0.064,-1.55326 0.37992,-1.8692 0.80555,-0.80556 0.38516,0.9625 0.3378,2.11251 -0.1052,2.55556 -0.44307,0.44306 -0.75819,-0.34445 -0.7003,-1.75 z m 281.33334,-1.33333 c 0.064,-1.55327 0.37992,-1.8692 0.80555,-0.80556 0.38516,0.96249 0.3378,2.11251 -0.1052,2.55556 -0.44305,0.44305 -0.75819,-0.34445 -0.70029,-1.75 z m -152.4386,-0.10527 c 0.91666,-0.36988 2.41666,-0.36988 3.33333,0 0.91667,0.36988 0.16667,0.67252 -1.66667,0.67252 -1.83333,0 -2.58333,-0.30264 -1.66666,-0.67252 z m -151.56141,-2.5614 c 0.064,-1.55326 0.37992,-1.8692 0.80555,-0.80556 0.38516,0.9625 0.3378,2.11251 -0.1052,2.55556 -0.44307,0.44306 -0.75819,-0.34445 -0.70029,-1.75 z m 282.66668,-1.33333 c 0.064,-1.55327 0.37992,-1.8692 0.80555,-0.80556 0.38516,0.96249 0.3378,2.11251 -0.1052,2.55556 -0.44306,0.44305 -0.75819,-0.34445 -0.7003,-1.75 z m -261.33334,-2.66667 c 0.064,-1.55326 0.37992,-1.8692 0.80554,-0.80556 0.38516,0.9625 0.3378,2.11251 -0.1052,2.55556 -0.44306,0.44306 -0.75818,-0.34445 -0.70029,-1.75 z m 284.00001,-1.33333 c 0.064,-1.55327 0.37992,-1.8692 0.80554,-0.80556 0.38516,0.96249 0.3378,2.11251 -0.1052,2.55556 -0.44305,0.44305 -0.75818,-0.34445 -0.70029,-1.75 z m -306.66668,-2.66667 c 0.064,-1.55326 0.37992,-1.8692 0.80555,-0.80556 0.38516,0.9625 0.3378,2.11251 -0.1052,2.55556 -0.44307,0.44306 -0.75819,-0.34445 -0.7003,-1.75 z m 131.89474,0.36056 c 0,-0.22946 1.95,-2.17946 4.33333,-4.33333 l 4.33333,-3.91612 -3.91612,4.33333 c -3.65037,4.03928 -4.75054,4.9462 -4.75054,3.91612 z m 153.4386,-1.69389 c 0.064,-1.55327 0.37992,-1.8692 0.80555,-0.80556 0.38516,0.96249 0.3378,2.11251 -0.1052,2.55556 -0.44305,0.44305 -0.75819,-0.34445 -0.70029,-1.75 z m -110.94202,-1.55556 c -1.65849,-2.11475 -1.61133,-2.16191 0.50342,-0.50341 2.221,1.74182 2.92731,2.83674 1.82992,2.83674 -0.27687,0 -1.32687,-1.05 -2.33334,-2.33333 z m -153.05799,-1.11111 c 0.064,-1.55326 0.37992,-1.8692 0.80555,-0.80556 0.38516,0.9625 0.3378,2.11251 -0.1052,2.55556 -0.44307,0.44306 -0.75819,-0.34445 -0.70029,-1.75 z m 286.66668,-2.66666 c 0.064,-1.55327 0.37992,-1.8692 0.80555,-0.80556 0.38516,0.96249 0.3378,2.1125 -0.1052,2.55556 -0.44306,0.44305 -0.75819,-0.34446 -0.7003,-1.75 z m -309.33334,-2.66667 c 0.064,-1.55327 0.37992,-1.8692 0.80554,-0.80556 0.38516,0.96249 0.3378,2.11251 -0.1052,2.55556 -0.44306,0.44305 -0.75818,-0.34445 -0.70029,-1.75 z m 288.00001,-1.33333 c 0.064,-1.55327 0.37992,-1.8692 0.80554,-0.80556 0.38516,0.96249 0.3378,2.1125 -0.1052,2.55556 -0.44305,0.44305 -0.75818,-0.34446 -0.70029,-1.75 z m -266.66668,-2.66667 c 0.064,-1.55327 0.37992,-1.8692 0.80555,-0.80556 0.38516,0.96249 0.3378,2.11251 -0.1052,2.55556 -0.44307,0.44305 -0.75819,-0.34445 -0.7003,-1.75 z m 289.33334,-2.66667 c 0.064,-1.55326 0.37992,-1.8692 0.80555,-0.80556 0.38516,0.9625 0.3378,2.11251 -0.1052,2.55556 -0.44305,0.44306 -0.75819,-0.34445 -0.70029,-1.75 z M 196.21053,524 c 0,-1.83334 0.30264,-2.58334 0.67252,-1.66667 0.36988,0.91667 0.36988,2.41667 0,3.33333 -0.36988,0.91667 -0.67252,0.16667 -0.67252,-1.66666 z m 290.66667,0 c 0,-1.83334 0.30264,-2.58334 0.67252,-1.66667 0.36988,0.91667 0.36988,2.41667 0,3.33333 -0.36988,0.91667 -0.67252,0.16667 -0.67252,-1.66666 z m -269.43859,-3.44444 c 0.064,-1.55327 0.37992,-1.8692 0.80554,-0.80556 0.38516,0.96249 0.3378,2.1125 -0.1052,2.55556 -0.44306,0.44305 -0.75818,-0.34446 -0.70029,-1.75 z m 292.00001,-4 c 0.064,-1.55327 0.37992,-1.8692 0.80554,-0.80556 0.38516,0.96249 0.3378,2.1125 -0.1052,2.55556 -0.44305,0.44305 -0.75818,-0.34446 -0.70029,-1.75 z m -314.56143,-3.22223 c 0,-1.83333 0.30264,-2.58333 0.67252,-1.66667 0.36988,0.91667 0.36988,2.41667 0,3.33334 -0.36988,0.91666 -0.67252,0.16666 -0.67252,-1.66667 z m 293.22809,0.55556 c 0.064,-1.55327 0.37992,-1.8692 0.80555,-0.80556 0.38516,0.96249 0.3378,2.11251 -0.1052,2.55556 -0.44305,0.44305 -0.75819,-0.34445 -0.70029,-1.75 z m -272.00001,-2.66667 c 0.064,-1.55326 0.37992,-1.8692 0.80555,-0.80556 0.38516,0.9625 0.3378,2.11251 -0.1052,2.55556 -0.44307,0.44306 -0.75819,-0.34445 -0.70029,-1.75 z m 294.66668,-5.33333 c 0.064,-1.55327 0.37992,-1.8692 0.80555,-0.80556 0.38516,0.96249 0.3378,2.11251 -0.1052,2.55556 -0.44306,0.44305 -0.75819,-0.34445 -0.7003,-1.75 z M 489.54387,504 c 0,-1.83334 0.30264,-2.58334 0.67252,-1.66667 0.36988,0.91667 0.36988,2.41667 0,3.33333 -0.36988,0.91667 -0.67252,0.16667 -0.67252,-1.66666 z m -296.00001,-1.33334 c 0,-1.83333 0.30264,-2.58333 0.67252,-1.66666 0.36988,0.91666 0.36988,2.41666 0,3.33333 -0.36988,0.91667 -0.67252,0.16667 -0.67252,-1.66667 z M 214.87719,500 c 0,-1.83334 0.30264,-2.58334 0.67252,-1.66667 0.36988,0.91667 0.36988,2.41667 0,3.33333 -0.36988,0.91667 -0.67252,0.16667 -0.67252,-1.66666 z m 297.33335,-5.33334 c 0,-1.83333 0.30264,-2.58333 0.67252,-1.66666 0.36988,0.91666 0.36988,2.41666 0,3.33333 -0.36988,0.91667 -0.67252,0.16667 -0.67252,-1.66667 z M 490.8772,492 c 0,-1.83334 0.30264,-2.58334 0.67252,-1.66667 0.36988,0.91667 0.36988,2.41667 0,3.33333 -0.36988,0.91667 -0.67252,0.16667 -0.67252,-1.66666 z m -277.33334,-4 c 0,-1.83334 0.30264,-2.58334 0.67252,-1.66667 0.36988,0.91667 0.36988,2.41667 0,3.33333 -0.36988,0.91667 -0.67252,0.16667 -0.67252,-1.66666 z m 278.71609,-10.00001 c 0.0272,-2.2 0.326,-2.93858 0.66405,-1.64129 0.33806,1.29729 0.31583,3.09729 -0.0495,4 -0.36524,0.90271 -0.64183,-0.1587 -0.61466,-2.35871 z m -279.95061,-4.66666 c 0,-2.56667 0.2744,-3.61667 0.60977,-2.33334 0.33536,1.28334 0.33536,3.38334 0,4.66667 -0.33537,1.28333 -0.60977,0.23333 -0.60977,-2.33333 z m -83.226,1.75585 c 0.9625,-0.38516 2.1125,-0.3378 2.55555,0.1052 0.44306,0.44305 -0.34444,0.75819 -1.75,0.70029 -1.55325,-0.064 -1.8692,-0.37992 -0.80555,-0.80554 z m 441.33334,0 c 0.9625,-0.38516 2.11251,-0.3378 2.55556,0.1052 0.44306,0.44305 -0.34445,0.75819 -1.75,0.70029 -1.55326,-0.064 -1.8692,-0.37992 -0.80556,-0.80554 z M 38.416668,473.75587 c 0.9625,-0.38516 2.1125,-0.3378 2.555556,0.1052 0.443055,0.44305 -0.344445,0.75818 -1.75,0.70029 -1.553257,-0.064 -1.8692,-0.37992 -0.805556,-0.80555 z m 82.666672,0 c 0.9625,-0.38516 2.1125,-0.3378 2.55555,0.1052 0.44306,0.44305 -0.34444,0.75818 -1.75,0.70029 -1.55325,-0.064 -1.8692,-0.37992 -0.80555,-0.80555 z m 457.33334,0 c 0.9625,-0.38516 2.11251,-0.3378 2.55556,0.1052 0.44306,0.44305 -0.34445,0.75818 -1.75,0.70029 -1.55326,-0.064 -1.8692,-0.37992 -0.80556,-0.80555 z M 47.750001,472.42253 c 0.962501,-0.38516 2.112501,-0.3378 2.555557,0.1052 0.443054,0.44306 -0.344446,0.75819 -1.75,0.7003 -1.553258,-0.064 -1.869201,-0.37992 -0.805557,-0.80555 z m 62.666669,0 c 0.9625,-0.38516 2.1125,-0.3378 2.55556,0.1052 0.44305,0.44306 -0.34445,0.75819 -1.75,0.7003 -1.55326,-0.064 -1.8692,-0.37992 -0.80556,-0.80555 z m 478.58335,0.0277 c 0.91667,-0.36988 2.41667,-0.36988 3.33333,0 0.91667,0.36988 0.16667,0.67252 -1.66666,0.67252 -1.83334,0 -2.58334,-0.30264 -1.66667,-0.67252 z m 62.75,-0.0277 c 0.96249,-0.38516 2.11251,-0.3378 2.55556,0.1052 0.44305,0.44306 -0.34445,0.75819 -1.75,0.7003 -1.55327,-0.064 -1.8692,-0.37992 -0.80556,-0.80555 z M 62.333335,471.05904 c 1.65,-0.31781 4.35,-0.31781 6,0 1.650001,0.3178 0.3,0.57783 -3,0.57783 -3.3,0 -4.65,-0.26003 -3,-0.57783 z m 29.333335,0 c 1.65,-0.31781 4.35,-0.31781 6,0 1.65,0.3178 0.3,0.57783 -3,0.57783 -3.3,0 -4.650001,-0.26003 -3,-0.57783 z m 512.00002,0 c 1.65,-0.31781 4.35,-0.31781 6,0 1.65,0.3178 0.3,0.57783 -3,0.57783 -3.3,0 -4.65,-0.26003 -3,-0.57783 z m 30.68221,-0.003 c 1.65855,-0.31892 4.05855,-0.30681 5.33333,0.0269 1.27479,0.33372 -0.0823,0.59466 -3.01554,0.57986 -2.93334,-0.0148 -3.97634,-0.28785 -2.31779,-0.60677 z m -119.68222,-6.38969 c 0,-1.1 0.23582,-2 0.52402,-2 0.28821,0 0.86937,0.9 1.29149,2 0.42211,1.1 0.18629,2 -0.52401,2 -0.71032,0 -1.2915,-0.9 -1.2915,-2 z m -325.02401,-4.66667 c 0,-2.56666 0.2744,-3.61666 0.60978,-2.33333 0.33536,1.28333 0.33536,3.38333 0,4.66667 -0.33538,1.28333 -0.60978,0.23333 -0.60978,-2.33334 z m 304.02692,-0.66666 c 0.0148,-2.93334 0.28785,-3.97634 0.60677,-2.31779 0.31892,1.65855 0.30682,4.05855 -0.0269,5.33333 -0.33372,1.27479 -0.59467,-0.0823 -0.57987,-3.01554 z m -282.57616,-10 c 0,-4.76667 0.242,-6.71667 0.53778,-4.33334 0.29576,2.38334 0.29576,6.28334 0,8.66667 -0.29578,2.38333 -0.53778,0.43333 -0.53778,-4.33333 z M 139.75,453.75587 c 0.9625,-0.38516 2.1125,-0.3378 2.55556,0.1052 0.44306,0.44305 -0.34445,0.75818 -1.75,0.70029 -1.55326,-0.064 -1.8692,-0.37992 -0.80556,-0.80555 z m 420.00002,0 c 0.96249,-0.38516 2.1125,-0.3378 2.55556,0.1052 0.44305,0.44305 -0.34446,0.75818 -1.75,0.70029 -1.55327,-0.064 -1.8692,-0.37992 -0.80556,-0.80555 z m -426.66668,-1.33334 c 0.96249,-0.38516 2.11249,-0.3378 2.55556,0.1052 0.44305,0.44306 -0.34446,0.75819 -1.75,0.7003 -1.55326,-0.064 -1.86921,-0.37992 -0.80556,-0.80555 z m -8,-1.33333 c 0.9625,-0.38516 2.1125,-0.3378 2.55555,0.1052 0.44306,0.44305 -0.34444,0.75819 -1.75,0.70029 -1.55325,-0.064 -1.8692,-0.37992 -0.80555,-0.80554 z m 449.33334,0 c 0.9625,-0.38516 2.11251,-0.3378 2.55556,0.1052 0.44306,0.44305 -0.34445,0.75819 -1.75,0.70029 -1.55326,-0.064 -1.8692,-0.37992 -0.80556,-0.80554 z M 42.333335,449.78364 c 0.916666,-0.36988 2.416666,-0.36988 3.333333,0 0.916667,0.36988 0.166667,0.67252 -1.666667,0.67252 -1.833333,0 -2.583333,-0.30264 -1.666666,-0.67252 z m 72.000005,0 c 0.91666,-0.36988 2.41666,-0.36988 3.33333,0 0.91667,0.36988 0.16667,0.67252 -1.66667,0.67252 -1.83333,0 -2.58333,-0.30264 -1.66666,-0.67252 z m 402.07984,-6.45029 c 0.008,-4.4 0.2564,-6.03926 0.55314,-3.64279 0.29675,2.39647 0.29063,5.99647 -0.0136,8 -0.30424,2.00353 -0.54702,0.0428 -0.53954,-4.35721 z m 68.67017,6.42252 c 0.96249,-0.38516 2.11251,-0.3378 2.55556,0.1052 0.44306,0.44305 -0.34445,0.75818 -1.75,0.70029 -1.55327,-0.064 -1.8692,-0.37992 -0.80556,-0.80555 z m 72,0 c 0.9625,-0.38516 2.11251,-0.3378 2.55556,0.1052 0.44306,0.44305 -0.34445,0.75818 -1.75,0.70029 -1.55326,-0.064 -1.8692,-0.37992 -0.80556,-0.80555 z M 55.000002,448.41424 c 1.283333,-0.33536 3.383333,-0.33536 4.666667,0 1.283333,0.33537 0.233333,0.60977 -2.333334,0.60977 -2.566667,0 -3.616667,-0.2744 -2.333333,-0.60977 z m 44.000001,0 c 1.283337,-0.33536 3.383337,-0.33536 4.666667,0 1.28333,0.33537 0.23333,0.60977 -2.33333,0.60977 -2.56667,0 -3.61667,-0.2744 -2.333337,-0.60977 z m 498.666687,0 c 1.28333,-0.33536 3.38333,-0.33536 4.66666,0 1.28334,0.33537 0.23334,0.60977 -2.33333,0.60977 -2.56667,0 -3.61667,-0.2744 -2.33333,-0.60977 z m 44,0 c 1.28333,-0.33536 3.38333,-0.33536 4.66666,0 1.28334,0.33537 0.23334,0.60977 -2.33333,0.60977 -2.56667,0 -3.61667,-0.2744 -2.33333,-0.60977 z M 188.42677,434.66668 c 0,-4.76667 0.242,-6.71667 0.53777,-4.33333 0.29576,2.38333 0.29576,6.28333 0,8.66666 -0.29577,2.38334 -0.53777,0.43334 -0.53777,-4.33333 z m 328.00001,-8 c 0,-4.76667 0.242,-6.71667 0.53777,-4.33333 0.29576,2.38333 0.29576,6.28333 0,8.66666 -0.29577,2.38334 -0.53777,0.43334 -0.53777,-4.33333 z m -305.37876,-2 c 0.0107,-3.66667 0.26896,-5.00841 0.57543,-2.98167 0.30648,2.02675 0.29828,5.02675 -0.0181,6.66667 -0.31648,1.63992 -0.56722,-0.0184 -0.55722,-3.685 z m 282.54526,-6.66667 c 0.0272,-2.2 0.326,-2.93858 0.66406,-1.64129 0.33805,1.29729 0.31582,3.09729 -0.0495,4 -0.36524,0.90271 -0.64183,-0.15871 -0.61465,-2.35871 z m -304.04942,-6 c 0,-1.83333 0.30264,-2.58333 0.67252,-1.66666 0.36988,0.91666 0.36988,2.41666 0,3.33333 -0.36988,0.91667 -0.67252,0.16667 -0.67252,-1.66667 z m 46.12281,0.4503 c 0.91667,-0.36988 2.41667,-0.36988 3.33334,0 0.91666,0.36988 0.16666,0.67252 -1.66667,0.67252 -1.83333,0 -2.58333,-0.30264 -1.66667,-0.67252 z m -23.5614,-3.89474 c 0.064,-1.55326 0.37992,-1.8692 0.80555,-0.80556 0.38516,0.9625 0.3378,2.11251 -0.1052,2.55556 -0.44307,0.44306 -0.75819,-0.34445 -0.70029,-1.75 z m 302.77193,-0.55556 c 0,-1.83333 0.30264,-2.58333 0.67252,-1.66666 0.36988,0.91666 0.36988,2.41666 0,3.33333 -0.36988,0.91667 -0.67252,0.16667 -0.67252,-1.66667 z m -22.77192,-2.1111 c 0.064,-1.55327 0.37992,-1.8692 0.80555,-0.80556 0.38516,0.96249 0.3378,2.1125 -0.1052,2.55556 -0.44305,0.44305 -0.75819,-0.34446 -0.70029,-1.75 z m -301.33334,-5.33334 c 0.064,-1.55326 0.37992,-1.8692 0.80555,-0.80556 0.38516,0.9625 0.3378,2.11251 -0.1052,2.55556 -0.44307,0.44306 -0.75819,-0.34445 -0.7003,-1.75 z m 22.66667,0 c 0.064,-1.55326 0.37992,-1.8692 0.80554,-0.80556 0.38516,0.9625 0.3378,2.11251 -0.1052,2.55556 -0.44306,0.44306 -0.75818,-0.34445 -0.70029,-1.75 z m 34.77192,-4.55556 c 0,-1.83333 0.30264,-2.58333 0.67252,-1.66666 0.36988,0.91666 0.36988,2.41666 0,3.33333 -0.36988,0.91667 -0.67252,0.16667 -0.67252,-1.66667 z m -22.77192,-4.77777 c 0.064,-1.55327 0.37992,-1.8692 0.80554,-0.80556 0.38516,0.96249 0.3378,2.11251 -0.1052,2.55556 -0.44306,0.44305 -0.75818,-0.34445 -0.70029,-1.75 z m 31.89473,-18.39231 c 0,-0.27687 1.05,-1.32687 2.33333,-2.33333 2.11475,-1.6585 2.16191,-1.61134 0.50342,0.50341 -1.74183,2.221 -2.83675,2.92731 -2.83675,1.82992 z m 5.33333,-5.33333 c 0,-0.27687 1.05,-1.32687 2.33334,-2.33334 2.11475,-1.65849 2.16191,-1.61133 0.50341,0.50342 -1.74183,2.221 -2.83675,2.9273 -2.83675,1.82992 z m 23.75001,-12.4074 c 0.96249,-0.38516 2.11249,-0.3378 2.55556,0.1052 0.44305,0.44305 -0.34446,0.75818 -1.75,0.70029 -1.55327,-0.064 -1.8692,-0.37992 -0.80556,-0.80555 z m 19.1766,-11.75586 c 0.0272,-2.2 0.326,-2.93858 0.66405,-1.64129 0.33805,1.29729 0.31583,3.09729 -0.0495,4 -0.36524,0.90271 -0.64182,-0.15871 -0.61465,-2.35871 z m 45.4321,-1.59065 c 1.2973,-0.33805 3.0973,-0.31583 4,0.0495 0.90271,0.36524 -0.1587,0.64182 -2.3587,0.61465 -2.2,-0.0272 -2.93859,-0.326 -1.6413,-0.66405 z m 110.23619,-5.40935 -4.59489,-5 5,4.5949 c 2.75,2.52718 5,4.77718 5,5 0,1.01816 -1.12829,0.0591 -5.40511,-4.5949 z m -178.84489,-3.91081 c 0.96249,-0.38516 2.11249,-0.3378 2.55556,0.1052 0.44305,0.44305 -0.34446,0.75819 -1.75,0.70029 -1.55327,-0.064 -1.8692,-0.37992 -0.80556,-0.80554 z m 202.74659,-2.75585 c -1.65849,-2.11475 -1.61133,-2.16191 0.50341,-0.50342 2.221,1.74183 2.92731,2.83675 1.82992,2.83675 -0.27686,0 -1.32686,-1.05 -2.33333,-2.33333 z m -265.16326,-0.83675 c 0,-0.27687 1.05,-1.32687 2.33333,-2.33333 2.11475,-1.6585 2.16191,-1.61134 0.50341,0.50341 -1.74182,2.221 -2.83674,2.92731 -2.83674,1.82992 z m 257.87332,-7.82992 -2.53998,-3 3,2.53999 c 2.81925,2.38696 3.60699,3.46001 2.53999,3.46001 -0.25302,0 -1.60302,-1.35 -3.00001,-3 z m -198.20665,-1.88304 c 0.91666,-0.36988 2.41666,-0.36988 3.33333,0 0.91667,0.36988 0.16667,0.67252 -1.66667,0.67252 -1.83333,0 -2.58333,-0.30264 -1.66666,-0.67252 z m 68,0 c 0.91666,-0.36988 2.41666,-0.36988 3.33333,0 0.91667,0.36988 0.16667,0.67252 -1.66667,0.67252 -1.83333,0 -2.58333,-0.30264 -1.66666,-0.67252 z m 6.66666,0 c 0.91667,-0.36988 2.41667,-0.36988 3.33334,0 0.91666,0.36988 0.16666,0.67252 -1.66667,0.67252 -1.83333,0 -2.58333,-0.30264 -1.66667,-0.67252 z m 68.69205,-0.0409 c 1.29729,-0.33806 3.09729,-0.31583 4,0.0495 0.9027,0.36524 -0.15871,0.64183 -2.35871,0.61466 -2.2,-0.0272 -2.93859,-0.326 -1.64129,-0.66406 z M 271.75001,297.75586 c 0.96249,-0.38516 2.11249,-0.3378 2.55556,0.1052 0.44305,0.44306 -0.34445,0.75819 -1.75,0.7003 -1.55327,-0.064 -1.8692,-0.37992 -0.80556,-0.80555 z m 17.33333,0 c 0.9625,-0.38516 2.1125,-0.3378 2.55556,0.1052 0.44306,0.44306 -0.34445,0.75819 -1.75,0.7003 -1.55326,-0.064 -1.8692,-0.37992 -0.80556,-0.80555 z m 125.33334,0 c 0.96249,-0.38516 2.11251,-0.3378 2.55556,0.1052 0.44305,0.44306 -0.34445,0.75819 -1.75,0.7003 -1.55327,-0.064 -1.8692,-0.37992 -0.80556,-0.80555 z m 17.25,0.0277 c 0.91667,-0.36988 2.41667,-0.36988 3.33333,0 0.91667,0.36988 0.16667,0.67252 -1.66666,0.67252 -1.83334,0 -2.58334,-0.30264 -1.66667,-0.67252 z m -83.33334,-1.3694 c 1.28334,-0.33536 3.38334,-0.33536 4.66667,0 1.28333,0.33537 0.23333,0.60977 -2.33333,0.60977 -2.56667,0 -3.61667,-0.2744 -2.33334,-0.60977 z m -23.10092,-10.74752 -3.23241,-3.66667 3.66667,3.23241 c 3.42705,3.02119 4.27812,4.10092 3.23241,4.10092 -0.23883,0 -1.88883,-1.65 -3.66667,-3.66666 z m 50.76759,-0.83675 c 0,-0.27687 1.05,-1.32687 2.33334,-2.33333 2.11474,-1.6585 2.1619,-1.61134 0.50341,0.50341 -1.74183,2.221 -2.83675,2.92731 -2.83675,1.82992 z M 357.33334,271.4966 c 0,-0.27687 1.05,-1.32687 2.33334,-2.33334 2.11474,-1.65849 2.1619,-1.61133 0.50341,0.50342 -1.74183,2.221 -2.83675,2.9273 -2.83675,1.82992 z m -18.40673,-9.49659 c 0.0272,-2.2 0.326,-2.93859 0.66405,-1.6413 0.33806,1.2973 0.31583,3.0973 -0.0495,4 -0.36524,0.90271 -0.64183,-0.1587 -0.61466,-2.3587 z m 19.56999,-8.33334 c -1.6585,-2.11474 -1.61134,-2.1619 0.50341,-0.50341 2.221,1.74183 2.92731,2.83675 1.82992,2.83675 -0.27687,0 -1.32687,-1.05 -2.33333,-2.33334 z m -35.82992,-12.75054 c 0,-0.22947 1.95,-2.17947 4.33333,-4.33334 l 4.33333,-3.91612 -3.91612,4.33334 c -3.65037,4.03928 -4.75054,4.9462 -4.75054,3.91612 z m 14.2816,-11.19466 c 1.02024,-0.72541 1.78596,-6.04084 2.07941,-14.43484 l 0.46451,-13.28662 -0.0795,13.89172 c -0.0639,11.17118 -0.47111,13.99806 -2.07943,14.43484 -1.42644,0.38736 -1.53686,0.21384 -0.38506,-0.6051 z m -3.86494,-27.96561 c 0.9625,-0.38516 2.1125,-0.3378 2.55556,0.1052 0.44306,0.44305 -0.34445,0.75819 -1.75,0.70029 -1.55326,-0.064 -1.8692,-0.37992 -0.80556,-0.80554 z m 74.25001,-21.75585 c 2.86432,-2.93334 5.50786,-5.33334 5.87453,-5.33334 0.36667,0 -1.67688,2.4 -4.5412,5.33334 -2.86432,2.93333 -5.50787,5.33333 -5.87453,5.33333 -0.36667,0 1.67688,-2.4 4.5412,-5.33333 z m -114.75055,-0.33334 -3.91612,-4.33333 4.33333,3.91612 c 4.03928,3.65037 4.9462,4.75055 3.91612,4.75055 -0.22947,0 -2.17947,-1.95 -4.33333,-4.33334 z m 54.41721,0.71167 c 2.01667,-0.30551 5.31667,-0.30551 7.33333,0 2.01667,0.30549 0.36667,0.55545 -3.66666,0.55545 -4.03334,0 -5.68334,-0.24996 -3.66667,-0.55545 z M 430.8772,132 c 0,-1.83333 0.30264,-2.58333 0.67252,-1.66666 0.36988,0.91666 0.36988,2.41666 0,3.33333 -0.36988,0.91667 -0.67252,0.16667 -0.67252,-1.66667 z m -161.23452,-2.66666 c 0,-2.56667 0.2744,-3.61667 0.60977,-2.33334 0.33536,1.28334 0.33536,3.38334 0,4.66667 -0.33537,1.28333 -0.60977,0.23333 -0.60977,-2.33333 z m 138.66667,-2.66667 c 0,-2.56667 0.2744,-3.61667 0.60977,-2.33333 0.33536,1.28333 0.33536,3.38333 0,4.66666 -0.33537,1.28334 -0.60977,0.23334 -0.60977,-2.33333 z M 292.44829,120 c 0,-5.5 0.23535,-7.75 0.52301,-5 0.28766,2.75 0.28766,7.25 0,10 -0.28766,2.75 -0.52301,0.5 -0.52301,-5 z m 447.55173,-11.17007 c 0,-0.27687 1.05,-1.32687 2.33334,-2.33333 2.11474,-1.6585 2.1619,-1.61134 0.50341,0.5034 -1.74183,2.221 -2.83675,2.92731 -2.83675,1.82993 z M 361.59328,99.333336 c 0.0272,-2.2 0.326,-2.938581 0.66405,-1.64129 0.33805,1.297289 0.31583,3.097294 -0.0495,4.000004 -0.36517,0.90271 -0.64176,-0.15871 -0.61458,-2.358714 z M 292.57002,58.666668 c 0,-16.5 0.1914,-23.25 0.42534,-15 0.23392,8.25 0.23392,21.750001 0,30.000001 -0.23394,8.25 -0.42534,1.5 -0.42534,-15.000001 z m 211.76333,5.666905 c 40.15,-0.195988 105.85,-0.195988 146,0 40.15,0.195988 7.3,0.356341 -73,0.356341 -80.3,0 -113.15,-0.160353 -73,-0.356341 z"
         style="fill-opacity:1;stroke-width:1.33333" />
      <path
         id="path282"
         d="m 272.9973,735.43102 c -13.09968,-4.67481 -26.3524,-21.19201 -36.80223,-45.86753 l -3.7677,-8.8968 L 120.91686,680.00002 9.4063379,679.33335 6.3698357,676.29673 3.3333334,673.26011 2.9452176,571.63006 C 2.731754,515.73354 2.9143109,468.0214 3.3508989,465.60308 c 1.0925736,-6.05188 6.0318383,-8.71677 22.4182661,-12.0954 35.884618,-7.39885 72.941698,-7.17931 113.458505,0.67219 14.14832,2.74172 39.88634,9.64266 48.77234,13.07697 1.74184,0.67319 2.00584,-3.23051 2.04524,-30.24193 0.0395,-27.01366 0.42913,-32.77523 3.02081,-44.65979 12.80177,-58.70444 46.12177,-94.28972 88.26728,-94.26818 13.08335,0.007 18.64354,1.62647 41.67832,12.1417 27.72758,12.65744 31.63767,12.60394 61.64715,-0.8435 22.33435,-10.00817 32.68971,-12.61952 45.22992,-11.4058 21.70187,2.10044 41.38182,13.5453 56.03345,32.58618 22.19826,28.84832 32.41114,69.71311 30.0155,120.10116 -0.40096,8.43333 -0.67982,15.45447 -0.6197,15.60252 0.0601,0.14805 5.78817,-1.52296 12.729,-3.71337 17.62242,-5.56132 48.09926,-11.48211 68.61971,-13.33086 38.59438,-3.47706 92.37422,2.89747 99.35889,11.77706 2.58119,3.28144 2.64111,5.7113 2.64111,107.10344 v 103.74584 l -3.21757,3.74103 -3.21758,3.74101 -109.11576,0.40042 -109.11577,0.40041 -8.24106,16.93708 c -14.56474,29.93351 -31.87455,44.17108 -47.45211,39.03003 -11.18389,-3.69103 -18.10725,-17.89051 -25.56593,-52.4346 l -0.7917,-3.66667 h -38.52407 -38.52406 l -0.93847,5.66667 c -1.67272,10.10027 -9.91607,33.36069 -14.17483,39.9974 -6.6779,10.4066 -15.74016,13.7104 -26.79048,9.76693 z m 11.43606,-26.6434 c 3.56598,-7.57329 9.15534,-30.06924 17.58794,-70.7876 10.45952,-50.50572 15.8514,-69.99202 23.55626,-85.13255 3.60922,-7.09236 12.8909,-16.89763 18.04629,-19.06428 6.18027,-2.59739 14.67245,-2.22035 21.20376,0.9414 16.69802,8.08337 27.90516,33.11213 37.8764,84.58876 17.0167,87.84891 18.89214,95.33334 23.88866,95.33334 3.93802,0 12.82088,-10.94135 18.5512,-22.85022 18.75877,-38.98482 38.22028,-123.48727 47.09389,-204.48312 0.96411,-8.8 1.75502,-30.1 1.75759,-47.33334 0.004,-25.41706 -0.45485,-33.42192 -2.42899,-42.39476 -9.83202,-44.68837 -31.15736,-72.21201 -60.22452,-77.72903 -9.34771,-1.77421 -18.33005,0.38016 -36.87112,8.84335 -20.14496,9.19528 -31.44687,12.61377 -41.70248,12.61377 -10.63596,0 -18.6492,-2.40713 -40.5343,-12.17625 -20.94816,-9.35091 -27.8482,-10.96415 -38.48493,-8.99784 -27.95339,5.16747 -49.77428,33.46524 -59.5103,77.1741 -2.42992,10.9089 -2.81189,16.82977 -2.75254,42.66666 0.17798,77.49854 24.10757,199.90401 49.1578,251.45377 7.33789,15.1003 14.60949,23.80899 19.14999,22.93456 1.21104,-0.23321 3.29876,-2.75354 4.6394,-5.60072 z m -55.0661,-299.42035 c -3.78407,-3.78407 -4.57692,-8.4865 -3.00569,-17.82672 4.87657,-28.98913 25.025,-51.02611 52.59647,-57.52651 17.7184,-4.17739 26.3753,-1.35414 26.3753,8.6017 0,8.09804 -3.08645,10.68515 -14.44976,12.11198 -23.56656,2.95912 -39.83125,19.46947 -42.70636,43.35135 -0.83729,6.95493 -1.77852,9.58005 -4.11255,11.47002 -4.02165,3.25654 -11.3497,3.16588 -14.69741,-0.18182 z m -5.85785,245.63275 c -0.36866,-1.28333 -1.88102,-6.53333 -3.3608,-11.66667 -8.85864,-30.73042 -17.95027,-78.63876 -24.1567,-127.29356 -1.54069,-12.07813 -2.94412,-22.10309 -3.11872,-22.27771 -0.17461,-0.1746 -5.8559,-2.45641 -12.62509,-5.07068 C 136.44166,471.77335 77.360202,466.22161 33.000001,474.85489 l -7.666667,1.49207 v 90.4932 90.49319 h 99.423186 c 94.05521,0 99.38699,-0.126 98.75289,-2.33333 z m 163.66966,-2 c -7.2531,-41.66864 -17.09743,-79.82639 -23.10027,-89.53918 -3.77622,-6.11005 -8.8318,-10.43478 -11.57962,-9.9056 -7.4478,1.43431 -15.77272,25.21956 -26.52261,75.77811 -2.57273,12.1 -4.98137,23.35 -5.35253,25 l -0.67483,3 h 33.99207 33.99207 z m 288.82095,-86.15986 v -90.4932 l -7.66667,-1.49207 c -24.90402,-4.84676 -62.56682,-5.22861 -90.22696,-0.91478 -17.20352,2.68302 -41.36647,8.84607 -54.81199,13.98041 l -10.68353,4.07967 -2.38156,20.33324 c -4.85131,41.41953 -17.09412,106.18096 -24.89088,131.66659 -1.45825,4.76667 -2.65596,9.71667 -2.66156,11 -0.009,2.20085 5.478,2.33333 96.65648,2.33333 h 96.66667 z M 338.67686,294.24501 c -7.64077,-2.43308 -18.05964,-13.66429 -20.5513,-22.15367 -2.64222,-9.00233 -2.64618,-11.18751 -0.0363,-19.97596 2.38233,-8.02217 10.15039,-17.32649 17.29701,-20.71779 l 4.61374,-2.18936 v -13.21036 -13.21036 l -5,-0.90589 c -22.27779,-4.03623 -44.38515,-20.58877 -55.33923,-41.43443 -9.28179,-17.66328 -9.38937,-18.55896 -9.99703,-83.231932 -0.60081,-63.943544 -0.3464,-66.421053 7.11214,-69.256783 2.30948,-0.8780612 29.17528,-1.2284304 76.0282,-0.9915186 l 72.45664,0.3663772 3.03629,3.0339814 c 2.69987,2.697815 3.08663,4.579585 3.49052,16.983447 l 0.45423,13.949467 153.1756,0.349887 153.17561,0.349885 3.03684,3.034056 c 2.93268,2.929999 3.05089,3.971226 3.44665,30.359417 l 0.40982,27.325366 -3.97392,3.97391 -3.97391,3.97392 H 584.97066 432.40284 l -0.84468,13 c -1.49813,23.05672 -7.75077,38.74034 -21.15917,53.07396 -10.76804,11.51108 -21.90271,18.5964 -36.06564,22.94968 l -11.66667,3.586 v 12.74691 12.74692 l 6.84561,4.61493 c 4.62718,3.11939 8.19192,6.99143 11,11.94827 3.57471,6.31008 4.14887,8.63565 4.11479,16.66667 -0.0457,10.76951 -2.974,17.63795 -10.73215,25.17256 -8.17241,7.93695 -23.09332,10.93335 -35.21807,7.07244 z m 20.71708,-24.1844 c 5.94859,-5.94859 3.56126,-16.34194 -4.37309,-19.03839 -12.38265,-4.20817 -21.59992,10.74456 -12.08661,19.60755 4.20462,3.91721 12.2516,3.63896 16.4597,-0.56916 z m 11.80335,-92.79088 c 14.91686,-5.58111 28.10902,-18.73935 34.37084,-34.28245 3.01438,-7.48228 3.09276,-8.84265 3.49487,-60.653944 l 0.41132,-53.000002 h -58.73715 -58.73716 v 29.265981 29.26598 l 32.11987,0.400688 c 31.92482,0.398253 32.13533,0.4198 34.66666,3.548399 3.87628,4.790874 3.40418,12.650998 -0.96634,16.088848 -3.32648,2.61661 -5.16842,2.76344 -34.66667,2.76344 H 292.00001 L 292.01974,119 c 0.0264,11.14468 3.19448,23.9686 7.99363,32.35664 7.85041,13.7211 23.76132,25.43654 38.88839,28.63414 8.39582,1.77473 23.7334,0.48247 32.29556,-2.72105 z M 722.66669,76.000002 v -12 H 577.33335 432.00001 v 12 12.000001 h 145.33334 145.33334 z"
         style="fill-opacity:1;stroke-width:1.33333" />
    </g>
  </g>
</svg>
