<?xml version="1.0" encoding="UTF-8" standalone="no"?>
<svg
   xmlns:dc="http://purl.org/dc/elements/1.1/"
   xmlns:cc="http://creativecommons.org/ns#"
   xmlns:rdf="http://www.w3.org/1999/02/22-rdf-syntax-ns#"
   xmlns:svg="http://www.w3.org/2000/svg"
   xmlns="http://www.w3.org/2000/svg"
   xmlns:sodipodi="http://sodipodi.sourceforge.net/DTD/sodipodi-0.dtd"
   xmlns:inkscape="http://www.inkscape.org/namespaces/inkscape"
   inkscape:version="1.0 (1.0+r73+1)"
   sodipodi:docname="intro-icon-4.svg"
   viewBox="0 0 692.8302 812.13702"
   height="812.13702"
   width="692.8302"
   id="svg196"
   version="1.1">
  <g
     transform="translate(1013.9086,-0.66666665)"
     id="g204"
     inkscape:label="Image"
     inkscape:groupmode="layer">
    <g
       transform="translate(-1027.4117)"
       id="g208">
      <path
         id="path212"
         d="m 151.20665,808.99998 -2.53998,-3 3,2.53998 c 2.81925,2.38696 3.60698,3.46002 2.53998,3.46002 -0.25301,0 -1.60301,-1.35 -3,-3 z M 170,809.33331 c 1.32732,-1.46667 2.71331,-2.66667 3.07997,-2.66667 0.36667,0 -0.41932,1.2 -1.74664,2.66667 -1.32732,1.46667 -2.7133,2.66667 -3.07997,2.66667 -0.36667,0 0.41932,-1.2 1.74664,-2.66667 z M 97.16326,754.99998 c -1.658495,-2.11475 -1.611335,-2.16191 0.503407,-0.50341 2.220997,1.74182 2.927303,2.83674 1.829926,2.83674 -0.276874,0 -1.326874,-1.05 -2.333333,-2.33333 z m 54.04339,-0.66667 -2.53998,-3 3,2.53999 c 2.81925,2.38696 3.60698,3.46001 2.53998,3.46001 -0.25301,0 -1.60301,-1.35 -3,-3 z M 170,754.66665 c 1.32732,-1.46667 2.71331,-2.66667 3.07997,-2.66667 0.36667,0 -0.41932,1.2 -1.74664,2.66667 -1.32732,1.46666 -2.7133,2.66666 -3.07997,2.66666 -0.36667,0 0.41932,-1.2 1.74664,-2.66666 z m 52.66667,2.16325 c 0,-0.27687 1.05,-1.32687 2.33333,-2.33333 2.11475,-1.6585 2.16191,-1.61134 0.50341,0.50341 -1.74182,2.221 -2.83674,2.9273 -2.83674,1.82992 z m 51.66666,-51.10423 c 1.65,-0.31781 4.35,-0.31781 6,0 1.65,0.3178 0.3,0.57783 -3,0.57783 -3.3,0 -4.65,-0.26003 -3,-0.57783 z m 172.685,-0.0157 c 2.02675,-0.30648 5.02675,-0.29828 6.66667,0.0181 1.63992,0.31648 -0.0184,0.56723 -3.685,0.55723 -3.66667,-0.0107 -5.00841,-0.26896 -2.98167,-0.57543 z m -193.85508,-9.37663 c -1.65849,-2.11474 -1.61133,-2.1619 0.50342,-0.50341 C 254.95,696.8364 256,697.8864 256,698.16326 c 0,1.09739 -1.09492,0.39108 -2.83675,-1.82992 z m 224.17008,-3.66666 c 2.48771,-2.56667 4.82311,-4.66667 5.18978,-4.66667 0.36666,0 -1.36874,2.1 -3.85644,4.66667 -2.48771,2.56666 -4.82311,4.66666 -5.18978,4.66666 -0.36666,0 1.36874,-2.1 3.85644,-4.66666 z m -233.50341,-5.66667 c -1.65849,-2.11475 -1.61133,-2.16191 0.50341,-0.50341 2.221,1.74182 2.92731,2.83674 1.82992,2.83674 -0.27686,0 -1.32686,-1.05 -2.33333,-2.33333 z m 22.0862,-15.33333 -3.91612,-4.33334 4.33333,3.91612 c 4.03928,3.65038 4.9462,4.75055 3.91612,4.75055 -0.22946,0 -2.17946,-1.95 -4.33333,-4.33333 z m 192.75055,2.49658 c 0,-0.27686 1.05,-1.32686 2.33333,-2.33333 2.11475,-1.65849 2.16191,-1.61133 0.50341,0.50341 -1.74182,2.221 -2.83674,2.92731 -2.83674,1.82992 z M 53,669.78361 c 0.916667,-0.36988 2.416667,-0.36988 3.333333,0 0.916667,0.36988 0.166667,0.67252 -1.666666,0.67252 -1.833334,0 -2.583334,-0.30264 -1.666667,-0.67252 z M 41.083333,668.4225 c 0.9625,-0.38516 2.1125,-0.3378 2.555556,0.1052 0.443055,0.44305 -0.344445,0.75819 -1.75,0.70029 -1.553257,-0.064 -1.8692,-0.37992 -0.805556,-0.80554 z m 29.25,0.0277 c 0.916667,-0.36988 2.416667,-0.36988 3.333334,0 0.916666,0.36988 0.166666,0.67252 -1.666667,0.67252 -1.833333,0 -2.583333,-0.30264 -1.666667,-0.67252 z m 579.358707,-5.37428 c 1.29729,-0.33805 3.09729,-0.31582 4,0.0495 0.90271,0.36524 -0.15871,0.64183 -2.35871,0.61465 -2.2,-0.0272 -2.93858,-0.326 -1.64129,-0.66405 z m 24.64129,0.0409 c 0.91667,-0.36988 2.41667,-0.36988 3.33334,0 0.91666,0.36988 0.16666,0.67252 -1.66667,0.67252 -1.83333,0 -2.58333,-0.30264 -1.66667,-0.67252 z M 639.75,661.75578 c 0.96249,-0.38516 2.11251,-0.3378 2.55556,0.1052 0.44305,0.44305 -0.34445,0.75819 -1.75,0.70029 -1.55327,-0.064 -1.8692,-0.37992 -0.80556,-0.80554 z m -8,-1.33333 c 0.96249,-0.38516 2.11251,-0.3378 2.55556,0.1052 0.44305,0.44305 -0.34445,0.75818 -1.75,0.70029 -1.55327,-0.064 -1.8692,-0.37992 -0.80556,-0.80555 z M 52.351667,643.04321 c 2.026749,-0.30648 5.026749,-0.29828 6.666666,0.0181 1.639916,0.31648 -0.01833,0.56723 -3.685,0.55723 -3.666666,-0.0107 -5.008417,-0.26896 -2.981666,-0.57543 z m 16.731666,-1.28738 c 0.9625,-0.38516 2.1125,-0.3378 2.555556,0.1052 0.443055,0.44306 -0.344445,0.75819 -1.75,0.7003 -1.553257,-0.064 -1.8692,-0.37992 -0.805556,-0.80555 z m 341.688597,-1.20029 c 0.064,-1.55326 0.37992,-1.8692 0.80555,-0.80556 0.38516,0.96249 0.3378,2.11251 -0.1052,2.55556 -0.44305,0.44305 -0.75819,-0.34445 -0.70029,-1.75 z M 40.611841,639.91127 c -0.483377,-0.78212 -0.59291,-1.70799 -0.243406,-2.0575 0.349504,-0.34951 0.990754,0.29041 1.425001,1.42204 0.901579,2.34948 0.133133,2.76274 -1.181595,0.63546 z m 398.160089,-2.02239 c 0.064,-1.55327 0.37992,-1.8692 0.80555,-0.80556 0.38516,0.96249 0.3378,2.1125 -0.1052,2.55555 -0.44305,0.44306 -0.75819,-0.34445 -0.70029,-1.74999 z m 214.3114,-1.46638 c 0.9625,-0.38516 2.11251,-0.3378 2.55556,0.1052 0.44306,0.44306 -0.34445,0.75819 -1.75,0.7003 -1.55326,-0.064 -1.8692,-0.37992 -0.80556,-0.80555 z M 409.4386,633.88888 c 0.064,-1.55327 0.37992,-1.8692 0.80555,-0.80556 0.38516,0.96249 0.3378,2.1125 -0.1052,2.55556 -0.44306,0.44305 -0.75819,-0.34446 -0.7003,-1.75 z m 268.86968,-0.66244 c 0.47148,-1.80294 1.07587,-2.40734 1.40873,-1.40874 0.32064,0.96192 -0.0509,2.38288 -0.82574,3.15768 -0.98943,0.98943 -1.16295,0.46886 -0.58299,-1.74894 z m -242.20301,-8.6709 c 0.064,-1.55326 0.37992,-1.8692 0.80554,-0.80556 0.38516,0.9625 0.3378,2.11251 -0.1052,2.55556 -0.44305,0.44306 -0.75818,-0.34445 -0.70029,-1.75 z m -29.33334,-5.33333 c 0.064,-1.55327 0.37992,-1.8692 0.80555,-0.80556 0.38516,0.96249 0.3378,2.11251 -0.1052,2.55556 -0.44305,0.44305 -0.75819,-0.34445 -0.70029,-1.75 z m 26.66667,-9.33333 c 0.064,-1.55327 0.37992,-1.8692 0.80555,-0.80556 0.38516,0.96249 0.3378,2.1125 -0.1052,2.55556 -0.44306,0.44305 -0.75819,-0.34446 -0.7003,-1.75 z M 57.333333,608.8299 c 0,-0.27686 1.05,-1.32686 2.333334,-2.33333 2.114741,-1.65849 2.161901,-1.61133 0.503406,0.50341 -1.741825,2.221 -2.83674,2.92731 -2.83674,1.82992 z M 325.4386,603.22221 c 0.064,-1.55327 0.37992,-1.8692 0.80555,-0.80556 0.38516,0.96249 0.3378,2.11251 -0.1052,2.55556 -0.44307,0.44305 -0.75819,-0.34445 -0.7003,-1.75 z m 335.72465,-0.22223 c -1.65849,-2.11474 -1.61133,-2.1619 0.50342,-0.50341 1.28333,1.00647 2.33333,2.05647 2.33333,2.33333 0,1.09739 -1.09492,0.39108 -2.83675,-1.82992 z m -582.496583,-17 c 6.9377,-6.96666 12.913998,-12.66666 13.280665,-12.66666 0.366667,0 -5.009632,5.7 -11.947332,12.66666 -6.9377,6.96667 -12.913999,12.66667 -13.280665,12.66667 -0.366667,0 5.009632,-5.7 11.947332,-12.66667 z m 248.105263,10.55556 c 0.064,-1.55326 0.37992,-1.8692 0.80555,-0.80556 0.38516,0.9625 0.3378,2.11251 -0.1052,2.55556 -0.44307,0.44306 -0.75819,-0.34445 -0.70029,-1.75 z m 76,0 c 0.064,-1.55326 0.37992,-1.8692 0.80555,-0.80556 0.38516,0.9625 0.3378,2.11251 -0.1052,2.55556 -0.44305,0.44306 -0.75819,-0.34445 -0.70029,-1.75 z m 28,-1.33333 c 0.064,-1.55327 0.37992,-1.8692 0.80555,-0.80556 0.38516,0.96249 0.3378,2.11251 -0.1052,2.55556 -0.44305,0.44305 -0.75819,-0.34445 -0.70029,-1.75 z m 221.1563,-2.88889 -4.5949,-5 5,4.59489 c 2.75,2.52719 5,4.77719 5,5 0,1.01816 -1.12829,0.0589 -5.4051,-4.59489 z m -127.82296,1.55556 c 0.064,-1.55327 0.37992,-1.8692 0.80554,-0.80556 0.38516,0.96249 0.3378,2.1125 -0.1052,2.55556 -0.44305,0.44305 -0.75818,-0.34446 -0.70029,-1.75 z m -490.771937,0.27436 c 0,-0.27687 1.05,-1.32687 2.333334,-2.33334 2.114741,-1.65849 2.161901,-1.61133 0.503406,0.50342 -1.741825,2.221 -2.83674,2.9273 -2.83674,1.82992 z m 294.771937,-4.27436 c 0.064,-1.55327 0.37992,-1.8692 0.80554,-0.80556 0.38516,0.96249 0.3378,2.1125 -0.1052,2.55556 -0.44306,0.44305 -0.75818,-0.34446 -0.70029,-1.75 z m 357.05798,-1.55556 c -1.65849,-2.11475 -1.61133,-2.16191 0.50342,-0.50342 1.28333,1.00647 2.33333,2.05647 2.33333,2.33334 0,1.09738 -1.09492,0.39108 -2.83675,-1.82992 z M 429.4386,587.22221 c 0.064,-1.55327 0.37992,-1.8692 0.80555,-0.80556 0.38516,0.96249 0.3378,2.11251 -0.1052,2.55556 -0.44306,0.44305 -0.75819,-0.34445 -0.7003,-1.75 z M 40.666667,585.33332 c 1.327314,-1.46667 2.7133,-2.66667 3.079966,-2.66667 0.366667,0 -0.419318,1.2 -1.746633,2.66667 -1.327315,1.46666 -2.7133,2.66666 -3.079967,2.66666 -0.366666,0 0.419319,-1.2 1.746634,-2.66666 z M 329.4386,583.22221 c 0.064,-1.55327 0.37992,-1.8692 0.80555,-0.80556 0.38516,0.96249 0.3378,2.11251 -0.1052,2.55556 -0.44307,0.44305 -0.75819,-0.34445 -0.7003,-1.75 z m 70.66667,-1.33333 c 0.064,-1.55327 0.37992,-1.8692 0.80554,-0.80556 0.38516,0.96249 0.3378,2.1125 -0.1052,2.55556 -0.44305,0.44305 -0.75818,-0.34446 -0.70029,-1.75 z m 279.72465,-0.22223 c -1.65849,-2.11475 -1.61133,-2.16191 0.50341,-0.50341 2.221,1.74182 2.92731,2.83674 1.82992,2.83674 -0.27686,0 -1.32686,-1.05 -2.33333,-2.33333 z M 58,566.66665 c 4.354088,-4.4 8.216524,-8 8.583191,-8 0.366666,0 -2.89577,3.6 -7.249858,8 -4.354088,4.4 -8.216524,8 -8.58319,8 -0.366667,0 2.895769,-3.6 7.249857,-8 z m 569.92823,1.66667 -4.5949,-5 5,4.59489 c 2.75,2.52719 5,4.77719 5,5 0,1.01816 -1.12829,0.0589 -5.4051,-4.59489 z M 659.30832,559.66665 646,545.99998 659.66667,559.3083 c 7.51666,7.31958 13.66666,13.46958 13.66666,13.66667 0,0.96449 -1.66418,-0.61467 -14.02501,-13.30832 z m -557.97499,5 c 1.72233,-1.83333 3.43151,-3.33333 3.79817,-3.33333 0.36667,0 -0.74251,1.5 -2.46483,3.33333 -1.72233,1.83333 -3.431507,3.33333 -3.798174,3.33333 -0.366667,0 0.742511,-1.5 2.464834,-3.33333 z m 513.23242,-8.33333 -3.23242,-3.66667 3.66667,3.23241 c 3.42705,3.02119 4.27812,4.10092 3.23241,4.10092 -0.23882,0 -1.88882,-1.65 -3.66666,-3.66666 z m -503.23242,-0.33334 c 1.32732,-1.46666 2.7133,-2.66666 3.07997,-2.66666 0.36667,0 -0.41932,1.2 -1.74663,2.66666 -1.32732,1.46667 -2.7133,2.66667 -3.07997,2.66667 -0.36667,0 0.41932,-1.2 1.74663,-2.66667 z m 7.33334,-5.83674 c 0,-0.27687 1.05,-1.32687 2.33333,-2.33334 2.11474,-1.65849 2.1619,-1.61133 0.50341,0.50342 -1.74183,2.221 -2.83674,2.9273 -2.83674,1.82992 z m 486.49658,-1.82992 c -1.65849,-2.11475 -1.61133,-2.16191 0.50342,-0.50342 1.28333,1.00647 2.33333,2.05647 2.33333,2.33334 0,1.09738 -1.09492,0.39108 -2.83675,-1.82992 z M 79.333333,546.66665 c 1.327315,-1.46667 2.7133,-2.66667 3.079967,-2.66667 0.366667,0 -0.419319,1.2 -1.746633,2.66667 -1.327315,1.46667 -2.7133,2.66667 -3.079967,2.66667 -0.366667,0 0.419319,-1.2 1.746633,-2.66667 z m 517.829917,-5 c -1.65849,-2.11475 -1.61133,-2.16191 0.50342,-0.50341 2.221,1.74182 2.9273,2.83674 1.82992,2.83674 -0.27687,0 -1.32687,-1.05 -2.33334,-2.33333 z m 39.37674,-3.33333 -2.53999,-3 3,2.53998 c 1.65,1.39699 3,2.74699 3,3 0,1.067 -1.07305,0.27927 -3.46001,-2.53998 z M 90,537.33332 c 1.327315,-1.46667 2.7133,-2.66667 3.079967,-2.66667 0.366666,0 -0.419319,1.2 -1.746634,2.66667 -1.327314,1.46666 -2.7133,2.66666 -3.079966,2.66666 -0.366667,0 0.419318,-1.2 1.746633,-2.66666 z m 447.4386,0.55556 c 0.064,-1.55327 0.37992,-1.8692 0.80555,-0.80556 0.38516,0.96249 0.3378,2.1125 -0.1052,2.55556 -0.44306,0.44305 -0.75819,-0.34446 -0.7003,-1.75 z m -398.77193,-3.72564 c 0,-0.27687 1.05,-1.32687 2.33333,-2.33334 2.11475,-1.65849 2.16191,-1.61133 0.50341,0.50342 -1.74182,2.221 -2.83674,2.9273 -2.83674,1.82992 z m -41.333337,-2.66667 c 0,-0.27687 1.05,-1.32687 2.333334,-2.33333 2.114743,-1.6585 2.161903,-1.61134 0.503403,0.50341 -1.741822,2.221 -2.836737,2.92731 -2.836737,1.82992 z m 529.163257,-1.82992 c -1.6585,-2.11475 -1.61134,-2.16191 0.50341,-0.50341 2.221,1.74182 2.92731,2.83674 1.82992,2.83674 -0.27687,0 -1.32687,-1.05 -2.33333,-2.33333 z m -86.39132,-5.11111 c 0.064,-1.55326 0.37992,-1.86919 0.80554,-0.80556 0.38516,0.9625 0.3378,2.11251 -0.1052,2.55556 -0.44305,0.44306 -0.75818,-0.34445 -0.70029,-1.75 z M 213.4386,519.22221 c 0.064,-1.55326 0.37992,-1.8692 0.80555,-0.80556 0.38516,0.9625 0.3378,2.11251 -0.1052,2.55556 -0.44307,0.44306 -0.75819,-0.34445 -0.7003,-1.75 z M 112,519.49657 c 0,-0.27686 1.05,-1.32686 2.33333,-2.33333 2.11474,-1.65849 2.1619,-1.61133 0.50341,0.50341 -1.74183,2.221 -2.83674,2.92731 -2.83674,1.82992 z m 498.49659,-3.16325 c -1.6585,-2.11475 -1.61134,-2.16191 0.50341,-0.50341 1.28333,1.00646 2.33333,2.05646 2.33333,2.33333 0,1.09739 -1.09492,0.39108 -2.83674,-1.82992 z m -398.39132,-3.77777 c 0.064,-1.55327 0.37992,-1.8692 0.80554,-0.80556 0.38516,0.96249 0.3378,2.1125 -0.1052,2.55556 -0.44306,0.44305 -0.75818,-0.34446 -0.70029,-1.75 z m 391.72465,-1.55556 c -1.65849,-2.11475 -1.61133,-2.16191 0.50341,-0.50342 2.221,1.74183 2.92731,2.83675 1.82992,2.83675 -0.27686,0 -1.32686,-1.05 -2.33333,-2.33333 z m -6.66667,-5.33334 c -1.65849,-2.11474 -1.61133,-2.1619 0.50342,-0.50341 2.221,1.74183 2.9273,2.83675 1.82992,2.83675 -0.27687,0 -1.32687,-1.05 -2.33334,-2.33334 z m -81.05798,-2.44444 c 0.064,-1.55326 0.37992,-1.8692 0.80554,-0.80556 0.38516,0.9625 0.3378,2.11251 -0.1052,2.55556 -0.44305,0.44306 -0.75818,-0.34445 -0.70029,-1.75 z M 181.4386,497.88888 c 0.064,-1.55327 0.37992,-1.8692 0.80555,-0.80556 0.38516,0.96249 0.3378,2.11251 -0.1052,2.55556 -0.44307,0.44305 -0.75819,-0.34445 -0.7003,-1.75 z m 364,-2.66667 c 0.064,-1.55326 0.37992,-1.8692 0.80555,-0.80556 0.38516,0.9625 0.3378,2.11251 -0.1052,2.55556 -0.44306,0.44306 -0.75819,-0.34445 -0.7003,-1.75 z m -395.77193,-2.808 c 1.28333,-0.33536 3.38333,-0.33536 4.66666,0 1.28334,0.33538 0.23334,0.60978 -2.33333,0.60978 -2.56667,0 -3.61667,-0.2744 -2.33333,-0.60978 z m 58.4386,-1.192 c 0.064,-1.55326 0.37992,-1.8692 0.80554,-0.80556 0.38516,0.9625 0.3378,2.11251 -0.1052,2.55556 -0.44306,0.44306 -0.75818,-0.34445 -0.70029,-1.75 z m -28,-1.33333 c 0.064,-1.55327 0.37992,-1.8692 0.80554,-0.80556 0.38516,0.96249 0.3378,2.11251 -0.1052,2.55556 -0.44306,0.44305 -0.75818,-0.34445 -0.70029,-1.75 z m 338.66666,-1.33333 c 0.064,-1.55327 0.37992,-1.8692 0.80555,-0.80556 0.38516,0.96249 0.3378,2.1125 -0.1052,2.55556 -0.44305,0.44305 -0.75819,-0.34446 -0.70029,-1.75 z m 51.5614,1.22806 c 0.91667,-0.36988 2.41667,-0.36988 3.33334,0 0.91666,0.36988 0.16666,0.67252 -1.66667,0.67252 -1.83333,0 -2.58333,-0.30264 -1.66667,-0.67252 z m -23.5614,-2.5614 c 0.064,-1.55326 0.37992,-1.8692 0.80555,-0.80556 0.38516,0.9625 0.3378,2.11251 -0.1052,2.55556 -0.44305,0.44306 -0.75819,-0.34445 -0.70029,-1.75 z m -368,-5.33333 c 0.064,-1.55327 0.37992,-1.8692 0.80555,-0.80556 0.38516,0.96249 0.3378,2.11251 -0.1052,2.55556 -0.44307,0.44305 -0.75819,-0.34445 -0.70029,-1.75 z m 341.33334,-1.33333 c 0.064,-1.55327 0.37992,-1.8692 0.80554,-0.80556 0.38516,0.96249 0.3378,2.1125 -0.1052,2.55556 -0.44305,0.44305 -0.75818,-0.34446 -0.70029,-1.75 z m 28,-1.33334 c 0.064,-1.55326 0.37992,-1.8692 0.80554,-0.80556 0.38516,0.9625 0.3378,2.11251 -0.1052,2.55556 -0.44305,0.44306 -0.75818,-0.34445 -0.70029,-1.75 z M 177.4386,472.55555 c 0.064,-1.55327 0.37992,-1.8692 0.80555,-0.80556 0.38516,0.96249 0.3378,2.1125 -0.1052,2.55556 -0.44307,0.44305 -0.75819,-0.34446 -0.7003,-1.75 z m 344,0 c 0.064,-1.55327 0.37992,-1.8692 0.80555,-0.80556 0.38516,0.96249 0.3378,2.1125 -0.1052,2.55556 -0.44306,0.44305 -0.75819,-0.34446 -0.7003,-1.75 z m 28,-2.66667 c 0.064,-1.55327 0.37992,-1.8692 0.80555,-0.80556 0.38516,0.96249 0.3378,2.11251 -0.1052,2.55556 -0.44306,0.44305 -0.75819,-0.34445 -0.7003,-1.75 z m -345.33333,-2.66667 c 0.064,-1.55326 0.37992,-1.8692 0.80554,-0.80556 0.38516,0.9625 0.3378,2.11251 -0.1052,2.55556 -0.44306,0.44306 -0.75818,-0.34445 -0.70029,-1.75 z m -28,-2.66666 c 0.064,-1.55327 0.37992,-1.8692 0.80554,-0.80556 0.38516,0.96249 0.3378,2.1125 -0.1052,2.55556 -0.44306,0.44305 -0.75818,-0.34446 -0.70029,-1.75 z m 346.66666,0 c 0.064,-1.55327 0.37992,-1.8692 0.80555,-0.80556 0.38516,0.96249 0.3378,2.1125 -0.1052,2.55556 -0.44305,0.44305 -0.75819,-0.34446 -0.70029,-1.75 z m 28,-4 c 0.064,-1.55327 0.37992,-1.8692 0.80555,-0.80556 0.38516,0.96249 0.3378,2.1125 -0.1052,2.55556 -0.44305,0.44305 -0.75819,-0.34446 -0.70029,-1.75 z m -348,-1.33334 c 0.064,-1.55326 0.37992,-1.8692 0.80555,-0.80556 0.38516,0.9625 0.3378,2.11251 -0.1052,2.55556 -0.44307,0.44306 -0.75819,-0.34445 -0.70029,-1.75 z m -27.89474,-4.55556 c 0,-1.83333 0.30264,-2.58333 0.67252,-1.66666 0.36988,0.91666 0.36988,2.41666 0,3.33333 -0.36988,0.91667 -0.67252,0.16667 -0.67252,-1.66667 z m 349.22808,0.55556 c 0.064,-1.55326 0.37992,-1.8692 0.80554,-0.80556 0.38516,0.9625 0.3378,2.11251 -0.1052,2.55556 -0.44305,0.44306 -0.75818,-0.34445 -0.70029,-1.75 z m 28,-4 c 0.064,-1.55326 0.37992,-1.8692 0.80554,-0.80556 0.38516,0.9625 0.3378,2.11251 -0.1052,2.55556 -0.44305,0.44306 -0.75818,-0.34445 -0.70029,-1.75 z m -350.77194,-0.77778 c 0,-0.61111 0.56459,-1.11111 1.25464,-1.11111 0.69006,0 1.56367,0.5 1.94135,1.11111 0.37769,0.61112 -0.18689,1.11112 -1.25464,1.11112 -1.06773,0 -1.94135,-0.5 -1.94135,-1.11112 z m -27.89473,-5.88888 c 0.064,-1.55327 0.37992,-1.8692 0.80555,-0.80556 0.38516,0.96249 0.3378,2.1125 -0.1052,2.55556 -0.44307,0.44305 -0.75819,-0.34446 -0.7003,-1.75 z m 380.10525,-3.22223 c 0,-1.83333 0.30264,-2.58333 0.67252,-1.66667 0.36988,0.91667 0.36988,2.41667 0,3.33334 -0.36988,0.91666 -0.67252,0.16666 -0.67252,-1.66667 z m -381.33333,-6.66667 c 0,-1.83333 0.30264,-2.58333 0.67252,-1.66666 0.36988,0.91666 0.36988,2.41666 0,3.33333 -0.36988,0.91667 -0.67252,0.16667 -0.67252,-1.66667 z m 382.56141,-3.44444 c 0.064,-1.55326 0.37992,-1.8692 0.80555,-0.80556 0.38516,0.9625 0.3378,2.11251 -0.1052,2.55556 -0.44305,0.44306 -0.75819,-0.34445 -0.70029,-1.75 z M 196.21052,407.99999 c 0,-1.83333 0.30264,-2.58333 0.67252,-1.66667 0.36988,0.91667 0.36988,2.41667 0,3.33333 -0.36988,0.91667 -0.67252,0.16667 -0.67252,-1.66666 z m 334.71608,-4.66667 c 0.0272,-2.2 0.326,-2.93858 0.66405,-1.64129 0.33806,1.29729 0.31583,3.09729 -0.0495,4 -0.36524,0.90271 -0.64183,-0.15871 -0.61466,-2.35871 z m -336,-9.33333 c 0.0272,-2.2 0.326,-2.93859 0.66405,-1.64129 0.33806,1.29729 0.31583,3.09729 -0.0495,4 -0.36524,0.9027 -0.64183,-0.15871 -0.61466,-2.35871 z m -71.09667,-1.66667 c -1.6585,-2.11474 -1.61134,-2.1619 0.5034,-0.50341 1.28334,1.00647 2.33334,2.05647 2.33334,2.33333 0,1.09739 -1.09492,0.39108 -2.83674,-1.82992 z m 408.43,-3.66666 c 0.0272,-2.2 0.326,-2.93859 0.66406,-1.6413 0.33805,1.2973 0.31582,3.0973 -0.0495,4 -0.36524,0.90271 -0.64183,-0.1587 -0.61465,-2.3587 z m 73.0734,1.49658 c 0,-0.27686 1.05,-1.32686 2.33334,-2.33333 2.11474,-1.65849 2.1619,-1.61133 0.50341,0.50341 -1.74183,2.221 -2.83675,2.92731 -2.83675,1.82992 z m -488.17007,-3.16325 c -1.65849,-2.11475 -1.61133,-2.16191 0.50341,-0.50341 1.28333,1.00646 2.33333,2.05646 2.33333,2.33333 0,1.09739 -1.09491,0.39108 -2.83674,-1.82992 z m 49.76334,-2.33333 c 0.0272,-2.2 0.326,-2.93859 0.66405,-1.6413 0.33806,1.2973 0.31583,3.0973 -0.0493,4 -0.36524,0.90271 -0.64183,-0.1587 -0.61465,-2.3587 z M 612,384.82991 c 0,-0.27687 1.05,-1.32687 2.33333,-2.33333 2.11475,-1.6585 2.16191,-1.61134 0.50342,0.50341 -1.74183,2.221 -2.83675,2.92731 -2.83675,1.82992 z m -501.50341,-3.16325 c -1.65849,-2.11475 -1.61133,-2.16191 0.50341,-0.50342 1.28333,1.00647 2.33333,2.05647 2.33333,2.33334 0,1.09738 -1.09491,0.39108 -2.83674,-1.82992 z m 449.76334,-2.33334 c 0.0272,-2.2 0.326,-2.93858 0.66406,-1.64129 0.33805,1.29729 0.31582,3.09729 -0.0495,4 -0.36524,0.90271 -0.64183,-0.15871 -0.61465,-2.35871 z m 10.40674,2.82992 c 0,-0.27686 1.05,-1.32686 2.33333,-2.33333 2.11475,-1.65849 2.16191,-1.61133 0.50341,0.50341 -1.74182,2.221 -2.83674,2.92731 -2.83674,1.82992 z m -377.024,-4.82992 c 0,-2.56666 0.2744,-3.61666 0.60977,-2.33333 0.33536,1.28333 0.33536,3.38333 0,4.66667 -0.33537,1.28333 -0.60977,0.23333 -0.60977,-2.33334 z m -91.14608,-2.33333 c -1.65849,-2.11475 -1.61133,-2.16191 0.50341,-0.50341 1.28333,1.00646 2.33333,2.05646 2.33333,2.33333 0,1.09739 -1.09491,0.39108 -2.83674,-1.82992 z m 518.83674,1.82992 c 0,-0.27687 1.05,-1.32687 2.33334,-2.33333 2.11474,-1.6585 2.1619,-1.61134 0.50341,0.50341 -1.74183,2.221 -2.83675,2.92731 -2.83675,1.82992 z m -87.66376,-6.82992 c 0.0148,-2.93333 0.28786,-3.97633 0.60678,-2.31779 0.31892,1.65855 0.30681,4.05855 -0.0269,5.33334 -0.33372,1.27478 -0.59466,-0.0823 -0.57986,-3.01555 z m -368.0269,-2 c 0,-2.56667 0.2744,-3.61667 0.60977,-2.33333 0.33536,1.28333 0.33536,3.38333 0,4.66666 -0.33537,1.28334 -0.60977,0.23334 -0.60977,-2.33333 z M 584,371.49658 c 0,-0.27687 1.05,-1.32687 2.33333,-2.33334 2.11475,-1.65849 2.16191,-1.61133 0.50342,0.50342 -1.74183,2.221 -2.83675,2.9273 -2.83675,1.82992 z m -490.126683,-3.82992 -2.539984,-3 3,2.53998 c 2.81926,2.38696 3.606988,3.46002 2.539984,3.46002 -0.253009,0 -1.603009,-1.35 -3,-3 z m 44.623273,0.66666 c -1.6585,-2.11474 -1.61134,-2.1619 0.50341,-0.50341 1.28333,1.00647 2.33333,2.05647 2.33333,2.33333 0,1.09739 -1.09492,0.39108 -2.83674,-1.82992 z m 494.83674,-2.33333 c 1.72234,-1.83333 3.43151,-3.33333 3.79818,-3.33333 0.36666,0 -0.74251,1.5 -2.46484,3.33333 -1.72234,1.83333 -3.43151,3.33333 -3.79818,3.33333 -0.36666,0 0.74251,-1.5 2.46484,-3.33333 z m -42.66666,0.16325 c 0,-0.27686 1.05,-1.32686 2.33333,-2.33333 2.11475,-1.65849 2.16191,-1.61133 0.50341,0.50341 -1.74182,2.221 -2.83674,2.92731 -2.83674,1.82992 z m -458.83674,-3.16325 c -1.6585,-2.11475 -1.61134,-2.16191 0.5034,-0.50341 1.28334,1.00646 2.33334,2.05646 2.33334,2.33333 0,1.09739 -1.09492,0.39108 -2.83674,-1.82992 z m 429.81274,-1.66667 c 0,-2.56666 0.2744,-3.61666 0.60977,-2.33333 0.33536,1.28333 0.33536,3.38333 0,4.66667 -0.33537,1.28333 -0.60977,0.23333 -0.60977,-2.33334 z M 81.916121,356.99999 78,352.66666 l 4.333333,3.91612 c 2.383334,2.15386 4.333334,4.10386 4.333334,4.33333 0,1.03008 -1.100171,0.1232 -4.750546,-3.91612 z m 345.109249,3.40935 c 1.2973,-0.33806 3.0973,-0.31583 4,0.0495 0.90271,0.36524 -0.1587,0.64183 -2.3587,0.61466 -2.2,-0.0272 -2.93859,-0.326 -1.6413,-0.66406 z M 192.53325,340.66666 c 10e-4,-11 0.20839,-15.32258 0.45892,-9.60572 0.25054,5.71684 0.24902,14.71684 -0.004,20 -0.2524,5.28314 -0.45738,0.60572 -0.45552,-10.39428 z m 406.13342,18.82992 c 0,-0.27687 1.05,-1.32687 2.33333,-2.33334 2.11475,-1.65849 2.16191,-1.61133 0.50341,0.50342 -1.74182,2.221 -2.83674,2.9273 -2.83674,1.82992 z m -474.83674,-3.16326 c -1.6585,-2.11474 -1.61134,-2.1619 0.5034,-0.50341 1.28334,1.00647 2.33334,2.05647 2.33334,2.33333 0,1.09739 -1.09492,0.39108 -2.83674,-1.82992 z M 436,358.16324 c 0,-0.27686 1.05,-1.32686 2.33333,-2.33333 2.11475,-1.65849 2.16191,-1.61133 0.50342,0.50341 -1.74183,2.221 -2.83675,2.92731 -2.83675,1.82992 z m 220,-13.49658 c 6.93769,-6.96667 12.914,-12.66667 13.28067,-12.66667 0.36666,0 -5.00964,5.7 -11.94734,12.66667 -6.93769,6.96666 -12.914,12.66666 -13.28066,12.66666 -0.36667,0 5.00964,-5.7 11.94733,-12.66666 z m -540.17007,5 c -1.6585,-2.11475 -1.61134,-2.16191 0.5034,-0.50342 1.28334,1.00647 2.33334,2.05647 2.33334,2.33334 0,1.09738 -1.09492,0.39108 -2.83674,-1.82992 z m 48.6743,-12.33334 c 0,-8.43333 0.21649,-11.88333 0.48109,-7.66666 0.2646,4.21666 0.2646,11.11666 0,15.33333 -0.2646,4.21667 -0.48109,0.76667 -0.48109,-7.66667 z m 445.49577,12 c 1.32732,-1.46666 2.71331,-2.66666 3.07997,-2.66666 0.36667,0 -0.41932,1.2 -1.74664,2.66666 -1.32732,1.46667 -2.7133,2.66667 -3.07997,2.66667 -0.36667,0 0.41932,-1.2 1.74664,-2.66667 z M 61.333333,337.99999 c -3.238705,-3.3 -5.588554,-6 -5.221888,-6 0.366667,0 3.316516,2.7 6.555222,6 3.238705,3.3 5.588554,6 5.221888,6 -0.366667,0 -3.316516,-2.7 -6.555222,-6 z m 44.539987,3 -2.53999,-3 3,2.53999 c 2.81926,2.38696 3.60699,3.46001 2.53999,3.46001 -0.25301,0 -1.60301,-1.35 -3,-3 z m 429.12959,-3 c 0.0148,-2.93333 0.28785,-3.97633 0.60677,-2.31779 0.31892,1.65855 0.30681,4.05855 -0.0269,5.33334 -0.33372,1.27478 -0.59467,-0.0823 -0.57987,-3.01555 z m 83.66376,4.24945 c 0,-0.22946 1.95,-2.17946 4.33333,-4.33333 l 4.33333,-3.91612 -3.91612,4.33333 c -3.65037,4.03928 -4.75054,4.9462 -4.75054,3.91612 z M 91.270597,327.66666 86,321.99999 l 5.666667,5.2706 c 3.116666,2.89883 5.666666,5.44883 5.666666,5.66667 0,1.00877 -1.161133,-6.6e-4 -6.062736,-5.2706 z m 584.062733,-3.66667 c 1.32732,-1.46667 2.71331,-2.66667 3.07998,-2.66667 0.36666,0 -0.41932,1.2 -1.74664,2.66667 -1.32732,1.46667 -2.71331,2.66667 -3.07998,2.66667 -0.36666,0 0.41932,-1.2 1.74664,-2.66667 z M 45.16326,320.33332 c -1.658495,-2.11474 -1.611335,-2.1619 0.503407,-0.50341 C 46.95,320.83638 48,321.88638 48,322.16324 c 0,1.09739 -1.094915,0.39108 -2.83674,-1.82992 z m 516.47941,-5.66666 c 0,-2.56667 0.2744,-3.61667 0.60977,-2.33334 0.33536,1.28334 0.33536,3.38334 0,4.66667 -0.33537,1.28333 -0.60977,0.23333 -0.60977,-2.33333 z M 680,318.16324 c 0,-0.27686 1.05,-1.32686 2.33333,-2.33333 2.11475,-1.65849 2.16191,-1.61133 0.50342,0.50341 -1.74183,2.221 -2.83675,2.92731 -2.83675,1.82992 z m -146.40673,-4.16325 c 0.0272,-2.2 0.326,-2.93859 0.66405,-1.64129 0.33805,1.29729 0.31583,3.09729 -0.0495,4 -0.36524,0.9027 -0.64182,-0.15871 -0.61465,-2.35871 z M 38.496593,312.33332 c -1.658494,-2.11474 -1.611334,-2.1619 0.503407,-0.50341 1.283333,1.00647 2.333333,2.05647 2.333333,2.33333 0,1.09739 -1.094914,0.39108 -2.83674,-1.82992 z m 127.047257,-3 c 0,-1.83333 0.30264,-2.58333 0.67252,-1.66666 0.36988,0.91666 0.36988,2.41666 0,3.33333 -0.36988,0.91667 -0.67252,0.16667 -0.67252,-1.66667 z m 28,0 c 0,-1.83333 0.30264,-2.58333 0.67252,-1.66666 0.36988,0.91666 0.36988,2.41666 0,3.33333 -0.36988,0.91667 -0.67252,0.16667 -0.67252,-1.66667 z M 652,308.66666 c 1.72233,-1.83334 3.43151,-3.33334 3.79817,-3.33334 0.36667,0 -0.7425,1.5 -2.46484,3.33334 -1.72233,1.83333 -3.4315,3.33333 -3.79817,3.33333 -0.36667,0 0.74251,-1.5 2.46484,-3.33333 z M 69.916121,306.33332 66,301.99999 l 4.333333,3.91612 c 2.383334,2.15387 4.333334,4.10387 4.333334,4.33333 0,1.03008 -1.100171,0.1232 -4.750546,-3.91612 z m 294.623869,-4 -2.53999,-3 3,2.53999 c 2.81925,2.38696 3.60699,3.46001 2.53999,3.46001 -0.25302,0 -1.60302,-1.35 -3,-3 z m 72.12668,0.33334 c 1.32732,-1.46667 2.7133,-2.66667 3.07997,-2.66667 0.36667,0 -0.41932,1.2 -1.74664,2.66667 -1.32732,1.46666 -2.71331,2.66666 -3.07997,2.66666 -0.36667,0 0.41932,-1.2 1.74664,-2.66666 z m 52.66666,2.16325 c 0,-0.27687 1.05,-1.32687 2.33334,-2.33333 2.11474,-1.6585 2.1619,-1.61134 0.50341,0.50341 -1.74183,2.221 -2.83675,2.92731 -2.83675,1.82992 z m 42.77194,-1.60769 c 0.064,-1.55327 0.37992,-1.8692 0.80554,-0.80556 0.38516,0.96249 0.3378,2.11249 -0.1052,2.55556 -0.44305,0.44305 -0.75818,-0.34446 -0.70029,-1.75 z m -113.60868,-1.55556 c -1.6585,-2.11475 -1.61134,-2.16191 0.50341,-0.50342 2.221,1.74183 2.92731,2.83675 1.82992,2.83675 -0.27687,0 -1.32687,-1.05 -2.33333,-2.33333 z m 141.60868,0.22222 c 0.064,-1.55326 0.37992,-1.8692 0.80554,-0.80556 0.38516,0.9625 0.3378,2.1125 -0.1052,2.55556 -0.44305,0.44306 -0.75818,-0.34445 -0.70029,-1.75 z m 98.5614,-1.05897 c 0,-0.27687 1.05,-1.32687 2.33333,-2.33333 2.11475,-1.6585 2.16191,-1.61134 0.50341,0.50341 -1.74182,2.221 -2.83674,2.92731 -2.83674,1.82992 z m -491.89474,-2.94103 c 0.064,-1.55326 0.37992,-1.8692 0.80555,-0.80556 0.38516,0.9625 0.3378,2.1125 -0.1052,2.55556 -0.44307,0.44306 -0.75819,-0.34445 -0.70029,-1.75 z M 59.829927,294.99999 c -1.658495,-2.11475 -1.611335,-2.16191 0.503406,-0.50341 1.283334,1.00646 2.333334,2.05646 2.333334,2.33333 0,1.09739 -1.094915,0.39108 -2.83674,-1.82992 z M 494.976,293.33332 c 0,-2.56666 0.2744,-3.61666 0.60977,-2.33333 0.33536,1.28333 0.33536,3.38333 0,4.66667 -0.33537,1.28333 -0.60977,0.23333 -0.60977,-2.33334 z m -326.76548,-3.99999 c 0,-1.83334 0.30264,-2.58334 0.67252,-1.66667 0.36988,0.91667 0.36988,2.41667 0,3.33333 -0.36988,0.91667 -0.67252,0.16667 -0.67252,-1.66666 z m -7.85181,-0.92399 c 1.29729,-0.33805 3.09729,-0.31583 4,0.0495 0.9027,0.36524 -0.15871,0.64182 -2.35871,0.61465 -2.2,-0.0272 -2.93859,-0.326 -1.64129,-0.66405 z m 276.18128,-4.74268 -2.53999,-3 3,2.53999 c 2.81925,2.38696 3.60699,3.46001 2.53999,3.46001 -0.25302,0 -1.60302,-1.35 -3,-3 z m 53.9566,-0.66667 c -1.6585,-2.11474 -1.61134,-2.1619 0.50341,-0.50341 1.28333,1.00647 2.33333,2.05647 2.33333,2.33333 0,1.09739 -1.09492,0.39108 -2.83674,-1.82992 z m 211.04726,-7 c 0,-1.83333 0.30264,-2.58333 0.67252,-1.66666 0.36988,0.91666 0.36988,2.41666 0,3.33333 -0.36988,0.91667 -0.67252,0.16667 -0.67252,-1.66667 z M 17.54386,270.66666 c 0,-1.83333 0.302631,-2.58333 0.672515,-1.66667 0.369882,0.91667 0.369882,2.41667 0,3.33334 -0.369884,0.91666 -0.672515,0.16666 -0.672515,-1.66667 z m 409.94026,-0.24397 c 0.38508,-0.62307 1.25868,-0.78767 1.94135,-0.36575 1.7445,1.07816 1.54808,1.49861 -0.70015,1.49861 -1.06775,0 -1.62628,-0.50978 -1.2412,-1.13286 z M 639.75,271.08918 c 0.96249,-0.38516 2.11251,-0.3378 2.55556,0.1052 0.44305,0.44305 -0.34445,0.75819 -1.75,0.70029 -1.55327,-0.064 -1.8692,-0.37992 -0.80556,-0.80554 z m 61.79385,-1.75585 c 0,-1.83334 0.30264,-2.58334 0.67252,-1.66667 0.36988,0.91667 0.36988,2.41667 0,3.33333 -0.36988,0.91667 -0.67252,0.16667 -0.67252,-1.66666 z m -53.18514,0.40934 c 1.29729,-0.33805 3.09729,-0.31582 4,0.0495 0.9027,0.36524 -0.15871,0.64183 -2.35871,0.61465 -2.2,-0.0272 -2.93859,-0.326 -1.64129,-0.66405 z m 19.39129,0.0133 c 0.96249,-0.38516 2.11251,-0.3378 2.55556,0.1052 0.44305,0.44305 -0.34445,0.75818 -1.75,0.70029 -1.55327,-0.064 -1.8692,-0.37992 -0.80556,-0.80555 z m -580,-2.66667 c 0.9625,-0.38516 2.1125,-0.3378 2.555556,0.1052 0.443055,0.44305 -0.344445,0.75819 -1.75,0.70029 -1.553257,-0.064 -1.8692,-0.37992 -0.805556,-0.80554 z m -70.20614,-3.08935 c 0,-1.83333 0.302631,-2.58333 0.672515,-1.66666 0.369882,0.91666 0.369882,2.41666 0,3.33333 -0.369884,0.91667 -0.672515,0.16667 -0.672515,-1.66667 z m 63.539473,1.75586 c 0.9625,-0.38516 2.1125,-0.3378 2.555556,0.1052 0.443055,0.44305 -0.344445,0.75818 -1.75,0.70029 -1.553257,-0.064 -1.8692,-0.37992 -0.805556,-0.80555 z M 71.75,264.42251 c 0.9625,-0.38516 2.1125,-0.3378 2.555556,0.1052 0.443055,0.44306 -0.344445,0.75819 -1.75,0.7003 -1.553257,-0.064 -1.8692,-0.37992 -0.805556,-0.80555 z m 565.33333,-21.33333 c 0.9625,-0.38516 2.11251,-0.3378 2.55556,0.1052 0.44306,0.44305 -0.34445,0.75819 -1.75,0.70029 -1.55326,-0.064 -1.8692,-0.37992 -0.80556,-0.80554 z m 9.25,-1.30556 c 0.91667,-0.36988 2.41667,-0.36988 3.33334,0 0.91666,0.36988 0.16666,0.67252 -1.66667,0.67252 -1.83333,0 -2.58333,-0.30264 -1.66667,-0.67252 z m 22.66667,0 c 0.91667,-0.36988 2.41667,-0.36988 3.33333,0 0.91667,0.36988 0.16667,0.67252 -1.66666,0.67252 -1.83334,0 -2.58334,-0.30264 -1.66667,-0.67252 z M 74.333333,236.45029 c 0.916667,-0.36988 2.416667,-0.36988 3.333334,0 0.916666,0.36988 0.166666,0.67252 -1.666667,0.67252 -1.833333,0 -2.583333,-0.30264 -1.666667,-0.67252 z m 363.539987,-6.11696 -2.53999,-3 3,2.53998 c 1.65,1.39699 3,2.74699 3,3 0,1.067 -1.07305,0.27927 -3.46001,-2.53998 z M 224,226.16325 c 0,-0.27687 1.05,-1.32687 2.33333,-2.33334 2.11475,-1.65849 2.16191,-1.61133 0.50342,0.50342 -1.74183,2.221 -2.83675,2.9273 -2.83675,1.82992 z m 137.66667,-1.74903 c 1.28333,-0.33536 3.38333,-0.33536 4.66666,0 1.28334,0.33537 0.23334,0.60977 -2.33333,0.60977 -2.56667,0 -3.61667,-0.2744 -2.33333,-0.60977 z m 133,-6.41423 c -3.23871,-3.3 -5.58856,-6 -5.2219,-6 0.36667,0 3.31652,2.7 6.55523,6 3.23871,3.3 5.58856,6 5.22189,6 -0.36666,0 -3.31652,-2.7 -6.55522,-6 z M 204,206.16325 c 0,-0.27687 1.05,-1.32687 2.33333,-2.33334 2.11475,-1.65849 2.16191,-1.61133 0.50342,0.50342 -1.74183,2.221 -2.83675,2.9273 -2.83675,1.82992 z m 309.94988,-9.16326 -6.61655,-7 7,6.61655 c 3.85,3.63909 7,6.78909 7,7 0,0.99492 -1.23524,-0.112 -7.38345,-6.61655 z M 267.75,197.75585 c 0.96249,-0.38516 2.11249,-0.3378 2.55556,0.1052 0.44305,0.44305 -0.34445,0.75818 -1.75,0.70029 -1.55327,-0.064 -1.8692,-0.37992 -0.80556,-0.80555 z m 16,0 c 0.96249,-0.38516 2.11249,-0.3378 2.55556,0.1052 0.44305,0.44305 -0.34445,0.75818 -1.75,0.70029 -1.55327,-0.064 -1.8692,-0.37992 -0.80556,-0.80555 z m 173.33333,0 c 0.9625,-0.38516 2.11251,-0.3378 2.55556,0.1052 0.44306,0.44305 -0.34445,0.75818 -1.75,0.70029 -1.55326,-0.064 -1.8692,-0.37992 -0.80556,-0.80555 z m -94.66666,-1.33334 c 0.96249,-0.38516 2.1125,-0.3378 2.55556,0.1052 0.44305,0.44306 -0.34446,0.75819 -1.75,0.7003 -1.55327,-0.064 -1.8692,-0.37992 -0.80556,-0.80555 z m -145.08334,-3.5926 c 0,-0.27686 1.05,-1.32686 2.33334,-2.33333 2.11474,-1.65849 2.1619,-1.61133 0.50341,0.50341 -1.74183,2.221 -2.83675,2.92731 -2.83675,1.82992 z m -60.97462,-8.42057 c 1.29729,-0.33805 3.09729,-0.31583 4,0.0495 0.9027,0.36524 -0.15871,0.64182 -2.35871,0.61465 -2.2,-0.0272 -2.93859,-0.326 -1.64129,-0.66405 z m -8.52879,-4.07601 c -1.65849,-2.11475 -1.61133,-2.16191 0.50341,-0.50342 1.28334,1.00647 2.33334,2.05647 2.33334,2.33334 0,1.09738 -1.09492,0.39108 -2.83675,-1.82992 z M 265,169.78362 c 0.91667,-0.36988 2.41667,-0.36988 3.33333,0 0.91667,0.36988 0.16667,0.67252 -1.66666,0.67252 -1.83334,0 -2.58334,-0.30264 -1.66667,-0.67252 z m 21.41667,-0.0277 c 0.96249,-0.38516 2.11249,-0.3378 2.55556,0.1052 0.44305,0.44307 -0.34446,0.75819 -1.75,0.70029 -1.55327,-0.064 -1.8692,-0.37992 -0.80556,-0.80554 z m 153.33333,0 c 0.96249,-0.38516 2.11251,-0.3378 2.55556,0.1052 0.44305,0.44307 -0.34445,0.75819 -1.75,0.70029 -1.55327,-0.064 -1.8692,-0.37992 -0.80556,-0.80554 z m 20,0 c 0.96249,-0.38516 2.11251,-0.3378 2.55556,0.1052 0.44305,0.44307 -0.34445,0.75819 -1.75,0.70029 -1.55327,-0.064 -1.8692,-0.37992 -0.80556,-0.80554 z M 65.438596,92.555553 c 0.06397,-1.553257 0.379921,-1.8692 0.805556,-0.805556 0.385161,0.9625 0.337792,2.1125 -0.105267,2.555556 -0.443056,0.443055 -0.758188,-0.344445 -0.700293,-1.75 z M 245.16325,81.666664 c -1.65849,-2.114741 -1.61133,-2.161901 0.50342,-0.503406 2.221,1.741825 2.9273,2.83674 1.82992,2.83674 -0.27687,0 -1.32687,-1.05 -2.33334,-2.333334 z M 138.66667,75.496591 c 0,-0.276874 1.05,-1.326874 2.33333,-2.333333 2.11475,-1.658495 2.16191,-1.611335 0.50341,0.503407 -1.74182,2.220997 -2.83674,2.927305 -2.83674,1.829926 z m 28.53998,-71.8299244 -2.53998,-2.99999995 3,2.53998335 c 2.81925,2.3869576 3.60698,3.4600165 2.53998,3.4600165 -0.25301,0 -1.60301,-1.35 -3,-2.9999999 z"
         style="fill-opacity:1;stroke-width:1.33333" />
      <path
         id="path210"
         d="m 156.47351,812.06074 c -3.95507,-1.66574 -8.24395,-7.76754 -16.63046,-23.6602 L 132.66667,774.8011 116.2134,765.79171 C 98.446921,756.06324 94.640736,752.58657 94.713913,746.1535 c 0.08485,-7.45985 3.005663,-10.29279 20.688307,-20.06593 l 17.04535,-9.42092 9.44807,-17.2799 c 8.46593,-15.48361 9.96729,-17.4775 14.44288,-19.18092 4.32427,-1.64584 5.66536,-1.64584 9.98963,0 4.47558,1.70342 5.97694,3.69731 14.44288,19.18092 l 9.44806,17.2799 17.04536,9.42092 c 17.68264,9.77314 20.60344,12.60608 20.6883,20.06593 0.0736,6.46989 -3.95531,10.16318 -21.58908,19.7907 L 190,774.87827 l -8.46065,15.78139 c -4.65336,8.67976 -9.78222,17.0229 -11.39744,18.54033 -3.46579,3.25593 -9.65458,4.55123 -13.6684,2.86075 z m 6.81688,-45.2588 c 1.72548,-5.43651 8.78321,-13.29101 15.34889,-17.08168 l 6.8846,-3.97479 -7.76193,-4.59202 c -5.87946,-3.47834 -8.63391,-6.19614 -11.35724,-11.20608 -1.97742,-3.63774 -4.25952,-6.61406 -5.07138,-6.61406 -0.81185,0 -3.09396,2.97632 -5.07137,6.61406 -2.72333,5.00994 -5.47779,7.72774 -11.35724,11.20608 l -7.76193,4.59202 6.8846,3.97479 c 6.56568,3.79067 13.62341,11.64517 15.34889,17.08168 0.44188,1.39225 1.32256,2.53137 1.95705,2.53137 0.6345,0 1.51518,-1.13912 1.95706,-2.53137 z m 99.94221,-64.64588 c -16.09995,-7.49685 -33.79312,-33.13745 -46.57075,-67.48941 -2.0458,-5.5 -3.82014,-10.13852 -3.94301,-10.30783 -0.12293,-0.16932 -9.54424,3.51454 -20.9364,8.18632 -44.70593,18.33339 -90.27358,32.09144 -117.620776,35.51279 -45.393227,5.67901 -67.6516633,-9.54168 -58.713487,-40.14928 8.145066,-27.89169 46.197263,-68.77536 111.222273,-119.49833 18.21836,-14.21129 19.7119,-15.077 26.01112,-15.077 9.6047,0 15.74212,10.97569 10.93784,19.56039 -0.89068,1.59154 -9.11941,8.72144 -18.28608,15.84421 -54.736106,42.53153 -92.982529,81.0462 -102.536995,103.25616 -2.90511,6.7531 -2.948836,7.2635 -0.759434,8.86443 11.805488,8.63238 66.744349,-4.3403 135.859339,-32.08039 13.87627,-5.5694 25.47711,-10.37371 25.77964,-10.67624 0.30255,-0.30254 -1.86841,-10.04923 -4.82433,-21.65932 -9.27744,-36.43927 -16.81434,-76.00469 -22.81635,-119.77591 -1.50835,-11 -3.05641,-21.92818 -3.44015,-24.28485 -0.59808,-3.67304 -3.30814,-6.22807 -18.9797,-17.89389 C 71.86262,353.63159 23.183637,302.77631 18.834111,273.68098 c -2.20009,-14.71708 3.531373,-26.38739 16.121428,-32.82619 13.986302,-7.15285 36.71642,-6.39546 72.616891,2.41968 21.99706,5.40124 61.40285,18.46271 64.22978,21.28964 1.77652,1.77652 2.54412,0.55764 6.89543,-10.9492 16.45767,-43.52173 41.24287,-70.24409 74.63569,-80.46909 7.79536,-2.38697 13.0865,-3.05124 24,-3.01308 16.09348,0.0563 21.41906,1.57284 47.29006,13.46672 23.12617,10.63197 29.38892,12.63337 39.5717,12.64604 9.47559,0.012 13.216,-1.2798 46.65828,-16.11139 19.30874,-8.56338 31.5743,-11.33801 45.28954,-10.24507 34.35029,2.73728 64.29433,25.36949 83.64649,63.22139 3.62445,7.08926 8.23488,17.78382 10.24537,23.76568 l 3.65547,10.87612 5.88093,-2.52085 c 9.07291,-3.88911 38.00278,-12.72743 55.80314,-17.04832 39.85953,-9.6756 65.55493,-8.38203 77.85646,3.91949 12.00882,12.00883 11.00951,30.70959 -2.78365,52.09187 -17.62616,27.32426 -57.64457,65.36577 -114.37887,108.72858 l -20.59841,15.74365 -4.24489,30 c -6.56123,46.3701 -15.16796,90.93799 -23.88948,123.70587 -2.6795,10.06724 -3.03875,12.99664 -1.69984,13.86086 2.30537,1.48804 38.8624,15.82283 53.6977,21.05602 44.16947,15.58088 84.91104,23.43353 97.24654,18.74358 4.3737,-1.66288 4.30062,-3.42169 -0.52314,-12.59182 -11.57193,-21.99858 -42.69826,-53.50351 -90.7234,-91.82687 -12.83333,-10.24081 -24.06206,-19.89345 -24.95274,-21.45032 -6.44466,-11.26488 6.99548,-24.16325 18.70706,-17.953 4.455,2.36234 39.85098,30.72459 55.57902,44.53461 18.26254,16.03546 44.27018,42.81187 53.02045,54.58774 14.55231,19.58408 21.0498,37.6608 17.84445,49.64522 -3.47644,12.99801 -11.76166,19.07861 -29.82165,21.88633 -25.70296,3.99595 -77.636,-8.18872 -139.29747,-32.68233 -10.40648,-4.13374 -19.42074,-7.51589 -20.0317,-7.51589 -0.61096,0 -2.8308,4.65 -4.93298,10.33333 -13.29692,35.94895 -31.30248,62.22315 -47.76044,69.69332 -7.90814,3.58945 -19.94694,3.52109 -25.88201,-0.14697 -13.7278,-8.48424 -20.40047,-28.67811 -33.22355,-100.54635 -3.40197,-19.06666 -6.87458,-35.33336 -7.71692,-36.1482 -0.84233,-0.81484 -8.29992,-5.01484 -16.5724,-9.33333 l -15.04088,-7.8518 -14.95912,7.84916 c -8.22752,4.31704 -15.42273,8.26065 -15.98937,8.76359 -0.56663,0.50293 -4.55775,17.9708 -8.86915,38.8175 -12.02638,58.15059 -17.1825,75.65773 -26.1092,88.65139 -8.66486,12.61254 -21.83646,16.04585 -36.09213,9.40777 z m 17.89609,-33.20847 c 3.99507,-10.16998 7.45079,-22.93648 12.70811,-46.94761 6.16453,-28.15456 7.9934,-37.94757 7.22947,-38.7115 -0.54062,-0.54063 -60.62711,27.98054 -62.35816,29.59946 -1.13459,1.06108 6.89446,22.83119 13.30957,36.0878 7.42171,15.33669 13.12988,23.47295 18.95201,27.0136 5.20072,3.16275 6.50574,2.25817 10.159,-7.04175 z m 184.43503,-2.28094 c 6.65277,-9.23572 14.33791,-25.33094 20.371,-42.66353 4.25673,-12.22931 4.47051,-13.51724 2.37184,-14.28988 -1.26861,-0.46706 -14.8556,-6.74456 -30.19332,-13.95002 -15.33773,-7.20545 -28.16573,-12.82185 -28.50669,-12.48089 -0.79003,0.79003 6.86092,43.52427 11.17944,62.44257 3.77085,16.51909 6.62789,25.6384 9.39356,29.983 1.90512,2.99277 2.00109,3.0034 6.01888,0.66667 2.24557,-1.30603 6.45996,-5.67459 9.36529,-9.70792 z m -194.09113,-100.08072 37.47258,-18.35697 3.44778,-13.74968 c 1.89628,-7.56232 3.33361,-13.81707 3.19408,-13.89941 -33.48776,-19.7646 -69.77307,-42.42148 -95.3727,-59.55162 -9.78212,-6.54574 -17.98029,-11.70492 -18.21816,-11.46481 -1.12746,1.13807 9.36256,59.79441 16.17356,90.43654 7.96134,35.81739 11.17443,46.56795 13.65888,45.7008 1.19427,-0.41682 19.03406,-9.0185 39.64398,-19.11485 z m 228.40478,12.41405 c 11.11396,-42.30709 27.41436,-125.48603 25.05383,-127.84658 -0.37849,-0.37849 -10.49285,5.85427 -22.47636,13.85056 -20.36723,13.59056 -61.36591,39.48559 -78.78817,49.76309 -4.21667,2.48744 -7.63942,5.13244 -7.6061,5.87778 0.0333,0.74533 1.39567,7.05515 3.02746,14.02182 l 2.96686,12.66667 16.63923,8.57572 c 18.78704,9.68269 57.37052,28.09094 58.87829,28.09094 0.54531,0 1.58254,-2.25 2.30496,-5 z m -117.4072,-71.77725 c 1.09798,-0.89981 -6.42749,-15.08134 -10.40978,-19.61692 -7.32258,-8.33994 -12.83943,-5.88746 -19.2222,8.54512 -5.06438,11.45146 -5.08415,11.3668 3.82848,16.39599 l 8,4.51423 8.66666,-4.72655 c 4.76667,-2.5996 8.87824,-4.89993 9.13684,-5.11187 z m -54.56292,-21.28336 c 4.3519,-10.49973 13.60175,-22.48186 20.45642,-26.49897 8.053,-4.71937 16.08858,-5.60672 25.63673,-2.831 9.85077,2.86371 20.70251,13.34197 27.38352,26.44111 3.18508,6.24484 5.25337,8.88938 6.67187,8.53074 6.13642,-1.55152 102.44697,-63.71441 122.34858,-78.96894 1.41743,-1.08646 4.33764,-48.48535 4.39146,-71.27899 0.0517,-21.93334 -0.48366,-30.46753 -2.71016,-43.19786 -10.28262,-58.79187 -40.29435,-97.60348 -77.68779,-100.46696 -11.77607,-0.90177 -17.67367,0.73473 -41.66053,11.56031 -29.27247,13.21101 -32.35991,14.10452 -48.73735,14.10452 -16.45016,0 -22.46511,-1.75335 -51.00125,-14.86676 -22.23615,-10.21832 -27.58731,-11.66008 -40.25894,-10.84686 -15.12942,0.97095 -27.62704,7.45719 -41.34336,21.45718 -12.9669,13.23508 -20.66804,26.29817 -27.57841,46.78009 -9.31751,27.61648 -12.58267,52.16032 -11.37127,85.47634 1.20148,33.04326 3.69791,59.28753 5.84368,61.43331 2.44168,2.44168 53.03439,36.25713 71.70955,47.92966 24.96132,15.60155 53.15835,32.63703 54.02061,32.63703 0.45211,0 2.2011,-3.32728 3.88664,-7.39395 z m 92.75942,-128.03202 c -1.46667,-1.10431 -6.86667,-9.59747 -12,-18.87368 l -9.33334,-16.86587 -15.107,-8.28534 c -16.99614,-9.32144 -21.06522,-12.59598 -22.22737,-17.88723 -1.78072,-8.10753 1.49737,-11.71452 20.04968,-22.06128 l 17.28469,-9.63981 9.33334,-16.92733 c 9.71322,-17.61634 12.59244,-20.5669 20.15352,-20.6529 6.27422,-0.0713 10.35408,4.0849 17.99285,18.32992 3.8212,7.12588 8.06388,14.56619 9.42817,16.53399 1.38619,1.9994 8.79182,6.9596 16.78632,11.24329 17.80308,9.53943 21.63914,13.12566 21.63914,20.22984 0,3.14493 -1.01264,6.53328 -2.52114,8.43589 -1.38661,1.7489 -9.76476,7.07982 -18.61808,11.84648 l -16.09696,8.66667 -8.759,16.27097 c -4.81745,8.94904 -10.32022,17.49904 -12.2284,19 -4.10684,3.23046 -11.91296,3.54534 -15.77642,0.63639 z m 16.44481,-54.00617 c 1.4866,-1.88768 5.44467,-4.88666 8.79571,-6.66439 3.35105,-1.77772 6.09281,-3.54681 6.09281,-3.93131 0,-0.38449 -2.20731,-1.88552 -4.90512,-3.33562 -8.07599,-4.34091 -11.00792,-7.22023 -14.62944,-14.36697 -3.82775,-7.55368 -3.37783,-7.71252 -10.06525,3.55337 -2.57963,4.34573 -5.5081,7.03139 -10.33334,9.47652 -3.70344,1.87668 -6.72301,3.85202 -6.71017,4.38968 0.0133,0.53764 3.16285,2.79522 7,5.01685 5.21669,3.02036 8.131,5.98725 11.55257,11.76107 l 4.57594,7.72172 2.96169,-5.09439 c 1.62893,-2.80191 4.17801,-6.63885 5.6646,-8.52653 z M 166.74869,373.8206 c -2.46352,-28.08261 -1.60353,-63.19794 2.02206,-82.5646 0.74534,-3.98139 0.6547,-4.06462 -3.85319,-3.53835 -3.14383,0.36702 -11.81757,-1.82866 -27.19047,-6.88302 -41.004359,-13.48156 -71.873939,-19.23001 -87.512105,-16.29628 -4.226401,0.79288 -4.881652,1.41216 -4.881652,4.6137 0,11.96662 30.133999,46.13545 72.004547,81.64567 18.834,15.97304 49.62159,40.02058 50.33025,39.31191 0.25763,-0.25763 -0.15612,-7.58769 -0.91944,-16.28903 z m 431.71734,-13.73678 c 33.32282,-27.74583 65.30373,-61.15784 72.91492,-76.17779 6.08804,-12.01416 4.01408,-14.5727 -11.81267,-14.5727 -16.47371,0 -43.92635,6.00541 -76.11141,16.64978 -10.00618,3.30928 -19.7416,6.01688 -21.63428,6.01688 -2.40887,0 -3.22542,0.56241 -2.72183,1.87472 0.39567,1.03109 1.44039,9.28109 2.3216,18.33333 1.54024,15.8222 1.18169,41.61902 -0.94112,67.71164 l -0.91551,11.25303 11.01648,-8.52227 c 6.05908,-4.68725 18.60679,-14.84222 27.88382,-22.56662 z M 149.30431,180.63577 c -1.7383,-1.85032 -8.90636,-13.95396 -15.92904,-26.89696 L 120.60674,130.20609 96.080241,116.63964 C 82.590667,109.17809 70.454149,101.71525 69.110204,100.05555 65.596257,95.716007 65.879269,87.328181 69.666667,83.563239 c 1.65,-1.640217 11.7,-7.725377 22.333333,-13.522578 30.74013,-16.759252 27.27363,-13.402957 42.10593,-40.767285 7.73908,-14.27796 14.49755,-25.1476141 16.41884,-26.4064981 5.05134,-3.30975613 12.86079,-2.76616844 16.71436,1.1634251 1.78152,1.8166666 9.00239,13.890468 16.04639,26.830672 l 12.80727,23.527642 24.26264,13.299213 c 13.36593,7.326336 25.42129,14.8511 26.8425,16.754644 2.97368,3.982934 3.33684,10.154579 0.86888,14.766018 -1.10832,2.070898 -10.58154,8.056778 -26.89502,16.994238 L 195.98772,130 183.04856,154 c -7.11653,13.2 -14.28649,25.34999 -15.93325,26.99999 -4.36847,4.3771 -13.53283,4.18968 -17.811,-0.36422 z m 18.52368,-56.04085 8.07597,-14.7384 15.38135,-8.49666 c 8.45974,-4.673164 15.38077,-8.840881 15.38004,-9.261595 -7.2e-4,-0.420714 -4.95072,-3.420136 -11,-6.665382 -19.98751,-10.72267 -19.66052,-10.41221 -28.87579,-27.416873 l -8.49363,-15.673065 -5.69788,10.495193 C 141.43547,73.399081 140.2568,74.773757 128,81.526807 c -6.23333,3.43434 -13.09928,7.234406 -15.25767,8.44459 l -3.92433,2.200336 15.92433,8.927967 15.92434,8.92796 8.5831,15.66973 c 4.72071,8.61835 9.01491,15.21213 9.54267,14.65283 0.52776,-0.55929 4.59376,-7.64917 9.03555,-15.7553 z"
         style="fill-opacity:1;stroke-width:1.33333" />
    </g>
  </g>
</svg>
