<?xml version="1.0" encoding="UTF-8" standalone="no"?>
<svg
   xmlns:dc="http://purl.org/dc/elements/1.1/"
   xmlns:cc="http://creativecommons.org/ns#"
   xmlns:rdf="http://www.w3.org/1999/02/22-rdf-syntax-ns#"
   xmlns:svg="http://www.w3.org/2000/svg"
   xmlns="http://www.w3.org/2000/svg"
   xmlns:sodipodi="http://sodipodi.sourceforge.net/DTD/sodipodi-0.dtd"
   xmlns:inkscape="http://www.inkscape.org/namespaces/inkscape"
   inkscape:version="1.0 (1.0+r73+1)"
   sodipodi:docname="intro-icon-2.svg"
   viewBox="0 0 546.15436 732.79303"
   height="732.79303"
   width="546.15436"
   id="svg172"
   version="1.1">
  <g
     transform="translate(671.38717,-63.412333)"
     id="g180"
     inkscape:label="Image"
     inkscape:groupmode="layer">
    <g
       transform="translate(-671.75032,63.242702)"
       id="g256">
      <path
         id="path260"
         d="m 497.43862,579.22221 c 0.064,-1.55327 0.37992,-1.8692 0.80555,-0.80556 0.38516,0.96249 0.3378,2.1125 -0.1052,2.55556 -0.44306,0.44305 -0.75819,-0.34446 -0.7003,-1.75 z M 46.771931,572.55554 c 0.06397,-1.55326 0.379922,-1.8692 0.805556,-0.80556 0.385162,0.9625 0.337792,2.11251 -0.105266,2.55556 -0.443056,0.44306 -0.758188,-0.34445 -0.700294,-1.75 z m -1.333333,-6.66666 c 0.06397,-1.55327 0.379921,-1.8692 0.805556,-0.80556 0.385161,0.96249 0.337792,2.1125 -0.105267,2.55556 -0.443056,0.44305 -0.758188,-0.34446 -0.700293,-1.75 z M 18.77193,560.55554 c 0.06397,-1.55326 0.379921,-1.8692 0.805556,-0.80556 0.385162,0.9625 0.337792,2.11251 -0.105267,2.55556 -0.443056,0.44306 -0.758188,-0.34445 -0.700293,-1.75 z m 508.00003,0 c 0.064,-1.55326 0.37992,-1.8692 0.80554,-0.80556 0.38516,0.9625 0.3378,2.11251 -0.1052,2.55556 -0.44305,0.44306 -0.75818,-0.34445 -0.70029,-1.75 z M 44.105265,559.22221 c 0.06397,-1.55327 0.379921,-1.8692 0.805556,-0.80556 0.385161,0.96249 0.337792,2.11251 -0.105267,2.55556 -0.443056,0.44305 -0.758188,-0.34445 -0.700293,-1.75 z m 457.333355,0 c 0.064,-1.55327 0.37992,-1.8692 0.80555,-0.80556 0.38516,0.96249 0.3378,2.11251 -0.1052,2.55556 -0.44306,0.44305 -0.75819,-0.34445 -0.7003,-1.75 z m 2.66667,-14.66667 c 0.064,-1.55326 0.37992,-1.8692 0.80554,-0.80556 0.38516,0.9625 0.3378,2.11251 -0.1052,2.55556 -0.44305,0.44306 -0.75818,-0.34445 -0.70029,-1.75 z m -489.33336,-8 c 0.06397,-1.55326 0.379921,-1.8692 0.805556,-0.80556 0.385161,0.9625 0.337792,2.11251 -0.105267,2.55556 -0.443056,0.44306 -0.758188,-0.34445 -0.700293,-1.75 z m 490.66669,0 c 0.064,-1.55326 0.37992,-1.8692 0.80555,-0.80556 0.38516,0.9625 0.3378,2.11251 -0.1052,2.55556 -0.44306,0.44306 -0.75819,-0.34445 -0.7003,-1.75 z m 25.33334,0 c 0.064,-1.55326 0.37992,-1.8692 0.80554,-0.80556 0.38516,0.9625 0.3378,2.11251 -0.1052,2.55556 -0.44305,0.44306 -0.75818,-0.34445 -0.70029,-1.75 z M 13.438597,527.22221 c 0.06397,-1.55327 0.379921,-1.8692 0.805556,-0.80556 0.385161,0.96249 0.337792,2.11251 -0.105267,2.55556 -0.443056,0.44305 -0.758188,-0.34445 -0.700293,-1.75 z m 25.333334,0 c 0.06397,-1.55327 0.379921,-1.8692 0.805556,-0.80556 0.385161,0.96249 0.337792,2.11251 -0.105267,2.55556 -0.443056,0.44305 -0.758188,-0.34445 -0.700293,-1.75 z m 468.000019,0 c 0.064,-1.55327 0.37992,-1.8692 0.80555,-0.80556 0.38516,0.96249 0.3378,2.11251 -0.1052,2.55556 -0.44305,0.44305 -0.75819,-0.34445 -0.70029,-1.75 z m 25.33334,0 c 0.064,-1.55327 0.37992,-1.8692 0.80555,-0.80556 0.38516,0.96249 0.3378,2.11251 -0.1052,2.55556 -0.44306,0.44305 -0.75819,-0.34445 -0.7003,-1.75 z M 12.210527,517.33332 c 0,-1.83334 0.302631,-2.58334 0.672514,-1.66667 0.369884,0.91667 0.369884,2.41667 0,3.33333 -0.369883,0.91667 -0.672514,0.16667 -0.672514,-1.66666 z m 25.333335,0 c 0,-1.83334 0.30263,-2.58334 0.672514,-1.66667 0.369883,0.91667 0.369883,2.41667 0,3.33333 -0.369884,0.91667 -0.672514,0.16667 -0.672514,-1.66666 z m 470.666678,0 c 0,-1.83334 0.30264,-2.58334 0.67252,-1.66667 0.36988,0.91667 0.36988,2.41667 0,3.33333 -0.36988,0.91667 -0.67252,0.16667 -0.67252,-1.66666 z m 25.33334,0 c 0,-1.83334 0.30264,-2.58334 0.67252,-1.66667 0.36988,0.91667 0.36988,2.41667 0,3.33333 -0.36988,0.91667 -0.67252,0.16667 -0.67252,-1.66666 z M 362.4966,513.66665 c -1.65849,-2.11475 -1.61133,-2.16191 0.50342,-0.50341 2.221,1.74182 2.9273,2.83674 1.82992,2.83674 -0.27687,0 -1.32687,-1.05 -2.33334,-2.33333 z M 10.877193,505.33332 c 0,-1.83334 0.302632,-2.58334 0.672515,-1.66667 0.369883,0.91667 0.369883,2.41667 0,3.33333 -0.369883,0.91667 -0.672515,0.16667 -0.672515,-1.66666 z m 25.333335,0 c 0,-1.83334 0.302631,-2.58334 0.672515,-1.66667 0.369883,0.91667 0.369883,2.41667 0,3.33333 -0.369884,0.91667 -0.672515,0.16667 -0.672515,-1.66666 z m 319.619412,0.33333 c -1.6585,-2.11475 -1.61134,-2.16191 0.50341,-0.50341 2.221,1.74182 2.92731,2.83674 1.82992,2.83674 -0.27687,0 -1.32687,-1.05 -2.33333,-2.33333 z m 153.71394,-0.33333 c 0,-1.83334 0.30264,-2.58334 0.67252,-1.66667 0.36988,0.91667 0.36988,2.41667 0,3.33333 -0.36988,0.91667 -0.67252,0.16667 -0.67252,-1.66666 z m 25.33333,0 c 0,-1.83334 0.30264,-2.58334 0.67252,-1.66667 0.36988,0.91667 0.36988,2.41667 0,3.33333 -0.36988,0.91667 -0.67252,0.16667 -0.67252,-1.66666 z M 348.54,496.99998 l -2.53999,-3 3,2.53999 c 1.65,1.39699 3.00001,2.74699 3.00001,3 0,1.067 -1.07306,0.27927 -3.46002,-2.53999 z M 196.00001,496.8299 c 0,-0.27686 1.05,-1.32686 2.33333,-2.33333 2.11475,-1.65849 2.16191,-1.61133 0.50342,0.50341 -1.74183,2.221 -2.83675,2.92731 -2.83675,1.82992 z m 183.82993,-1.82992 c -1.6585,-2.11474 -1.61134,-2.1619 0.50341,-0.50341 2.221,1.74183 2.92731,2.83675 1.82992,2.83675 -0.27687,0 -1.32687,-1.05 -2.33333,-2.33334 z M 9.6426707,490.66665 c 0,-2.56667 0.2743937,-3.61667 0.6097633,-2.33333 0.335371,1.28333 0.335371,3.38333 0,4.66666 -0.3353696,1.28334 -0.6097633,0.23334 -0.6097633,-2.33333 z M 34.9266,491.33332 c 0.02717,-2.2 0.325998,-2.93859 0.664056,-1.6413 0.338058,1.2973 0.315826,3.0973 -0.0494,4 -0.365236,0.90271 -0.641829,-0.1587 -0.614656,-2.3587 z m 476.00002,0 c 0.0272,-2.2 0.326,-2.93859 0.66406,-1.6413 0.33805,1.2973 0.31582,3.0973 -0.0495,4 -0.36524,0.90271 -0.64183,-0.1587 -0.61465,-2.3587 z m 25.38274,-0.66667 c 0,-2.56667 0.2744,-3.61667 0.60977,-2.33333 0.33536,1.28333 0.33536,3.38333 0,4.66666 -0.33537,1.28334 -0.60977,0.23334 -0.60977,-2.33333 z m -163.14609,-3.66667 c -1.65849,-2.11474 -1.61133,-2.1619 0.50341,-0.50341 2.221,1.74183 2.92731,2.83675 1.82992,2.83675 -0.27686,0 -1.32686,-1.05 -2.33333,-2.33334 z m -165.16326,-3.66666 c 2.48771,-2.56667 4.82311,-4.66667 5.18977,-4.66667 0.36667,0 -1.36873,2.1 -3.85644,4.66667 -2.4877,2.56666 -4.8231,4.66666 -5.18977,4.66666 -0.36667,0 1.36873,-2.1 3.85644,-4.66666 z m -36,2.82992 c 0,-0.27687 1.05,-1.32687 2.33333,-2.33334 2.11475,-1.65849 2.16191,-1.61133 0.50341,0.50342 -1.74182,2.221 -2.83674,2.9273 -2.83674,1.82992 z m 152.64394,-14.49659 -14.64394,-15 15,14.64394 c 8.25,8.05415 15,14.80415 15,14.99999 0,0.96152 -1.75421,-0.71134 -15.35606,-14.64393 z m 39.25515,4.66667 -3.23242,-3.66667 3.66667,3.23241 c 3.42705,3.02119 4.27812,4.10092 3.23241,4.10092 -0.23882,0 -1.88882,-1.65 -3.66666,-3.66666 z m -183.23243,-0.33334 c 1.32732,-1.46666 2.71331,-2.66666 3.07998,-2.66666 0.36666,0 -0.41932,1.2 -1.74664,2.66666 -1.32732,1.46667 -2.71331,2.66667 -3.07998,2.66667 -0.36666,0 0.41932,-1.2 1.74664,-2.66667 z m -146.970183,-4 c 0,-3.29999 0.260021,-4.64999 0.577825,-2.99999 0.317804,1.65 0.317804,4.34999 0,5.99999 -0.317804,1.65 -0.577825,0.3 -0.577825,-3 z m 478.666683,0 c 0,-3.29999 0.26003,-4.64999 0.57783,-2.99999 0.31781,1.65 0.31781,4.34999 0,5.99999 -0.3178,1.65 -0.57783,0.3 -0.57783,-3 z m 25.33333,-1.33333 c 0,-3.3 0.26003,-4.65 0.57783,-3 0.31781,1.65 0.31781,4.35 0,6 -0.3178,1.65 -0.57783,0.3 -0.57783,-3 z M 8.3631525,469.33332 c 0,-3.3 0.2600213,-4.65 0.5778252,-3 0.3178039,1.65 0.3178039,4.35 0,6 -0.3178039,1.65 -0.5778252,0.3 -0.5778252,-3 z m 195.6368575,-18 c 8.40941,-8.43333 15.58984,-15.33333 15.95651,-15.33333 0.36666,0 -6.21376,6.9 -14.62318,15.33333 -8.40941,8.43333 -15.58984,15.33333 -15.95651,15.33333 -0.36666,0 6.21377,-6.9 14.62318,-15.33333 z m 138.62112,2.33333 -7.28778,-7.66666 7.66666,7.28778 c 4.21667,4.00828 7.66667,7.45828 7.66667,7.66667 0,0.98967 -1.27496,-0.16521 -8.04555,-7.28779 z m -109.28779,4.58279 c 0,-0.22947 1.95,-2.17947 4.33334,-4.33333 l 4.33333,-3.91612 -3.91612,4.33333 c -3.65037,4.03928 -4.75055,4.9462 -4.75055,3.91612 z m 64.53999,-11.91612 -2.53998,-3 3,2.53999 c 2.81925,2.38696 3.60698,3.46001 2.53998,3.46001 -0.25301,0 -1.60301,-1.35 -3,-3 z m 215.96904,-12.33333 c 0.003,-8.8 0.21843,-12.2265 0.47953,-7.61442 0.26111,4.61207 0.25896,11.81207 -0.005,16 -0.26375,4.18792 -0.47737,0.41442 -0.47475,-8.38558 z m -481.258746,-24 c -7.15e-4,-19.8 0.184843,-28.08587 0.412351,-18.41306 0.227508,9.67283 0.228092,25.87283 0.0013,36 -0.226794,10.12719 -0.412936,2.21306 -0.413651,-17.58694 z m 215.416386,34.82992 c 0,-0.27687 1.05,-1.32687 2.33333,-2.33334 2.11475,-1.65849 2.16191,-1.61133 0.50342,0.50342 -1.74183,2.221 -2.83675,2.9273 -2.83675,1.82992 z m 291.2516,-35.49659 c 0,-20.16667 0.18532,-28.41667 0.41184,-18.33333 0.22651,10.08333 0.22651,26.58333 0,36.66666 -0.22652,10.08334 -0.41184,1.83334 -0.41184,-18.33333 z M 7.2447387,409.99999 c -8.143e-4,-18.33334 0.1869736,-26.01827 0.4173062,-17.07763 0.2303325,8.94065 0.2309986,23.94065 0.00148,33.33333 -0.229518,9.3927 -0.4179721,2.07763 -0.4187862,-16.2557 z m 279.9619313,27 -2.53999,-3 3,2.53998 c 2.81925,2.38696 3.60699,3.46002 2.53999,3.46002 -0.25302,0 -1.60302,-1.35 -3,-3 z m -31.20666,1.16325 c 0,-0.27687 1.05,-1.32687 2.33333,-2.33333 2.11475,-1.6585 2.16191,-1.61134 0.50342,0.50341 -1.74183,2.221 -2.83675,2.92731 -2.83675,1.82992 z m 63.89908,-5.82992 -3.23241,-3.66667 3.66667,3.23242 c 3.42705,3.02118 4.27812,4.10092 3.23241,4.10092 -0.23883,0 -1.88883,-1.65 -3.66667,-3.66667 z m -91.89908,-3.50341 c 0,-0.27687 1.05,-1.32687 2.33333,-2.33334 2.11475,-1.65849 2.16191,-1.61133 0.50342,0.50342 -1.74183,2.221 -2.83675,2.9273 -2.83675,1.82992 z m 79.82992,-7.16326 c -1.65849,-2.11474 -1.61133,-2.1619 0.50342,-0.50341 2.221,1.74183 2.9273,2.83675 1.82992,2.83675 -0.27687,0 -1.32687,-1.05 -2.33334,-2.33334 z m -70.49659,-0.83674 c 0,-0.27687 1.05,-1.32687 2.33334,-2.33334 2.11474,-1.65849 2.1619,-1.61133 0.50341,0.50342 -1.74183,2.221 -2.83675,2.9273 -2.83675,1.82992 z m 6.66667,-5.33334 c 0,-0.27686 1.05,-1.32686 2.33333,-2.33333 2.11475,-1.65849 2.16191,-1.61133 0.50342,0.50341 -1.74183,2.221 -2.83675,2.92731 -2.83675,1.82992 z m 54.49659,-1.82992 c -1.65849,-2.11474 -1.61133,-2.1619 0.50341,-0.50341 1.28334,1.00647 2.33334,2.05647 2.33334,2.33333 0,1.09739 -1.09492,0.39108 -2.83675,-1.82992 z m 215.36284,-26.33333 c 0.003,-10.26667 0.21137,-14.29041 0.4651,-8.94167 0.25374,5.34875 0.25203,13.74875 -0.004,18.66667 -0.25558,4.91792 -0.46318,0.54167 -0.4611,-9.725 z m -242.19276,9.11696 c 0.91666,-0.36988 2.41667,-0.36988 3.33333,0 0.91667,0.36988 0.16667,0.67252 -1.66667,0.67252 -1.83333,0 -2.58333,-0.30264 -1.66666,-0.67252 z M 88.579556,323.99999 c 0,-18.7 0.187526,-26.35 0.416726,-17 0.2292,9.35 0.2292,24.65 0,34 -0.2292,9.35 -0.416726,1.7 -0.416726,-17 z m 369.333344,0 c 0,-18.7 0.18753,-26.35 0.41673,-17 0.2292,9.35 0.2292,24.65 0,34 -0.2292,9.35 -0.41673,1.7 -0.41673,-17 z m -319.49623,29.75585 c 0.9625,-0.38516 2.1125,-0.3378 2.55556,0.1052 0.44306,0.44306 -0.34445,0.75819 -1.75,0.7003 -1.55326,-0.064 -1.8692,-0.37992 -0.80556,-0.80555 z m 268.00001,0 c 0.9625,-0.38516 2.11251,-0.3378 2.55556,0.1052 0.44306,0.44306 -0.34445,0.75819 -1.75,0.7003 -1.55326,-0.064 -1.8692,-0.37992 -0.80556,-0.80555 z M 8.4131593,345.99999 c 0.00748,-4.4 0.2564009,-6.03925 0.5531495,-3.64279 0.2967485,2.39647 0.2906255,5.99647 -0.013607,8 -0.3042323,2.00354 -0.5470265,0.0428 -0.5395425,-4.35721 z m 138.2535107,5.49659 c 0,-0.27687 1.05,-1.32687 2.33334,-2.33334 2.11474,-1.65849 2.1619,-1.61133 0.50341,0.50342 -1.74183,2.221 -2.83675,2.9273 -2.83675,1.82992 z m 250.4966,-1.82992 c -1.65849,-2.11475 -1.61133,-2.16191 0.50341,-0.50342 2.221,1.74183 2.92731,2.83675 1.82992,2.83675 -0.27686,0 -1.32686,-1.05 -2.33333,-2.33333 z M 33.732887,343.99999 c 0,-4.03333 0.249954,-5.68333 0.555453,-3.66667 0.3055,2.01667 0.3055,5.31667 0,7.33334 -0.305499,2.01666 -0.555453,0.36666 -0.555453,-3.66667 z M 537.7329,342.66666 c 0,-4.03334 0.24996,-5.68334 0.55546,-3.66667 0.3055,2.01667 0.3055,5.31667 0,7.33333 -0.3055,2.01667 -0.55546,0.36667 -0.55546,-3.66666 z m -25.33333,-1.33334 c 0,-4.03333 0.24996,-5.68333 0.55545,-3.66666 0.30551,2.01666 0.30551,5.31666 0,7.33333 -0.30549,2.01667 -0.55545,0.36667 -0.55545,-3.66667 z m -385.1705,-24 c 0,-15.03333 0.19445,-21.18333 0.43211,-13.66666 0.23766,7.51666 0.23766,19.81666 0,27.33333 -0.23766,7.51667 -0.43211,1.36667 -0.43211,-13.66667 z m 292,0 c 0,-15.03333 0.19445,-21.18333 0.43212,-13.66666 0.23767,7.51666 0.23767,19.81666 0,27.33333 -0.23767,7.51667 -0.43212,1.36667 -0.43212,-13.66667 z m -266.66881,-0.66666 c -0.001,-14.66667 0.19363,-20.84859 0.43289,-13.73759 0.23927,7.11099 0.24024,19.11099 0.003,26.66667 -0.23809,7.55566 -0.43387,1.73758 -0.43504,-12.92908 z m 241.33334,0 c -10e-4,-14.66667 0.19363,-20.84859 0.4329,-13.73759 0.23926,7.11099 0.24024,19.11099 0.003,26.66667 -0.23809,7.55566 -0.43386,1.73758 -0.43504,-12.92908 z m -200.02027,20.33333 -2.53999,-3 3,2.53999 c 2.81926,2.38696 3.60699,3.46001 2.53999,3.46001 -0.25301,0 -1.60301,-1.35 -3,-3 z m 157.46002,0.33333 c 1.32732,-1.46666 2.71331,-2.66666 3.07997,-2.66666 0.36667,0 -0.41932,1.2 -1.74664,2.66666 -1.32732,1.46667 -2.71331,2.66667 -3.07997,2.66667 -0.36667,0 0.41932,-1.2 1.74664,-2.66667 z M 9.6964859,318.66666 c 0,-3.3 0.2600213,-4.65 0.5778251,-3 0.317804,1.65 0.317804,4.35 0,6 -0.3178038,1.65 -0.5778251,0.3 -0.5778251,-3 z M 35.02982,317.33332 c 0,-3.3 0.260022,-4.65 0.577826,-3 0.317804,1.65 0.317804,4.35 0,6 -0.317804,1.65 -0.577826,0.3 -0.577826,-3 z m 476.00002,-1.33333 c 0,-3.3 0.26002,-4.65 0.57782,-3 0.31782,1.65 0.31782,4.35 0,6 -0.3178,1.65 -0.57782,0.3 -0.57782,-3 z m 25.30642,0.66667 c 0.0148,-2.93334 0.28786,-3.97634 0.60678,-2.31779 0.31892,1.65855 0.30681,4.05855 -0.0269,5.33333 -0.33372,1.27479 -0.59466,-0.0823 -0.57986,-3.01554 z M 10.976004,297.33332 c 0,-2.56666 0.274394,-3.61666 0.609764,-2.33333 0.33537,1.28333 0.33537,3.38333 0,4.66667 -0.33537,1.28333 -0.609764,0.23333 -0.609764,-2.33334 z m 524.026926,-0.66666 c 0.0148,-2.93334 0.28785,-3.97634 0.60677,-2.31779 0.31892,1.65855 0.30682,4.05855 -0.0269,5.33333 -0.33372,1.27479 -0.59467,-0.0823 -0.57987,-3.01554 z M 36.309339,295.99999 c 0,-2.56667 0.274393,-3.61667 0.609764,-2.33333 0.335369,1.28333 0.335369,3.38333 0,4.66666 -0.335371,1.28334 -0.609764,0.23334 -0.609764,-2.33333 z m 473.333351,0 c 0,-2.56667 0.2744,-3.61667 0.60977,-2.33333 0.33536,1.28333 0.33536,3.38333 0,4.66666 -0.33537,1.28334 -0.60977,0.23334 -0.60977,-2.33333 z M 1.6426703,273.33332 c 0,-2.56666 0.2743938,-3.61666 0.6097638,-2.33333 0.3353701,1.28333 0.3353701,3.38333 0,4.66667 -0.33537,1.28333 -0.6097638,0.23333 -0.6097638,-2.33334 z m 542.6666897,0 c 0,-2.56666 0.2744,-3.61666 0.60977,-2.33333 0.33536,1.28333 0.33536,3.38333 0,4.66667 -0.33537,1.28333 -0.60977,0.23333 -0.60977,-2.33334 z M 25.714686,252.66666 c 0.01,-3.66667 0.268951,-5.00841 0.575423,-2.98167 0.306473,2.02675 0.298283,5.02675 -0.0182,6.66667 -0.316483,1.63992 -0.567232,-0.0183 -0.557223,-3.685 z m 494.666684,0 c 0.0107,-3.66667 0.26896,-5.00841 0.57543,-2.98167 0.30648,2.02675 0.29828,5.02675 -0.0181,6.66667 -0.31648,1.63992 -0.56722,-0.0183 -0.55722,-3.685 z M 0.39955226,249.33333 c 0,-4.03334 0.24995417,-5.68334 0.5554537,-3.66667 0.30549954,2.01667 0.30549954,5.31667 0,7.33333 -0.30549953,2.01667 -0.5554537,0.36667 -0.5554537,-3.66666 z m 545.33334774,0 c 0,-4.03334 0.24996,-5.68334 0.55546,-3.66667 0.3055,2.01667 0.3055,5.31667 0,7.33333 -0.3055,2.01667 -0.55546,0.36667 -0.55546,-3.66666 z m -0.0183,-40.66667 c 0.0107,-3.66667 0.26896,-5.00841 0.57542,-2.98167 0.30648,2.02675 0.29828,5.02675 -0.0181,6.66667 -0.31648,1.63992 -0.56723,-0.0183 -0.55723,-3.685 z M 0.36315216,207.99999 c 0,-3.3 0.26002135,-4.65 0.57782523,-3 0.31780391,1.65 0.31780391,4.35 0,6 -0.31780388,1.65 -0.57782523,0.3 -0.57782523,-3 z M 25.696486,205.33333 c 0,-3.3 0.260022,-4.65 0.577826,-3 0.317804,1.65 0.317804,4.35 0,6 -0.317804,1.65 -0.577826,0.3 -0.577826,-3 z m 494.666684,0 c 0,-3.3 0.26003,-4.65 0.57783,-3 0.31781,1.65 0.31781,4.35 0,6 -0.3178,1.65 -0.57783,0.3 -0.57783,-3 z m -518.8193103,-16 c 0,-1.83334 0.3026316,-2.58334 0.6725147,-1.66667 0.369883,0.91667 0.369883,2.41667 0,3.33333 -0.3698831,0.91667 -0.6725147,0.16667 -0.6725147,-1.66666 z m 25.3333343,0 c 0,-1.83334 0.302631,-2.58334 0.672515,-1.66667 0.369883,0.91667 0.369883,2.41667 0,3.33333 -0.369884,0.91667 -0.672515,0.16667 -0.672515,-1.66666 z m 492.000016,0 c 0,-1.83334 0.30264,-2.58334 0.67252,-1.66667 0.36988,0.91667 0.36988,2.41667 0,3.33333 -0.36988,0.91667 -0.67252,0.16667 -0.67252,-1.66666 z m 25.33333,0 c 0,-1.83334 0.30264,-2.58334 0.67252,-1.66667 0.36988,0.91667 0.36988,2.41667 0,3.33333 -0.36988,0.91667 -0.67252,0.16667 -0.67252,-1.66666 z M 2.77193,177.88889 c 0.063979,-1.55327 0.3799204,-1.8692 0.8055555,-0.80556 0.3851608,0.96249 0.3377924,2.11249 -0.1052627,2.55556 -0.4430556,0.44305 -0.7581872,-0.34446 -0.7002928,-1.75 z m 25.333334,0 c 0.06397,-1.55327 0.379921,-1.8692 0.805556,-0.80556 0.385161,0.96249 0.337792,2.11249 -0.105267,2.55556 -0.443056,0.44305 -0.758188,-0.34446 -0.700293,-1.75 z m 489.333356,0 c 0.064,-1.55327 0.37992,-1.8692 0.80555,-0.80556 0.38516,0.96249 0.3378,2.11249 -0.1052,2.55556 -0.44305,0.44305 -0.75819,-0.34446 -0.70029,-1.75 z m 25.33334,0 c 0.064,-1.55327 0.37992,-1.8692 0.80554,-0.80556 0.38516,0.96249 0.3378,2.11249 -0.1052,2.55556 -0.44305,0.44305 -0.75818,-0.34446 -0.70029,-1.75 z M 75.025379,176.40934 c 1.29729,-0.33805 3.09729,-0.31583 4,0.0495 0.90271,0.36524 -0.158709,0.64182 -2.358709,0.61465 -2.2,-0.0272 -2.938582,-0.326 -1.641291,-0.66405 z M 4.1052634,168.55555 c 0.063979,-1.55326 0.3799204,-1.8692 0.8055555,-0.80556 0.3851608,0.9625 0.3377924,2.11251 -0.1052627,2.55556 -0.4430556,0.44306 -0.7581872,-0.34445 -0.7002928,-1.75 z m 537.3333566,0 c 0.064,-1.55326 0.37992,-1.8692 0.80555,-0.80556 0.38516,0.9625 0.3378,2.11251 -0.1052,2.55556 -0.44305,0.44306 -0.75819,-0.34445 -0.70029,-1.75 z M 88.259936,164.66666 c 0.02717,-2.2 0.325997,-2.93859 0.664056,-1.64129 0.338057,1.29729 0.315825,3.09729 -0.0494,4 -0.365236,0.9027 -0.64183,-0.15871 -0.614656,-2.35871 z M 64.105265,149.88889 c 0.06397,-1.55327 0.379922,-1.8692 0.805556,-0.80556 0.385162,0.96249 0.337792,2.11249 -0.105266,2.55556 -0.443056,0.44305 -0.758188,-0.34445 -0.700294,-1.75 z m 25.333335,0 c 0.06397,-1.55327 0.379921,-1.8692 0.805556,-0.80556 0.385161,0.96249 0.337792,2.11249 -0.105267,2.55556 -0.443056,0.44305 -0.758188,-0.34445 -0.700293,-1.75 z m 29.22807,-51.725633 c 0,-0.276875 1.05,-1.326875 2.33334,-2.333333 2.11474,-1.658495 2.1619,-1.611335 0.5034,0.503406 -1.74182,2.220998 -2.83674,2.927306 -2.83674,1.829927 z M 95.944281,84.999997 c 3.269353,-3.483333 6.119349,-6.333333 6.333339,-6.333333 1.00118,0 -0.0574,1.197103 -5.944283,6.722389 l -6.333333,5.944277 z m 67.805729,-8.577485 c 0.96249,-0.385161 2.11249,-0.337792 2.55556,0.105267 0.44305,0.443056 -0.34446,0.758188 -1.75,0.700293 -1.55327,-0.06397 -1.8692,-0.379921 -0.80556,-0.805556 z m 22.25,-4.422514 c 1.32732,-1.466667 2.7133,-2.666667 3.07997,-2.666667 0.36667,0 -0.41932,1.2 -1.74664,2.666667 -1.32732,1.466666 -2.71331,2.666666 -3.07997,2.666666 -0.36667,0 0.41932,-1.2 1.74664,-2.666666 z M 75.333337,62.666665 c 1.327314,-1.466667 2.7133,-2.666667 3.079966,-2.666667 0.366667,0 -0.419318,1.2 -1.746633,2.666667 -1.327315,1.466666 -2.7133,2.666666 -3.079967,2.666666 -0.366667,0 0.419319,-1.2 1.746634,-2.666666 z m 394.540003,-0.333334 -2.53999,-3 3,2.539984 c 1.65,1.396991 3,2.746991 3,3 0,1.067004 -1.07305,0.279276 -3.46001,-2.539984 z M 259.75001,61.755846 c 0.96249,-0.385161 2.11249,-0.337792 2.55556,0.105267 0.44305,0.443056 -0.34445,0.758188 -1.75,0.700293 -1.55327,-0.06397 -1.8692,-0.379921 -0.80556,-0.805556 z m 25.33334,0 c 0.96249,-0.385161 2.11249,-0.337792 2.55556,0.105267 0.44305,0.443056 -0.34446,0.758188 -1.75,0.700293 -1.55327,-0.06397 -1.8692,-0.379921 -0.80556,-0.805556 z M 155.75001,52.422513 c 0.96249,-0.385161 2.11249,-0.337792 2.55556,0.105267 0.44305,0.443056 -0.34446,0.758188 -1.75,0.700293 -1.55327,-0.06397 -1.8692,-0.379921 -0.80556,-0.805556 z M 52.000002,51.496592 c 0,-0.276875 1.05,-1.326875 2.333334,-2.333334 2.114741,-1.658494 2.161901,-1.611334 0.503406,0.503407 -1.741825,2.220997 -2.83674,2.927305 -2.83674,1.829927 z m 34.666668,0 c 0,-0.276875 1.05,-1.326875 2.333334,-2.333334 2.114741,-1.658494 2.161901,-1.611334 0.503406,0.503407 -1.741825,2.220997 -2.83674,2.927305 -2.83674,1.829927 z m 78.33334,-0.379635 c 0.91666,-0.369883 2.41666,-0.369883 3.33333,0 0.91667,0.369884 0.16667,0.672515 -1.66667,0.672515 -1.83333,0 -2.58333,-0.302631 -1.66666,-0.672515 z m 292.16326,-1.450292 c -1.65849,-2.114741 -1.61133,-2.161901 0.50342,-0.503407 1.28333,1.006459 2.33333,2.056459 2.33333,2.333334 0,1.097378 -1.09492,0.39107 -2.83675,-1.829927 z m 34.66667,0 c -1.65849,-2.114741 -1.61133,-2.161901 0.50341,-0.503407 2.221,1.741826 2.92731,2.83674 1.82992,2.83674 -0.27686,0 -1.32686,-1.05 -2.33333,-2.333333 z M 64.000003,37.999999 c 1.722326,-1.833333 3.431504,-3.333333 3.798171,-3.333333 0.366666,0 -0.742511,1.5 -2.464838,3.333333 -1.722327,1.833333 -3.431504,3.333333 -3.798171,3.333333 -0.366666,0 0.742511,-1.5 2.464838,-3.333333 z m 417.232427,-0.333334 -3.23241,-3.666666 3.66667,3.232418 c 2.01666,1.777831 3.66666,3.427831 3.66666,3.666667 0,1.045699 -1.07973,0.194633 -4.10092,-3.232419 z m -210.89909,0.05902 c 1.65,-0.317804 4.35001,-0.317804 6.00001,0 1.65,0.317804 0.3,0.577825 -3.00001,0.577825 -3.3,0 -4.65,-0.260021 -3,-0.577825 z m -132,-11.942063 c 0.91667,-0.369883 2.41667,-0.369883 3.33333,0 0.91667,0.369884 0.16667,0.672514 -1.66666,0.672514 -1.83334,0 -2.58334,-0.30263 -1.66667,-0.672514 z m 22.75,-0.02777 c 0.96249,-0.385161 2.11249,-0.337792 2.55556,0.105267 0.44305,0.443056 -0.34445,0.758188 -1.75,0.700293 -1.55327,-0.06397 -1.8692,-0.379921 -0.80556,-0.805556 z m 222.66668,0 c 0.96249,-0.385161 2.1125,-0.337792 2.55556,0.105267 0.44305,0.443056 -0.34446,0.758188 -1.75,0.700293 -1.55327,-0.06397 -1.8692,-0.379921 -0.80556,-0.805556 z m 21.25,0.02777 c 0.91666,-0.369883 2.41666,-0.369883 3.33333,0 0.91667,0.369884 0.16667,0.672514 -1.66667,0.672514 -1.83333,0 -2.58333,-0.30263 -1.66666,-0.672514 z M 130.41667,1.7558479 c 0.9625,-0.3851607 2.1125,-0.3377923 2.55556,0.1052627 0.44306,0.4430556 -0.34445,0.7581872 -1.75,0.7002924 -1.55326,-0.063978 -1.8692,-0.37992 -0.80556,-0.8055551 z m 38.66667,0 c 0.96249,-0.3851607 2.11249,-0.3377923 2.55556,0.1052627 0.44305,0.4430556 -0.34445,0.7581872 -1.75,0.7002924 -1.55327,-0.063979 -1.8692,-0.3799204 -0.80556,-0.8055551 z m 206.66668,0 c 0.96249,-0.3851607 2.1125,-0.3377923 2.55556,0.1052627 0.44305,0.4430556 -0.34446,0.7581872 -1.75,0.7002924 -1.55327,-0.063979 -1.8692,-0.3799204 -0.80556,-0.8055551 z m 38.66666,0 c 0.9625,-0.3851607 2.11251,-0.3377923 2.55556,0.1052627 0.44306,0.4430556 -0.34445,0.7581872 -1.75,0.7002924 -1.55326,-0.063979 -1.8692,-0.3799204 -0.80556,-0.8055551 z M 140.35871,0.40934569 c 1.2973,-0.33805787 3.0973,-0.31582548 4,0.0494053 0.90271,0.36523078 -0.1587,0.64182361 -2.3587,0.61465071 -2.2,-0.027173 -2.93859,-0.32599815 -1.6413,-0.66405601 z m 19.30796,0.0409467 c 0.91667,-0.36988303 2.41667,-0.36988303 3.33334,0 0.91666,0.36988303 0.16666,0.67251461 -1.66667,0.67251461 -1.83333,0 -2.58333,-0.30263158 -1.66667,-0.67251461 z m 224.00001,0 c 0.91667,-0.36988303 2.41667,-0.36988303 3.33334,0 0.91666,0.36988303 0.16666,0.67251461 -1.66667,0.67251461 -1.83333,0 -2.58333,-0.30263158 -1.66667,-0.67251461 z m 19.35871,-0.0409467 c 1.29729,-0.33805787 3.09729,-0.31582548 4,0.0494053 0.90271,0.36523078 -0.15871,0.64182361 -2.35871,0.61465071 -2.2,-0.027173 -2.93858,-0.32599815 -1.64129,-0.66405601 z"
         style="fill-opacity:1;stroke-width:1.33333" />
      <path
         id="path258"
         d="M 70.66667,731.03064 C 66.219748,728.77796 65.635491,727.59931 58.25898,705.99998 30.572715,624.93119 13.824571,546.38489 9.3639203,476.68941 6.8297628,437.09444 7.9018826,346.58386 11.45062,300.52588 12.225632,290.46723 12.09816,289.67 9.6107909,289.01955 3.842023,287.51098 2.8443957,283.36008 1.2502033,254.23303 -4.9343898,141.23602 31.676184,49.798094 97.333337,14.257457 116.52999,3.8661856 143.79799,-1.5060693 163.05355,1.3094669 c 15.33146,2.2417538 25.08926,5.5813351 51.50191,17.6263871 56.05502,25.56295 61.50075,25.56295 117.55577,0 36.73095,-16.7505349 52.09196,-20.4050278 74.37876,-17.6952169 30.59871,3.7204419 56.65627,17.2777479 78.81683,41.0070479 43.49728,46.57647 65.0032,122.576775 60.08959,212.352065 -1.57303,28.74033 -2.58451,32.91457 -8.34051,34.4198 -2.49034,0.65124 -2.61386,1.43567 -1.81182,11.50633 3.56049,44.70708 4.64529,138.38821 2.05001,177.0347 -3.70292,55.14039 -15.25848,117.89948 -32.73255,177.77273 -5.45751,18.69966 -21.66972,68.27869 -23.43029,71.65287 -1.88223,3.60734 -8.81163,6.62921 -13.06111,5.69586 -6.24415,-1.37144 -8.70333,-5.83992 -14.68419,-26.68206 -23.34414,-81.34991 -54.98413,-148.88984 -90.199,-192.54229 -14.96699,-18.55311 -35.68392,-40.56473 -54.28095,-57.67317 -18.5296,-17.0464 -34.48917,-30.4512 -36.2548,-30.4512 -2.81039,0 -29.04828,22.98916 -49.41848,43.29955 -25.7806,25.70493 -40.41471,43.39779 -59.11442,71.4703 -29.30292,43.99036 -58.49414,112.64426 -72.946716,171.56111 -4.790359,19.5282 -10.164894,24.60431 -20.504914,19.36636 z m 406.79498,-71.16693 c 17.93158,-59.19541 29.86325,-118.81463 34.52869,-172.53039 3.48863,-40.16641 2.95514,-127.67982 -1.12168,-184 l -0.86864,-12 -13.66667,-0.37997 -13.66666,-0.37999 V 324.041 c 0,21.42408 -0.51843,34.43632 -1.44066,36.15952 -1.85732,3.47044 -9.91737,6.83735 -13.65721,5.70502 -1.59617,-0.4833 -4.25213,-2.11434 -5.90213,-3.62455 -2.96279,-2.71177 -3,-3.17296 -3,-37.18008 v -34.43425 h -20 -20.00001 v 28.06366 28.06367 l -3.52802,3.26967 c -5.02123,4.6535 -11.54016,4.4066 -16.57454,-0.62778 l -3.89744,-3.89742 V 318.10255 290.66666 H 375.4251 356.18351 l -0.42508,21.19742 c -0.38052,18.9752 -0.70464,21.50727 -3.09175,24.15302 -3.95843,4.3873 -8.30517,5.64233 -13.54857,3.91185 -7.33556,-2.42095 -8.45143,-6.27579 -8.45143,-29.19608 v -20.06621 h -57.33334 -57.33333 v 20.06621 c 0,22.92029 -1.11587,26.77513 -8.45143,29.19608 -5.2434,1.73048 -9.59014,0.47545 -13.54857,-3.91185 -2.38711,-2.64575 -2.71123,-5.17782 -3.09175,-24.15302 l -0.42508,-21.19742 h -19.24159 -19.24158 v 27.43589 27.43591 l -3.89744,3.89742 c -5.03438,5.03438 -11.55331,5.28128 -16.57453,0.62778 l -3.52803,-3.26967 V 318.73032 290.66666 H 108 88.000004 v 34.43425 c 0,34.00712 -0.03721,34.46831 -3,37.18008 -1.65,1.51021 -4.305958,3.14125 -5.902129,3.62455 -3.739842,1.13233 -11.799896,-2.23458 -13.657218,-5.70502 -0.922225,-1.7232 -1.440654,-14.73544 -1.440654,-36.15952 v -33.46764 l -13.666668,0.37999 -13.666667,0.37997 -0.839154,12 c -0.461536,6.6 -1.629501,34.01142 -2.595478,60.91424 -1.904861,53.05109 -0.553179,109.15472 3.479434,144.41909 4.524942,39.56972 14.219024,86.39662 27.797559,134.27509 11.024725,38.87361 8.985838,37.81471 18.724944,9.72491 24.459317,-70.54627 52.617767,-122.06339 92.919317,-170 23.22979,-27.63062 62.76853,-64.53776 86.99985,-81.20936 9.49672,-6.5339 12.83073,-5.84712 27.16183,5.59522 39.56462,31.58942 78.66714,71.80697 105.27875,108.28081 22.84506,31.31138 44.36042,74.97843 64.0667,130.02818 5.11345,14.28449 9.71093,27.69261 10.21661,29.79581 0.5057,2.1032 1.20155,3.54188 1.54636,3.19707 0.34482,-0.34481 3.06203,-8.66561 6.03826,-18.49067 z m 43.01591,-399.53038 c 1.58617,-9.59632 0.85216,-55.71414 -1.16062,-72.92083 C 512.61982,130.16055 493.89191,85.543212 464.12402,55.92092 451.42467,43.283691 439.03231,35.218938 423.95224,29.777778 c -8.80605,-3.177386 -11.94846,-3.601064 -27.28556,-3.678807 -19.95013,-0.10112 -22.87328,0.692253 -52,14.113458 -47.11501,21.709969 -64.18028,25.607406 -89.35536,20.40735 -12.51455,-2.58495 -21.88742,-6.122295 -48.97459,-18.483132 -34.21718,-15.614513 -36.0646,-16.140432 -56.33672,-16.037676 -15.3371,0.07774 -18.47951,0.501421 -27.28557,3.678807 C 107.63438,35.218938 95.242012,43.283691 82.542668,55.92092 52.77477,85.543212 34.046872,130.16055 27.349751,187.4125 c -2.012775,17.20669 -2.746794,63.32451 -1.160619,72.92083 l 0.826449,4.99999 H 273.33334 519.65112 Z M 69.217794,174.29093 c -5.370473,-4.12332 -6.390295,-11.52244 -3.807458,-27.62427 5.852587,-36.48597 30.108488,-68.531986 64.041344,-84.609083 18.59855,-8.811836 46.25065,-13.681808 54.23687,-9.551972 4.86248,2.514487 7.69312,9.449393 5.83783,14.302337 -2.42369,6.339685 -6.13517,8.202761 -18.52319,9.298184 -23.1364,2.045856 -39.45775,9.621849 -55.71378,25.861034 -16.486818,16.46973 -24.393822,33.81677 -26.68918,58.5529 -1.05158,11.33244 -4.349481,15.50336 -12.206287,15.43753 -2.783333,-0.0233 -6.012601,-0.77333 -7.176149,-1.66666 z"
         style="fill-opacity:1;stroke-width:1.33333" />
    </g>
  </g>
</svg>
