<?xml version="1.0" encoding="UTF-8" standalone="no"?>
<svg
   xmlns:dc="http://purl.org/dc/elements/1.1/"
   xmlns:cc="http://creativecommons.org/ns#"
   xmlns:rdf="http://www.w3.org/1999/02/22-rdf-syntax-ns#"
   xmlns:svg="http://www.w3.org/2000/svg"
   xmlns="http://www.w3.org/2000/svg"
   xmlns:sodipodi="http://sodipodi.sourceforge.net/DTD/sodipodi-0.dtd"
   xmlns:inkscape="http://www.inkscape.org/namespaces/inkscape"
   inkscape:version="1.0 (1.0+r73+1)"
   sodipodi:docname="parallax-circle.svg"
   viewBox="0 0 1004 1004.0001"
   height="1004.0001"
   width="1004"
   id="svg60"
   version="1.1">
  <g
     transform="translate(2607.5961,-11.44705)"
     id="g68"
     inkscape:label="Image"
     inkscape:groupmode="layer">
    <g
       transform="translate(-977.98826,-49.178911)"
       id="g72">
      <path
         id="path74"
         d="m -1158.2745,1063.8362 c -2.9333,-0.2899 -12.2333,-1.1761 -20.6666,-1.9695 -57.8914,-5.4463 -118.8725,-23.2104 -173.3334,-50.4927 -49.3271,-24.71056 -90.311,-54.36264 -130.0148,-94.06651 -82.5126,-82.51254 -131.8619,-186.06452 -144.883,-304.01486 -2.3012,-20.84524 -2.3012,-80.4881 0,-101.33334 13.0211,-117.95034 62.3704,-221.50232 144.883,-304.01486 82.5089,-82.50897 184.8195,-131.279684 304.0148,-144.921711 19.0585,-2.181261 82.2749,-2.181261 101.3334,0 119.18845,13.641243 221.37103,62.347081 304.03895,144.921711 66.02988,65.95536 111.85076,147.48556 133.26678,237.12478 9.99849,41.8499 13.30942,71.09403 13.30942,117.55675 0,20.28123 -0.73293,42.40395 -1.67861,50.66667 -13.63752,119.156 -62.46097,221.60238 -144.89759,304.03898 -80.88441,80.88443 -182.45045,130.08019 -297.37235,144.03889 -16.303,1.9802 -75.988,3.6525 -88,2.4657 z m 84.6667,-215.74188 c 11.666,-1.36477 18.6818,-3.06845 29.3333,-7.12313 28.3103,-10.77675 62.00759,-27.4817 82.6667,-40.98079 16.82039,-10.99079 60.36343,-54.54525 71.34573,-71.36444 14.29556,-21.8934 31.47976,-56.83555 41.65382,-84.69837 6.79341,-18.60459 8.93304,-38.07776 8.93304,-81.30163 0,-43.22387 -2.13963,-62.69704 -8.93304,-81.30163 -10.16555,-27.83952 -27.3234,-62.73428 -41.64646,-84.69837 -12.34541,-18.93145 -56.54912,-62.19177 -75.75144,-74.13479 -22.83873,-14.20472 -58.69555,-31.32453 -85.60165,-40.8705 -12.9655,-4.60003 -38.6927,-6.95408 -76,-6.95408 -37.3073,0 -63.0345,2.35405 -76,6.95408 -26.9061,9.54597 -62.7629,26.66578 -85.6017,40.8705 -19.2023,11.94302 -63.406,55.20334 -75.7514,74.13479 -14.323,21.96409 -31.4809,56.85885 -41.6464,84.69837 -6.7935,18.60459 -8.9331,38.07776 -8.9331,81.30163 0,43.22387 2.1396,62.69704 8.9331,81.30163 10.1655,27.83952 27.3234,62.73428 41.6464,84.69837 10.9358,16.76984 54.483,60.31944 71.3531,71.35707 21.3487,13.96781 57.2377,31.60901 84.8387,41.7023 12.4218,4.54247 17.0688,5.51796 32.4946,6.8212 9.9,0.8364 20.4,1.75024 23.3334,2.03078 10.3293,0.98785 64.1821,-0.6705 79.3333,-2.44299 z"
         style="fill:#f5f6f9;stroke-width:1.33333" />
    </g>
  </g>
</svg>
