<?xml version="1.0" encoding="UTF-8" standalone="no"?>
<svg
   xmlns:dc="http://purl.org/dc/elements/1.1/"
   xmlns:cc="http://creativecommons.org/ns#"
   xmlns:rdf="http://www.w3.org/1999/02/22-rdf-syntax-ns#"
   xmlns:svg="http://www.w3.org/2000/svg"
   xmlns="http://www.w3.org/2000/svg"
   xmlns:sodipodi="http://sodipodi.sourceforge.net/DTD/sodipodi-0.dtd"
   xmlns:inkscape="http://www.inkscape.org/namespaces/inkscape"
   inkscape:version="1.0 (1.0+r73+1)"
   sodipodi:docname="pdf-icon.svg"
   viewBox="0 0 680 706.66669"
   height="706.66669"
   width="680"
   id="svg250"
   version="1.1">
  <g
     transform="translate(969.36716)"
     id="g258"
     inkscape:label="Image"
     inkscape:groupmode="layer">
    <path
       id="path268"
       d="M -969.36713,452.17224 V 197.67778 l 8,-0.90509 c 4.4,-0.4978 46.46329,-0.8054 93.47398,-0.68356 83.03219,0.2152 85.57471,0.14677 88.99999,-2.39566 7.00778,-5.20152 6.84084,-2.87584 6.82088,-95.0268 -0.0107,-47.300002 0.37578,-88.850003 0.85783,-92.3333365 L -770.338,0 h 165.63754 165.63753 l 0.84791,6.1860953 c 0.46633,3.4023523 0.84789,59.1688957 0.84789,123.9256547 V 247.8513 l -3.21772,3.74103 -3.21772,3.74101 -218.23123,0.66667 -218.23123,0.66667 -3.21772,3.74101 c -1.92575,2.23895 -3.22867,5.45107 -3.24499,8 -0.015,2.34244 -0.0309,78.14583 -0.0354,168.45195 -0.006,119.81006 0.40162,165.09221 1.50763,167.51965 3.32703,7.30202 -8.47471,6.9015 224.55502,7.62073 118.8,0.36667 216.96873,1.14968 218.15273,1.74001 4.62069,2.30387 5.1806,7.07404 5.1806,44.13663 0,20.02982 -0.38156,39.20158 -0.84789,42.60394 l -0.84791,6.18609 h -265.15209 -265.15211 z m 429.77317,-254.93842 c 6.61691,-1.83739 8.8935,-7.04525 8.8935,-20.34451 0,-11.61322 -2.49558,-15.97562 -10.39399,-18.16928 -6.58528,-1.82894 -164.46775,-1.87321 -171.03836,-0.048 -2.62112,0.72812 -6.22112,2.87652 -8,4.7742 -2.86461,3.05594 -3.22744,4.63556 -3.17412,13.81922 0.0443,7.61937 0.68967,11.32954 2.43397,13.9917 4.83438,7.37819 3.85626,7.30131 93.50583,7.34984 54.44769,0.0295 84.40981,-0.43928 87.77317,-1.37322 z m -291.77317,370.96663 c -4.28945,-1.39476 -6.76076,-3.29654 -9.1955,-7.07635 -2.11381,-3.2816 -2.27681,-12.80995 -2.21247,-129.33334 0.0664,-120.19867 0.17901,-125.93894 2.53391,-129.12408 1.35545,-1.83334 3.90662,-4.0745 5.66926,-4.98035 2.51137,-1.29064 60.50324,-1.65127 268.01871,-1.66667 145.64764,-0.0107 267.59764,0.36191 271,0.82824 l 6.18609,0.84791 v 134.18226 134.18226 l -7.03904,1.6365 c -5.44628,1.26622 -66.46544,1.60644 -269.66667,1.50362 -144.4452,-0.0731 -263.82762,-0.5231 -265.29429,-1 z m 83.64563,-48.09323 4.35437,-3.89279 -0.42944,-21.44699 -0.42945,-21.447 3.99354,-3.99354 c 3.89268,-3.89267 4.32452,-3.99374 17.09612,-4.00099 7.2064,-0.004 15.50256,-0.66552 18.4359,-1.46984 8.88373,-2.43595 23.93949,-12.73206 31.93541,-21.83954 11.25256,-12.81682 12.04267,-15.30858 12.05451,-38.01652 0.012,-22.96697 -1.14698,-26.35782 -13.6819,-40.03036 -15.99742,-17.44929 -24.83506,-19.96964 -70.02405,-19.96964 h -33.15577 l -3.89743,3.89744 -3.89744,3.89743 v 80.83545 c 0,86.03306 0.0152,86.24961 6.33331,89.92954 1.28334,0.74748 7.87389,1.37731 14.64565,1.3996 11.74827,0.0387 12.51179,-0.13779 16.66667,-3.85225 z m 10.54686,-98.17811 c -4.57384,-3.31676 -6.85916,-9.97658 -6.85916,-19.98883 0,-8.04301 0.35446,-9.16651 4.06142,-12.87348 3.99225,-3.99225 4.24768,-4.05125 15,-3.46524 16.87962,0.91997 23.61202,6.05448 23.60026,17.99891 -0.0107,11.01456 -9.73096,18.91517 -24.62246,20.01337 -6.16163,0.4544 -8.77276,0.0609 -11.18006,-1.68473 z m 181.14084,100.20672 c 12.82284,-0.55504 22.1899,-3.59341 30.95851,-10.04192 8.082,-5.94357 20.4756,-22.0236 22.59815,-29.31988 2.54041,-8.73269 2.5327,-90.17463 -0.009,-98.91479 -2.04969,-7.04724 -15.03506,-23.73137 -23.06833,-29.63911 -12.02957,-8.84665 -15.43447,-9.45009 -56.15405,-9.95213 l -37.00843,-0.45628 -3.99157,3.99158 -3.99159,3.99158 v 81.25609 c 0,80.06319 0.0404,81.30742 2.75055,84.75285 1.51281,1.92321 4.66281,4.01306 7,4.64412 3.88885,1.05 32.87974,0.90146 60.91612,-0.31211 z m -23.39393,-44.07521 c -1.8,-1.8 -3.35117,-4.05 -3.44704,-5 -0.0959,-0.95 -0.29427,-18.52727 -0.44089,-39.06061 -0.28135,-39.4036 0.31696,-44.31941 5.748,-47.22601 4.39528,-2.35228 18.85622,-1.68975 25.1121,1.15052 9.81194,4.45476 10.36022,6.66451 10.84051,43.69012 0.38935,30.01443 0.22953,32.70906 -2.2758,38.37276 -3.52339,7.9652 -10.30975,11.27499 -23.20355,11.31667 -7.86372,0.0255 -9.49293,-0.40304 -12.33333,-3.24345 z m 153.57121,43.57641 c 5.34884,-4.33272 5.96675,-7.44731 5.63108,-28.38353 l -0.32088,-20.0137 3.61747,-3.61989 c 3.54995,-3.55232 3.99896,-3.63233 24.05465,-4.28656 22.3271,-0.72832 23.81291,-1.22037 27.04694,-8.95717 2.19748,-5.25705 2.35153,-20.35919 0.25462,-24.96139 -3.08753,-6.77643 -6.85402,-7.91274 -26.51964,-8.00068 -24.12634,-0.10787 -27.16516,-1.97736 -28.74852,-17.68596 -0.96173,-9.54138 0.75067,-14.25348 6.44043,-17.72254 3.94327,-2.40421 6.73191,-2.66278 28.76612,-2.66728 27.5346,-0.005 31.11115,-0.9127 34.37216,-8.71738 1.04223,-2.4944 1.89496,-8.81456 1.89496,-14.04478 0,-9.03693 -0.22528,-9.73477 -4.53333,-14.04283 l -4.53334,-4.53333 h -49.23425 -49.23424 l -3.04597,3.24228 -3.04598,3.24229 0.0787,81.75771 c 0.0432,44.96675 0.10933,82.53499 0.14688,83.48499 0.0376,0.95 1.54101,3.2 3.34101,5 3.05564,3.05566 4.18324,3.27078 17,3.24308 10.98911,-0.0237 14.29455,-0.48916 16.57122,-2.33333 z m -522.95533,-365.3556 c -6.68895,-1.00846 -8.43948,-1.81609 -9.212,-4.25005 -1.28431,-4.04651 2.85217,-11.24226 10.44087,-18.16274 10.05116,-9.16611 70.64633,-69.339651 98.0532,-97.370936 18.17088,-18.584863 24.65029,-24.392927 28.04402,-25.138315 8.80295,-1.9334532 8.51535,-4.3083282 8.33815,68.852583 -0.14991,61.888508 -0.30465,65.934648 -2.64261,69.096338 -4.81876,6.51654 -5.29048,6.56368 -69.76123,6.97298 -33.38782,0.21196 -61.855,0.21202 -63.2604,1.4e-4 z"
       style="stroke-width:1.33333" />
  </g>
</svg>
