<?xml version="1.0" encoding="UTF-8" standalone="no"?>
<svg
   xmlns:dc="http://purl.org/dc/elements/1.1/"
   xmlns:cc="http://creativecommons.org/ns#"
   xmlns:rdf="http://www.w3.org/1999/02/22-rdf-syntax-ns#"
   xmlns:svg="http://www.w3.org/2000/svg"
   xmlns="http://www.w3.org/2000/svg"
   xmlns:sodipodi="http://sodipodi.sourceforge.net/DTD/sodipodi-0.dtd"
   xmlns:inkscape="http://www.inkscape.org/namespaces/inkscape"
   inkscape:version="1.0 (1.0+r73+1)"
   sodipodi:docname="stock-icon.svg"
   viewBox="0 0 532.82177 719.57935"
   height="719.57935"
   width="532.82178"
   id="svg130"
   version="1.1">
  <g
     transform="translate(696.14707,-6.307216)"
     id="g138"
     inkscape:label="Image"
     inkscape:groupmode="layer">
    <g
       transform="translate(-696.51022,6.145284)"
       id="g142">
      <path
         id="path146"
         d="m 157.33333,718.14265 c 0,-0.28821 0.93116,-0.88133 2.06925,-1.31806 1.18656,-0.45532 1.72176,-0.2318 1.25464,0.52401 -0.78301,1.26695 -3.32389,1.87393 -3.32389,0.79405 z m 215.34276,-0.79405 c -0.46712,-0.75581 0.0681,-0.97933 1.25464,-0.52401 2.30989,0.88638 2.73252,1.84208 0.81461,1.84208 -0.69005,0 -1.62122,-0.59314 -2.06925,-1.31807 z m -206.00943,-6.01527 c 2.48771,-2.56666 4.82311,-4.66666 5.18977,-4.66666 0.36667,0 -1.36873,2.1 -3.85644,4.66666 C 165.51229,713.9 163.17689,716 162.81022,716 c -0.36667,0 1.36873,-2.1 3.85644,-4.66667 z m 199.24944,0.33334 -3.91612,-4.33334 4.33334,3.91612 c 4.03928,3.65038 4.9462,4.75055 3.91612,4.75055 -0.22947,0 -2.17947,-1.95 -4.33334,-4.33333 z m -253.29956,-9.33334 -6.61654,-7 7,6.61655 c 6.50452,6.14821 7.61146,7.38345 6.61654,7.38345 -0.2109,0 -3.3609,-3.15 -7,-7 z m 306.71677,0.33334 C 422.94485,699 426.19974,696 426.56641,696 c 0.36666,0 -2.28823,3 -5.89976,6.66667 -3.61153,3.66666 -6.86643,6.66666 -7.23309,6.66666 -0.36667,0 2.28822,-3 5.89975,-6.66666 z m -275.58332,-7.57748 c 0.9625,-0.38516 2.1125,-0.3378 2.55556,0.1052 0.44306,0.44305 -0.34445,0.75818 -1.75,0.70029 -1.55326,-0.064 -1.8692,-0.37992 -0.80556,-0.80555 z m 5.58334,0.4074 c 0,-0.27687 1.05,-1.32687 2.33333,-2.33334 2.11475,-1.65849 2.16191,-1.61133 0.50341,0.50342 -1.74182,2.221 -2.83674,2.9273 -2.83674,1.82992 z m 242.66665,-1.35394 c 0,-0.28821 0.93116,-0.88133 2.06926,-1.31806 1.18656,-0.45532 1.72176,-0.2318 1.25464,0.52401 -0.78302,1.26695 -3.3239,1.87393 -3.3239,0.79405 z m -14.05482,-6.23136 c -0.48338,-0.78212 -0.59291,-1.708 -0.2434,-2.0575 0.34949,-0.34951 0.99074,0.29041 1.425,1.42204 0.90157,2.34948 0.1332,2.76274 -1.1816,0.63546 z m 24.72149,-0.4147 c 0,-0.27687 1.05,-1.32687 2.33333,-2.33334 2.11475,-1.65849 2.16191,-1.61133 0.50342,0.50342 -1.74183,2.221 -2.83675,2.9273 -2.83675,1.82992 z M 122.49659,679 c -1.6585,-2.11475 -1.61134,-2.16191 0.5034,-0.50341 1.28334,1.00646 2.33334,2.05646 2.33334,2.33333 0,1.09739 -1.09492,0.39108 -2.83674,-1.82992 z m 221.60866,-17.11111 c 0.064,-1.55326 0.37992,-1.8692 0.80555,-0.80556 0.38516,0.9625 0.3378,2.11251 -0.1052,2.55556 -0.44306,0.44306 -0.75819,-0.34445 -0.7003,-1.75 z M 84.611838,661.24463 c -0.483378,-0.78212 -0.592911,-1.708 -0.243407,-2.05751 0.349504,-0.34951 0.990755,0.29041 1.425001,1.42204 0.901579,2.34948 0.133134,2.76275 -1.181594,0.63547 z M 449.37415,658 c 0,-0.73333 0.58162,-2.23333 1.2925,-3.33333 0.71088,-1.1 1.29249,-1.4 1.29249,-0.66667 0,0.73333 -0.58161,2.23333 -1.29249,3.33333 -0.71088,1.1 -1.2925,1.4 -1.2925,0.66667 z m -83.93557,-12.11111 c 0.064,-1.55326 0.37992,-1.8692 0.80555,-0.80556 0.38516,0.9625 0.3378,2.11251 -0.1052,2.55556 -0.44305,0.44306 -0.75819,-0.34445 -0.70029,-1.75 z m -25.33333,-1.33333 c 0.064,-1.55327 0.37992,-1.8692 0.80555,-0.80556 0.38516,0.96249 0.3378,2.11251 -0.1052,2.55556 -0.44307,0.44305 -0.75819,-0.34445 -0.70029,-1.75 z m -1.33333,-6.66667 c 0.064,-1.55326 0.37992,-1.8692 0.80555,-0.80556 0.38516,0.9625 0.3378,2.11251 -0.1052,2.55556 -0.44307,0.44306 -0.75819,-0.34445 -0.7003,-1.75 z m 24,-4 c 0.064,-1.55326 0.37992,-1.8692 0.80554,-0.80556 0.38516,0.9625 0.3378,2.11251 -0.1052,2.55556 -0.44305,0.44306 -0.75818,-0.34445 -0.70029,-1.75 z m -165.33333,-2.66666 c 0.064,-1.55327 0.37992,-1.8692 0.80555,-0.80556 0.38516,0.96249 0.3378,2.1125 -0.1052,2.55556 -0.44307,0.44305 -0.75819,-0.34446 -0.7003,-1.75 z m 140,0 c 0.064,-1.55327 0.37992,-1.8692 0.80554,-0.80556 0.38516,0.96249 0.3378,2.1125 -0.1052,2.55556 -0.44306,0.44305 -0.75818,-0.34446 -0.70029,-1.75 z m -164,-4 c 0.064,-1.55327 0.37992,-1.8692 0.80555,-0.80556 0.38516,0.96249 0.3378,2.1125 -0.1052,2.55556 -0.44307,0.44305 -0.75819,-0.34446 -0.70029,-1.75 z m 187.99999,0 c 0.064,-1.55327 0.37992,-1.8692 0.80555,-0.80556 0.38516,0.96249 0.3378,2.1125 -0.1052,2.55556 -0.44305,0.44305 -0.75819,-0.34446 -0.70029,-1.75 z m -25.33333,-2.66667 c 0.064,-1.55327 0.37992,-1.8692 0.80555,-0.80556 0.38516,0.96249 0.3378,2.11251 -0.1052,2.55556 -0.44307,0.44305 -0.75819,-0.34445 -0.70029,-1.75 z m 24,-4 c 0.064,-1.55327 0.37992,-1.8692 0.80555,-0.80556 0.38516,0.96249 0.3378,2.11251 -0.1052,2.55556 -0.44306,0.44305 -0.75819,-0.34445 -0.7003,-1.75 z m -159.99999,-1.33333 c 0.064,-1.55327 0.37992,-1.8692 0.80554,-0.80556 0.38516,0.96249 0.3378,2.1125 -0.1052,2.55556 -0.44306,0.44305 -0.75818,-0.34446 -0.70029,-1.75 z m 134.66666,-1.33334 c 0.064,-1.55326 0.37992,-1.8692 0.80555,-0.80556 0.38516,0.9625 0.3378,2.11251 -0.1052,2.55556 -0.44307,0.44306 -0.75819,-0.34445 -0.7003,-1.75 z m -158.66666,-2.66666 c 0.064,-1.55327 0.37992,-1.8692 0.80555,-0.80556 0.38516,0.96249 0.3378,2.1125 -0.1052,2.55556 -0.44307,0.44305 -0.75819,-0.34446 -0.7003,-1.75 z m 182.66666,-1.33334 c 0.064,-1.55326 0.37992,-1.8692 0.80554,-0.80556 0.38516,0.9625 0.3378,2.11251 -0.1052,2.55556 -0.44305,0.44306 -0.75818,-0.34445 -0.70029,-1.75 z m -25.33333,-4 c 0.064,-1.55326 0.37992,-1.8692 0.80554,-0.80556 0.38516,0.9625 0.3378,2.11251 -0.1052,2.55556 -0.44306,0.44306 -0.75818,-0.34445 -0.70029,-1.75 z m -130.66667,-2.66666 c 0.064,-1.55327 0.37992,-1.8692 0.80555,-0.80556 0.38516,0.96249 0.3378,2.1125 -0.1052,2.55556 -0.44307,0.44305 -0.75819,-0.34446 -0.70029,-1.75 z m 154.66666,-1.33334 c 0.064,-1.55326 0.37992,-1.8692 0.80555,-0.80556 0.38516,0.9625 0.3378,2.11251 -0.1052,2.55556 -0.44305,0.44306 -0.75819,-0.34445 -0.70029,-1.75 z m -178.66665,-2.66666 c 0.064,-1.55327 0.37992,-1.8692 0.80554,-0.80556 0.38516,0.96249 0.3378,2.1125 -0.1052,2.55556 -0.44306,0.44305 -0.75818,-0.34446 -0.70029,-1.75 z m 153.33332,0 c 0.064,-1.55327 0.37992,-1.8692 0.80555,-0.80556 0.38516,0.96249 0.3378,2.1125 -0.1052,2.55556 -0.44307,0.44305 -0.75819,-0.34446 -0.70029,-1.75 z m -127.99999,-2.66667 c 0.064,-1.55327 0.37992,-1.8692 0.80554,-0.80556 0.38516,0.96249 0.3378,2.11251 -0.1052,2.55556 -0.44306,0.44305 -0.75818,-0.34445 -0.70029,-1.75 z m 151.99999,-1.33333 c 0.064,-1.55327 0.37992,-1.8692 0.80555,-0.80556 0.38516,0.96249 0.3378,2.1125 -0.1052,2.55556 -0.44306,0.44305 -0.75819,-0.34446 -0.7003,-1.75 z m -175.99999,-2.66667 c 0.064,-1.55327 0.37992,-1.8692 0.80555,-0.80556 0.38516,0.96249 0.3378,2.11251 -0.1052,2.55556 -0.44307,0.44305 -0.75819,-0.34445 -0.7003,-1.75 z m 150.66666,-1.33333 c 0.064,-1.55327 0.37992,-1.8692 0.80555,-0.80556 0.38516,0.96249 0.3378,2.1125 -0.1052,2.55556 -0.44307,0.44305 -0.75819,-0.34446 -0.7003,-1.75 z m -125.33333,-1.33334 c 0.064,-1.55326 0.37992,-1.8692 0.80555,-0.80556 0.38516,0.9625 0.3378,2.11251 -0.1052,2.55556 -0.44307,0.44306 -0.75819,-0.34445 -0.7003,-1.75 z m 149.33333,-2.66666 c 0.064,-1.55327 0.37992,-1.8692 0.80554,-0.80556 0.38516,0.96249 0.3378,2.1125 -0.1052,2.55556 -0.44305,0.44305 -0.75818,-0.34446 -0.70029,-1.75 z m -148,-4 c 0.064,-1.55327 0.37992,-1.8692 0.80555,-0.80556 0.38516,0.96249 0.3378,2.1125 -0.1052,2.55556 -0.44307,0.44305 -0.75819,-0.34446 -0.70029,-1.75 z m 122.66667,0 c 0.064,-1.55327 0.37992,-1.8692 0.80554,-0.80556 0.38516,0.96249 0.3378,2.1125 -0.1052,2.55556 -0.44306,0.44305 -0.75818,-0.34446 -0.70029,-1.75 z m 23.99999,-2.66667 c 0.064,-1.55327 0.37992,-1.8692 0.80555,-0.80556 0.38516,0.96249 0.3378,2.11251 -0.1052,2.55556 -0.44305,0.44305 -0.75819,-0.34445 -0.70029,-1.75 z m -145.33332,-4 c 0.064,-1.55327 0.37992,-1.8692 0.80554,-0.80556 0.38516,0.96249 0.3378,2.11251 -0.1052,2.55556 -0.44306,0.44305 -0.75818,-0.34445 -0.70029,-1.75 z m 119.99999,0 c 0.064,-1.55327 0.37992,-1.8692 0.80555,-0.80556 0.38516,0.96249 0.3378,2.11251 -0.1052,2.55556 -0.44307,0.44305 -0.75819,-0.34445 -0.70029,-1.75 z m 24,-4 c 0.064,-1.55327 0.37992,-1.8692 0.80555,-0.80556 0.38516,0.96249 0.3378,2.11251 -0.1052,2.55556 -0.44306,0.44305 -0.75819,-0.34445 -0.7003,-1.75 z m -142.66666,-2.66667 c 0.064,-1.55326 0.37992,-1.8692 0.80555,-0.80556 0.38516,0.9625 0.3378,2.11251 -0.1052,2.55556 -0.44307,0.44306 -0.75819,-0.34445 -0.7003,-1.75 z m 117.33333,-1.33333 c 0.064,-1.55327 0.37992,-1.8692 0.80555,-0.80556 0.38516,0.96249 0.3378,2.11251 -0.1052,2.55556 -0.44307,0.44305 -0.75819,-0.34445 -0.7003,-1.75 z m 24,-4 c 0.064,-1.55327 0.37992,-1.8692 0.80554,-0.80556 0.38516,0.96249 0.3378,2.11251 -0.1052,2.55556 -0.44305,0.44305 -0.75818,-0.34445 -0.70029,-1.75 z m -140,-1.33333 c 0.064,-1.55327 0.37992,-1.8692 0.80555,-0.80556 0.38516,0.96249 0.3378,2.1125 -0.1052,2.55556 -0.44307,0.44305 -0.75819,-0.34446 -0.70029,-1.75 z m 138.66666,-5.33334 c 0.064,-1.55326 0.37992,-1.8692 0.80555,-0.80556 0.38516,0.9625 0.3378,2.11251 -0.1052,2.55556 -0.44305,0.44306 -0.75819,-0.34445 -0.70029,-1.75 z m -25.33333,-4 c 0.064,-1.55326 0.37992,-1.8692 0.80555,-0.80556 0.38516,0.9625 0.3378,2.11251 -0.1052,2.55556 -0.44307,0.44306 -0.75819,-0.34445 -0.70029,-1.75 z m 24,-4 c 0.064,-1.55326 0.37992,-1.8692 0.80555,-0.80556 0.38516,0.9625 0.3378,2.11251 -0.1052,2.55556 -0.44306,0.44306 -0.75819,-0.34445 -0.7003,-1.75 z m -1.33333,-6.66666 c 0.064,-1.55327 0.37992,-1.8692 0.80554,-0.80556 0.38516,0.96249 0.3378,2.1125 -0.1052,2.55556 -0.44305,0.44305 -0.75818,-0.34446 -0.70029,-1.75 z m -25.33333,-4 c 0.064,-1.55327 0.37992,-1.8692 0.80554,-0.80556 0.38516,0.96249 0.3378,2.1125 -0.1052,2.55556 -0.44306,0.44305 -0.75818,-0.34446 -0.70029,-1.75 z m 23.99999,-4 c 0.064,-1.55327 0.37992,-1.8692 0.80555,-0.80556 0.38516,0.96249 0.3378,2.1125 -0.1052,2.55556 -0.44305,0.44305 -0.75819,-0.34446 -0.70029,-1.75 z m -153.33332,-1.33334 c 0.064,-1.55326 0.37992,-1.8692 0.80554,-0.80556 0.38516,0.9625 0.3378,2.11251 -0.1052,2.55556 -0.44306,0.44306 -0.75818,-0.34445 -0.70029,-1.75 z m 127.99999,-1.33333 c 0.064,-1.55327 0.37992,-1.8692 0.80555,-0.80556 0.38516,0.96249 0.3378,2.11251 -0.1052,2.55556 -0.44307,0.44305 -0.75819,-0.34445 -0.70029,-1.75 z m -102.66666,-1.33333 c 0.064,-1.55327 0.37992,-1.8692 0.80555,-0.80556 0.38516,0.96249 0.3378,2.1125 -0.1052,2.55556 -0.44307,0.44305 -0.75819,-0.34446 -0.7003,-1.75 z m 126.66666,-2.66667 c 0.064,-1.55327 0.37992,-1.8692 0.80555,-0.80556 0.38516,0.96249 0.3378,2.11251 -0.1052,2.55556 -0.44306,0.44305 -0.75819,-0.34445 -0.7003,-1.75 z m -150.66666,-1.33333 c 0.064,-1.55327 0.37992,-1.8692 0.80555,-0.80556 0.38516,0.96249 0.3378,2.1125 -0.1052,2.55556 -0.44307,0.44305 -0.75819,-0.34446 -0.7003,-1.75 z m 125.33333,-1.33334 c 0.064,-1.55326 0.37992,-1.8692 0.80555,-0.80556 0.38516,0.9625 0.3378,2.11251 -0.1052,2.55556 -0.44307,0.44306 -0.75819,-0.34445 -0.7003,-1.75 z m 173.33333,-2.66666 c 0.064,-1.55327 0.37992,-1.8692 0.80554,-0.80556 0.38516,0.96249 0.3378,2.1125 -0.1052,2.55556 -0.44305,0.44305 -0.75818,-0.34446 -0.70029,-1.75 z m -149.33333,-1.33334 c 0.064,-1.55326 0.37992,-1.8692 0.80554,-0.80556 0.38516,0.9625 0.3378,2.11251 -0.1052,2.55556 -0.44305,0.44306 -0.75818,-0.34445 -0.70029,-1.75 z m -25.33333,-2.66666 c 0.064,-1.55327 0.37992,-1.8692 0.80554,-0.80556 0.38516,0.96249 0.3378,2.1125 -0.1052,2.55556 -0.44306,0.44305 -0.75818,-0.34446 -0.70029,-1.75 z m -278.666662,-4 c 0.06397,-1.55327 0.379921,-1.8692 0.805556,-0.80556 0.385161,0.96249 0.337792,2.1125 -0.105267,2.55556 -0.443056,0.44305 -0.758188,-0.34446 -0.700293,-1.75 z m 302.666662,0 c 0.064,-1.55327 0.37992,-1.8692 0.80554,-0.80556 0.38516,0.96249 0.3378,2.1125 -0.1052,2.55556 -0.44305,0.44305 -0.75818,-0.34446 -0.70029,-1.75 z m -278.666663,-4 c 0.06397,-1.55327 0.379921,-1.8692 0.805556,-0.80556 0.385161,0.96249 0.337792,2.1125 -0.105267,2.55556 -0.443056,0.44305 -0.758188,-0.34446 -0.700293,-1.75 z m 406.666653,0 c 0.064,-1.55327 0.37992,-1.8692 0.80555,-0.80556 0.38516,0.96249 0.3378,2.1125 -0.1052,2.55556 -0.44306,0.44305 -0.75819,-0.34446 -0.7003,-1.75 z m -271.99999,-2.66667 c 0.064,-1.55327 0.37992,-1.8692 0.80555,-0.80556 0.38516,0.96249 0.3378,2.11251 -0.1052,2.55556 -0.44307,0.44305 -0.75819,-0.34445 -0.7003,-1.75 z m 142.66666,0 c 0.064,-1.55327 0.37992,-1.8692 0.80555,-0.80556 0.38516,0.96249 0.3378,2.11251 -0.1052,2.55556 -0.44307,0.44305 -0.75819,-0.34445 -0.70029,-1.75 z M 60.10526,503.22223 c 0.06397,-1.55327 0.379921,-1.8692 0.805556,-0.80556 0.385161,0.96249 0.337792,2.1125 -0.105267,2.55556 -0.443056,0.44305 -0.758188,-0.34446 -0.700293,-1.75 z m 411.99999,0 c 0.064,-1.55327 0.37992,-1.8692 0.80554,-0.80556 0.38516,0.96249 0.3378,2.1125 -0.1052,2.55556 -0.44305,0.44305 -0.75818,-0.34446 -0.70029,-1.75 z m -134.66666,-2.66667 c 0.064,-1.55327 0.37992,-1.8692 0.80554,-0.80556 0.38516,0.96249 0.3378,2.11251 -0.1052,2.55556 -0.44306,0.44305 -0.75818,-0.34445 -0.70029,-1.75 z M 33.438595,495.22223 c 0.06397,-1.55327 0.379921,-1.8692 0.805556,-0.80556 0.385161,0.96249 0.337791,2.1125 -0.105267,2.55556 -0.443056,0.44305 -0.758188,-0.34446 -0.700293,-1.75 z m 167.999995,0 c 0.064,-1.55327 0.37992,-1.8692 0.80555,-0.80556 0.38516,0.96249 0.3378,2.1125 -0.1052,2.55556 -0.44307,0.44305 -0.75819,-0.34446 -0.7003,-1.75 z m -143.999997,-4 c 0.06397,-1.55327 0.379922,-1.8692 0.805556,-0.80556 0.385162,0.96249 0.337792,2.1125 -0.105266,2.55556 -0.443056,0.44305 -0.758188,-0.34446 -0.700294,-1.75 z m 417.333317,0 c 0.064,-1.55327 0.37992,-1.8692 0.80555,-0.80556 0.38516,0.96249 0.3378,2.1125 -0.1052,2.55556 -0.44305,0.44305 -0.75819,-0.34446 -0.70029,-1.75 z m -271.99999,-1.33334 c 0.064,-1.55326 0.37992,-1.8692 0.80555,-0.80556 0.38516,0.9625 0.3378,2.11251 -0.1052,2.55556 -0.44307,0.44306 -0.75819,-0.34445 -0.70029,-1.75 z M 32.105261,488.55556 c 0.06397,-1.55327 0.379922,-1.8692 0.805556,-0.80556 0.385162,0.96249 0.337792,2.11251 -0.105266,2.55556 -0.443056,0.44305 -0.758188,-0.34445 -0.700294,-1.75 z m 23.999999,-4 c 0.06397,-1.55327 0.379922,-1.8692 0.805556,-0.80556 0.385161,0.96249 0.337792,2.11251 -0.105266,2.55556 -0.443056,0.44305 -0.758188,-0.34445 -0.700294,-1.75 z m 445.33332,0 c 0.064,-1.55327 0.37992,-1.8692 0.80554,-0.80556 0.38516,0.96249 0.3378,2.11251 -0.1052,2.55556 -0.44305,0.44305 -0.75818,-0.34445 -0.70029,-1.75 z M 54.771927,477.88889 c 0.06397,-1.55326 0.379921,-1.8692 0.805556,-0.80556 0.385161,0.9625 0.337792,2.11251 -0.105267,2.55556 -0.443056,0.44306 -0.758188,-0.34445 -0.700293,-1.75 z m 447.999983,0 c 0.064,-1.55326 0.37992,-1.8692 0.80555,-0.80556 0.38516,0.9625 0.3378,2.11251 -0.1052,2.55556 -0.44306,0.44306 -0.75819,-0.34445 -0.7003,-1.75 z M 28.105261,468.55556 c 0.06397,-1.55327 0.379922,-1.8692 0.805556,-0.80556 0.385162,0.96249 0.337792,2.11251 -0.105266,2.55556 -0.443056,0.44305 -0.758188,-0.34445 -0.700294,-1.75 z m 23.999999,-4 c 0.06397,-1.55327 0.379922,-1.8692 0.805556,-0.80556 0.385162,0.96249 0.337792,2.11251 -0.105266,2.55556 -0.443056,0.44305 -0.758188,-0.34445 -0.700294,-1.75 z m 427.99999,0 c 0.064,-1.55327 0.37992,-1.8692 0.80554,-0.80556 0.38516,0.96249 0.3378,2.11251 -0.1052,2.55556 -0.44305,0.44305 -0.75818,-0.34445 -0.70029,-1.75 z m 25.33333,-1.33333 c 0.064,-1.55327 0.37992,-1.8692 0.80554,-0.80556 0.38516,0.96249 0.3378,2.1125 -0.1052,2.55556 -0.44305,0.44305 -0.75818,-0.34446 -0.70029,-1.75 z M 26.771928,461.88889 c 0.06397,-1.55326 0.379921,-1.8692 0.805556,-0.80556 0.385161,0.9625 0.337792,2.11251 -0.105267,2.55556 -0.443056,0.44306 -0.758188,-0.34445 -0.700293,-1.75 z m 23.999999,-4 c 0.06397,-1.55326 0.379921,-1.8692 0.805556,-0.80556 0.385161,0.9625 0.337792,2.11251 -0.105267,2.55556 -0.443056,0.44306 -0.758188,-0.34445 -0.700293,-1.75 z m 430.666653,0 c 0.064,-1.55326 0.37992,-1.8692 0.80555,-0.80556 0.38516,0.9625 0.3378,2.11251 -0.1052,2.55556 -0.44306,0.44306 -0.75819,-0.34445 -0.7003,-1.75 z m 25.33333,-1.33333 c 0.064,-1.55327 0.37992,-1.8692 0.80555,-0.80556 0.38516,0.96249 0.3378,2.11251 -0.1052,2.55556 -0.44306,0.44305 -0.75819,-0.34445 -0.7003,-1.75 z M 25.438595,455.22223 c 0.06397,-1.55327 0.379921,-1.8692 0.805556,-0.80556 0.385161,0.96249 0.337792,2.1125 -0.105267,2.55556 -0.443056,0.44305 -0.758188,-0.34446 -0.700293,-1.75 z m 23.999999,-4 c 0.06397,-1.55327 0.379921,-1.8692 0.805556,-0.80556 0.385161,0.96249 0.337792,2.1125 -0.105267,2.55556 -0.443056,0.44305 -0.758188,-0.34446 -0.700293,-1.75 z m 433.333316,0 c 0.064,-1.55327 0.37992,-1.8692 0.80555,-0.80556 0.38516,0.96249 0.3378,2.1125 -0.1052,2.55556 -0.44305,0.44305 -0.75819,-0.34446 -0.70029,-1.75 z m 25.33333,-2.66667 c 0.064,-1.55327 0.37992,-1.8692 0.80555,-0.80556 0.38516,0.96249 0.3378,2.11251 -0.1052,2.55556 -0.44305,0.44305 -0.75819,-0.34445 -0.70029,-1.75 z M 24.105262,447.22223 c 0.06397,-1.55327 0.379921,-1.8692 0.805556,-0.80556 0.385161,0.96249 0.337792,2.1125 -0.105267,2.55556 -0.443056,0.44305 -0.758188,-0.34446 -0.700293,-1.75 z m 23.999999,-4 c 0.06397,-1.55327 0.379921,-1.8692 0.805556,-0.80556 0.385161,0.96249 0.337792,2.1125 -0.105267,2.55556 -0.443056,0.44305 -0.758188,-0.34446 -0.700293,-1.75 z m 461.333319,-1.33334 c 0.064,-1.55326 0.37992,-1.8692 0.80554,-0.80556 0.38516,0.9625 0.3378,2.11251 -0.1052,2.55556 -0.44305,0.44306 -0.75818,-0.34445 -0.70029,-1.75 z M 22.771928,440.55556 c 0.06397,-1.55327 0.379922,-1.8692 0.805556,-0.80556 0.385162,0.96249 0.337792,2.11251 -0.105266,2.55556 -0.443056,0.44305 -0.758188,-0.34445 -0.700294,-1.75 z m 23.999999,-4 c 0.06397,-1.55327 0.379922,-1.8692 0.805556,-0.80556 0.385162,0.96249 0.337792,2.11251 -0.105266,2.55556 -0.443056,0.44305 -0.758188,-0.34445 -0.700294,-1.75 z m 438.666653,0 c 0.064,-1.55327 0.37992,-1.8692 0.80555,-0.80556 0.38516,0.96249 0.3378,2.11251 -0.1052,2.55556 -0.44306,0.44305 -0.75819,-0.34445 -0.7003,-1.75 z m 25.33333,-2.66667 c 0.064,-1.55326 0.37992,-1.8692 0.80555,-0.80556 0.38516,0.9625 0.3378,2.11251 -0.1052,2.55556 -0.44306,0.44306 -0.75819,-0.34445 -0.7003,-1.75 z M 21.438595,432.55556 c 0.06397,-1.55327 0.379921,-1.8692 0.805556,-0.80556 0.385161,0.96249 0.337792,2.11251 -0.105267,2.55556 -0.443056,0.44305 -0.758188,-0.34445 -0.700293,-1.75 z m 23.999999,-4 c 0.06397,-1.55327 0.379921,-1.8692 0.805556,-0.80556 0.385161,0.96249 0.337792,2.11251 -0.105267,2.55556 -0.443056,0.44305 -0.758188,-0.34445 -0.700293,-1.75 z m 441.333316,0 c 0.064,-1.55327 0.37992,-1.8692 0.80555,-0.80556 0.38516,0.96249 0.3378,2.11251 -0.1052,2.55556 -0.44305,0.44305 -0.75819,-0.34445 -0.70029,-1.75 z m 25.33333,-2.66667 c 0.064,-1.55326 0.37992,-1.8692 0.80555,-0.80556 0.38516,0.9625 0.3378,2.11251 -0.1052,2.55556 -0.44305,0.44306 -0.75819,-0.34445 -0.70029,-1.75 z M 20.105262,424.55556 c 0.06397,-1.55327 0.379921,-1.8692 0.805556,-0.80556 0.385161,0.96249 0.337792,2.11251 -0.105267,2.55556 -0.443056,0.44305 -0.758188,-0.34445 -0.700293,-1.75 z M 280.53997,421 l -2.53998,-3 3,2.53999 c 2.81925,2.38696 3.60698,3.46001 2.53998,3.46001 -0.25301,0 -1.60301,-1.35 -3,-3 z M 44.105261,420.55556 c 0.06397,-1.55327 0.379921,-1.8692 0.805556,-0.80556 0.385161,0.96249 0.337792,2.11251 -0.105267,2.55556 -0.443056,0.44305 -0.758188,-0.34445 -0.700293,-1.75 z m 443.999989,0 c 0.064,-1.55327 0.37992,-1.8692 0.80554,-0.80556 0.38516,0.96249 0.3378,2.11251 -0.1052,2.55556 -0.44305,0.44305 -0.75818,-0.34445 -0.70029,-1.75 z m -233.43859,0.27436 c 0,-0.27687 1.05,-1.32687 2.33333,-2.33333 2.11475,-1.6585 2.16191,-1.61134 0.50341,0.50341 -1.74182,2.221 -2.83674,2.92731 -2.83674,1.82992 z m 258.87717,-3.49659 c 0,-1.83333 0.30264,-2.58333 0.67252,-1.66666 0.36988,0.91666 0.36988,2.41666 0,3.33333 -0.36988,0.91667 -0.67252,0.16667 -0.67252,-1.66667 z M 18.771929,416.55556 c 0.06397,-1.55327 0.379921,-1.8692 0.805555,-0.80556 0.385162,0.96249 0.337792,2.11251 -0.105266,2.55556 -0.443056,0.44305 -0.758188,-0.34445 -0.700293,-1.75 z m 470.771901,-3.22223 c 0,-1.83333 0.30264,-2.58333 0.67252,-1.66666 0.36988,0.91666 0.36988,2.41666 0,3.33333 -0.36988,0.91667 -0.67252,0.16667 -0.67252,-1.66667 z M 42.771927,412.55556 c 0.06397,-1.55327 0.379922,-1.8692 0.805556,-0.80556 0.385162,0.96249 0.337792,2.11251 -0.105266,2.55556 -0.443056,0.44305 -0.758188,-0.34445 -0.700294,-1.75 z M 17.543859,408 c 0,-1.83333 0.302631,-2.58333 0.672515,-1.66667 0.369883,0.91667 0.369883,2.41667 0,3.33334 -0.369884,0.91666 -0.672515,0.16666 -0.672515,-1.66667 z m 283.619381,0.33333 c -1.65849,-2.11474 -1.61133,-2.1619 0.50341,-0.50341 1.28334,1.00647 2.33334,2.05647 2.33334,2.33333 0,1.09739 -1.09492,0.39108 -2.83675,-1.82992 z m 213.60867,0.22223 c 0.064,-1.55327 0.37992,-1.8692 0.80555,-0.80556 0.38516,0.96249 0.3378,2.11251 -0.1052,2.55556 -0.44306,0.44305 -0.75819,-0.34445 -0.7003,-1.75 z m -473.333316,-4 c 0.06397,-1.55327 0.379922,-1.8692 0.805556,-0.80556 0.385161,0.96249 0.337792,2.11251 -0.105267,2.55556 -0.443055,0.44305 -0.758187,-0.34445 -0.700293,-1.75 z m 449.333316,0 c 0.064,-1.55327 0.37992,-1.8692 0.80555,-0.80556 0.38516,0.96249 0.3378,2.11251 -0.1052,2.55556 -0.44305,0.44305 -0.75819,-0.34445 -0.70029,-1.75 z m -253.43859,0.36056 c 0,-0.22947 1.95,-2.17947 4.33334,-4.33333 l 4.33333,-3.91612 L 242.08387,401 c -3.65037,4.03928 -4.75055,4.9462 -4.75055,3.91612 z m 55.20665,-5.24945 -2.53998,-3 3,2.53998 c 2.81925,2.38696 3.60698,3.46002 2.53998,3.46002 -0.25301,0 -1.60301,-1.35 -3,-3 z M 516.2105,400 c 0,-1.83333 0.30264,-2.58333 0.67252,-1.66667 0.36988,0.91667 0.36988,2.41667 0,3.33334 -0.36988,0.91666 -0.67252,0.16666 -0.67252,-1.66667 z M 16.105262,399.22223 c 0.06397,-1.55327 0.379921,-1.8692 0.805556,-0.80556 0.385161,0.96249 0.337792,2.1125 -0.105267,2.55556 -0.443056,0.44305 -0.758188,-0.34446 -0.700293,-1.75 z m 23.999999,-2.66667 c 0.06397,-1.55327 0.379921,-1.8692 0.805556,-0.80556 0.385161,0.96249 0.337792,2.11251 -0.105267,2.55556 -0.443056,0.44305 -0.758188,-0.34445 -0.700293,-1.75 z m 451.999989,0 c 0.064,-1.55327 0.37992,-1.8692 0.80554,-0.80556 0.38516,0.96249 0.3378,2.11251 -0.1052,2.55556 -0.44305,0.44305 -0.75818,-0.34445 -0.70029,-1.75 z M 14.877193,390.66667 c 0,-1.83334 0.30263,-2.58334 0.672514,-1.66667 0.369883,0.91667 0.369883,2.41667 0,3.33333 -0.369884,0.91667 -0.672514,0.16667 -0.672514,-1.66666 z m 502.666637,0 c 0,-1.83334 0.30264,-2.58334 0.67252,-1.66667 0.36988,0.91667 0.36988,2.41667 0,3.33333 -0.36988,0.91667 -0.67252,0.16667 -0.67252,-1.66666 z M 38.877192,388 c 0,-1.83333 0.30263,-2.58333 0.672514,-1.66667 0.369883,0.91667 0.369883,2.41667 0,3.33334 -0.369884,0.91666 -0.672514,0.16666 -0.672514,-1.66667 z m 224.789468,1.72569 c 1.65,-0.31781 4.34999,-0.31781 5.99999,0 1.65,0.3178 0.3,0.57783 -3,0.57783 -3.29999,0 -4.64999,-0.26003 -2.99999,-0.57783 z M 493.54383,388 c 0,-1.83333 0.30264,-2.58333 0.67252,-1.66667 0.36988,0.91667 0.36988,2.41667 0,3.33334 -0.36988,0.91666 -0.67252,0.16666 -0.67252,-1.66667 z M 13.543859,381.33333 c 0,-1.83333 0.302631,-2.58333 0.672515,-1.66666 0.369883,0.91666 0.369883,2.41666 0,3.33333 -0.369884,0.91667 -0.672515,0.16667 -0.672515,-1.66667 z m 505.333301,0 c 0,-1.83333 0.30264,-2.58333 0.67252,-1.66666 0.36988,0.91666 0.36988,2.41666 0,3.33333 -0.36988,0.91667 -0.67252,0.16667 -0.67252,-1.66667 z M 37.543858,378.66667 c 0,-1.83334 0.302631,-2.58334 0.672515,-1.66667 0.369883,0.91667 0.369883,2.41667 0,3.33333 -0.369884,0.91667 -0.672515,0.16667 -0.672515,-1.66666 z m 457.333312,0 c 0,-1.83334 0.30264,-2.58334 0.67251,-1.66667 0.36988,0.91667 0.36988,2.41667 0,3.33333 -0.36987,0.91667 -0.67251,0.16667 -0.67251,-1.66666 z M 12.210526,372 c 0,-1.83333 0.302631,-2.58333 0.672514,-1.66667 0.369883,0.91667 0.369883,2.41667 0,3.33334 -0.369883,0.91666 -0.672514,0.16666 -0.672514,-1.66667 z m 507.999974,0 c 0,-1.83333 0.30264,-2.58333 0.67252,-1.66667 0.36988,0.91667 0.36988,2.41667 0,3.33334 -0.36988,0.91666 -0.67252,0.16666 -0.67252,-1.66667 z M 36.210525,369.33333 c 0,-1.83333 0.302631,-2.58333 0.672515,-1.66666 0.369882,0.91666 0.369882,2.41666 0,3.33333 -0.369884,0.91667 -0.672515,0.16667 -0.672515,-1.66667 z m 459.999975,0 c 0,-1.83333 0.30264,-2.58333 0.67252,-1.66666 0.36988,0.91666 0.36988,2.41666 0,3.33333 -0.36988,0.91667 -0.67252,0.16667 -0.67252,-1.66667 z M 10.877192,362.66667 c 0,-1.83334 0.302632,-2.58334 0.672515,-1.66667 0.369883,0.91667 0.369883,2.41667 0,3.33333 -0.369883,0.91667 -0.672515,0.16667 -0.672515,-1.66666 z m 510.666638,-1.33334 c 0,-1.83333 0.30264,-2.58333 0.67252,-1.66666 0.36988,0.91666 0.36988,2.41666 0,3.33333 -0.36988,0.91667 -0.67252,0.16667 -0.67252,-1.66667 z M 34.877192,360 c 0,-1.83333 0.30263,-2.58333 0.672514,-1.66667 0.369883,0.91667 0.369883,2.41667 0,3.33334 -0.369884,0.91666 -0.672514,0.16666 -0.672514,-1.66667 z m 462.666638,0 c 0,-1.83333 0.30264,-2.58333 0.67252,-1.66667 0.36988,0.91667 0.36988,2.41667 0,3.33334 -0.36988,0.91666 -0.67252,0.16666 -0.67252,-1.66667 z M 9.5438592,352 c 0,-1.83333 0.3026316,-2.58333 0.6725148,-1.66667 0.369883,0.91667 0.369883,2.41667 0,3.33334 C 9.8464908,354.58333 9.5438592,353.83333 9.5438592,352 Z M 522.92658,351.33333 c 0.0272,-2.2 0.326,-2.93858 0.66405,-1.64129 0.33805,1.29729 0.31583,3.09729 -0.0495,4 -0.36524,0.90271 -0.64182,-0.15871 -0.61465,-2.35871 z m -489.382721,-2 c 0,-1.83333 0.30263,-2.58333 0.672514,-1.66666 0.369883,0.91666 0.369883,2.41666 0,3.33333 -0.369884,0.91667 -0.672514,0.16667 -0.672514,-1.66667 z m 465.333301,0 c 0,-1.83333 0.30264,-2.58333 0.67252,-1.66666 0.36988,0.91666 0.36988,2.41666 0,3.33333 -0.36988,0.91667 -0.67252,0.16667 -0.67252,-1.66667 z m -490.6666341,-8 c 0,-1.83333 0.3026316,-2.58333 0.6725146,-1.66666 0.3698831,0.91666 0.3698831,2.41666 0,3.33333 -0.369883,0.91667 -0.6725146,0.16667 -0.6725146,-1.66667 z M 524.2105,340 c 0,-1.83333 0.30264,-2.58333 0.67252,-1.66667 0.36988,0.91667 0.36988,2.41667 0,3.33334 -0.36988,0.91666 -0.67252,0.16666 -0.67252,-1.66667 z M 32.210525,338.66667 c 0,-1.83334 0.302631,-2.58334 0.672515,-1.66667 0.369883,0.91667 0.369883,2.41667 0,3.33333 -0.369884,0.91667 -0.672515,0.16667 -0.672515,-1.66666 z m 467.999975,0 c 0,-1.83334 0.30264,-2.58334 0.67252,-1.66667 0.36988,0.91667 0.36988,2.41667 0,3.33333 -0.36988,0.91667 -0.67252,0.16667 -0.67252,-1.66666 z M 6.926598,330 c 0.027173,-2.2 0.3259981,-2.93859 0.6640559,-1.64129 0.3380579,1.29729 0.3158255,3.09729 -0.049405,4 C 7.1760178,333.26141 6.899425,332.2 6.926598,330 Z m 518.666642,-1.33333 c 0.0272,-2.2 0.326,-2.93859 0.66406,-1.6413 0.33805,1.2973 0.31582,3.0973 -0.0495,4 -0.36524,0.90271 -0.64183,-0.1587 -0.61465,-2.3587 z M 30.926597,327.33333 c 0.02717,-2.2 0.325998,-2.93858 0.664056,-1.64129 0.338058,1.29729 0.315826,3.09729 -0.0494,4 -0.365236,0.90271 -0.641829,-0.15871 -0.614656,-2.35871 z m 470.666643,0 c 0.0272,-2.2 0.326,-2.93858 0.66406,-1.64129 0.33805,1.29729 0.31582,3.09729 -0.0495,4 -0.36524,0.90271 -0.64183,-0.15871 -0.61465,-2.35871 z M 5.5932647,318 c 0.027173,-2.2 0.3259981,-2.93859 0.664056,-1.64129 0.3380578,1.29729 0.3158254,3.09729 -0.049405,4 C 5.8426845,321.26141 5.5660918,320.2 5.5932647,318 Z m 23.9999993,-2.66667 c 0.02717,-2.2 0.325997,-2.93858 0.664056,-1.64129 0.338057,1.29729 0.315825,3.09729 -0.0494,4 -0.365236,0.90271 -0.641829,-0.15871 -0.614656,-2.35871 z m 473.333316,0 c 0.0272,-2.2 0.326,-2.93858 0.66405,-1.64129 0.33805,1.29729 0.31583,3.09729 -0.0495,4 -0.36524,0.90271 -0.64182,-0.15871 -0.61465,-2.35871 z m 24,0 c 0.0272,-2.2 0.326,-2.93858 0.66405,-1.64129 0.33805,1.29729 0.31583,3.09729 -0.0495,4 -0.36524,0.90271 -0.64182,-0.15871 -0.61465,-2.35871 z M 4.3093367,304 c 0,-2.56667 0.2743938,-3.61667 0.6097638,-2.33333 0.3353701,1.28333 0.3353701,3.38333 0,4.66666 C 4.5837305,307.61667 4.3093367,306.56667 4.3093367,304 Z M 528.30931,302.66667 c 0,-2.56667 0.2744,-3.61667 0.60977,-2.33334 0.33536,1.28334 0.33536,3.38334 0,4.66667 -0.33537,1.28333 -0.60977,0.23333 -0.60977,-2.33333 z M 28.259931,302 c 0.02717,-2.2 0.325997,-2.93859 0.664056,-1.64129 0.338057,1.29729 0.315825,3.09729 -0.0494,4 C 28.509351,305.26141 28.232757,304.2 28.259931,302 Z m 475.999979,0 c 0.0272,-2.2 0.326,-2.93859 0.66405,-1.64129 0.33806,1.29729 0.31583,3.09729 -0.0495,4 -0.3652,0.9027 -0.64179,-0.15871 -0.61462,-2.35871 z M 2.9760035,289.33333 c 0,-2.56666 0.2743937,-3.61666 0.6097637,-2.33333 0.3353701,1.28333 0.3353701,3.38333 0,4.66667 C 3.2503972,292.95 2.9760035,291.9 2.9760035,289.33333 Z M 26.976003,288 c 0,-2.56667 0.274393,-3.61667 0.609764,-2.33333 0.335369,1.28333 0.335369,3.38333 0,4.66666 -0.335371,1.28334 -0.609764,0.23334 -0.609764,-2.33333 z m 478.666637,0 c 0,-2.56667 0.2744,-3.61667 0.60978,-2.33333 0.33536,1.28333 0.33536,3.38333 0,4.66666 -0.33538,1.28334 -0.60978,0.23334 -0.60978,-2.33333 z m 24,0 c 0,-2.56667 0.2744,-3.61667 0.60978,-2.33333 0.33536,1.28333 0.33536,3.38333 0,4.66666 -0.33538,1.28334 -0.60978,0.23334 -0.60978,-2.33333 z M 1.6695778,272.66667 c 0.014799,-2.93334 0.2878456,-3.97634 0.60677,-2.31779 0.3189242,1.65855 0.3068158,4.05855 -0.026908,5.33333 C 1.9157167,276.957 1.6547786,275.6 1.6695778,272.66667 Z m 529.3602122,-2 c 0,-3.3 0.26003,-4.65 0.57783,-3 0.31781,1.65 0.31781,4.35 0,6 -0.3178,1.65 -0.57783,0.3 -0.57783,-3 z M 25.669576,270 c 0.0148,-2.93333 0.287847,-3.97633 0.606771,-2.31779 0.318924,1.65855 0.306816,4.05855 -0.02691,5.33334 -0.333724,1.27478 -0.594662,-0.0822 -0.579864,-3.01555 z m 481.333304,0 c 0.0148,-2.93333 0.28786,-3.97633 0.60678,-2.31779 0.31892,1.65855 0.30681,4.05855 -0.0269,5.33334 -0.33372,1.27478 -0.59466,-0.0823 -0.57986,-3.01555 z M 0.41315886,250 c 0.007484,-4.4 0.25640091,-6.03925 0.55314946,-3.64279 0.29674858,2.39647 0.29062558,5.99647 -0.0136067,8 C 0.64846948,256.36075 0.40567521,254.4 0.41315886,250 Z M 532.41314,248.66667 c 0.008,-4.4 0.2564,-6.03926 0.55314,-3.64279 0.29675,2.39647 0.29063,5.99647 -0.0136,8 -0.30424,2.00353 -0.54702,0.0428 -0.53954,-4.35721 z M 24.448274,245.33333 c 0,-5.5 0.235357,-7.75 0.523016,-5 0.28766,2.75 0.28766,7.25 0,10 -0.287659,2.75 -0.523016,0.5 -0.523016,-5 z m 483.999986,0 c 0,-5.5 0.23534,-7.75 0.52301,-5 0.28765,2.75 0.28765,7.25 0,10 -0.28767,2.75 -0.52301,0.5 -0.52301,-5 z m -484.048709,-40 c 0,-4.03333 0.249955,-5.68333 0.555453,-3.66666 0.3055,2.01666 0.3055,5.31666 0,7.33333 -0.305498,2.01667 -0.555453,0.36667 -0.555453,-3.66667 z m 483.999969,0 c 0,-4.03333 0.24996,-5.68333 0.55546,-3.66666 0.3055,2.01666 0.3055,5.31666 0,7.33333 -0.3055,2.01667 -0.55546,0.36667 -0.55546,-3.66667 z M 0.36315213,200 c 0,-3.3 0.26002132,-4.65 0.57782518,-3 0.31780379,1.65 0.31780379,4.35 0,6 -0.31780386,1.65 -0.57782518,0.3 -0.57782518,-3 z M 532.33622,199.33333 c 0.0148,-2.93333 0.28785,-3.97633 0.60677,-2.31778 0.31892,1.65854 0.30681,4.05854 -0.0269,5.33333 -0.33372,1.27479 -0.59467,-0.0823 -0.57987,-3.01555 z m -506.742956,-12 c 0.02717,-2.2 0.325998,-2.93858 0.664056,-1.64129 0.338058,1.29729 0.315826,3.09729 -0.0494,4 -0.365236,0.90271 -0.641829,-0.15871 -0.614656,-2.35871 z m 481.333316,0 c 0.0272,-2.2 0.326,-2.93858 0.66405,-1.64129 0.33805,1.29729 0.31583,3.09729 -0.0495,4 -0.36524,0.90271 -0.64182,-0.15871 -0.61465,-2.35871 z m -505.3333151,-4 c 0.027173,-2.2 0.3259981,-2.93858 0.6640559,-1.64129 0.3380579,1.29729 0.3158255,3.09729 -0.049405,4 -0.3652308,0.90271 -0.6418236,-0.15871 -0.6146509,-2.35871 z m 529.3333151,0 c 0.0272,-2.2 0.326,-2.93858 0.66405,-1.64129 0.33805,1.29729 0.31583,3.09729 -0.0495,4 -0.36524,0.90271 -0.64182,-0.15871 -0.61465,-2.35871 z M 26.877192,176 c 0,-1.83333 0.302631,-2.58333 0.672515,-1.66667 0.369882,0.91667 0.369882,2.41667 0,3.33334 -0.369884,0.91666 -0.672515,0.16666 -0.672515,-1.66667 z m 478.666638,0 c 0,-1.83333 0.30264,-2.58333 0.67252,-1.66667 0.36988,0.91667 0.36988,2.41667 0,3.33334 -0.36988,0.91666 -0.67252,0.16666 -0.67252,-1.66667 z M 2.8771928,172 c 0,-1.83333 0.3026316,-2.58333 0.6725146,-1.66667 0.3698831,0.91667 0.3698831,2.41667 0,3.33334 C 3.1798244,174.58333 2.8771928,173.83333 2.8771928,172 Z m 526.6666372,0 c 0,-1.83333 0.30264,-2.58333 0.67252,-1.66667 0.36988,0.91667 0.36988,2.41667 0,3.33334 -0.36988,0.91666 -0.67252,0.16666 -0.67252,-1.66667 z m -462.201061,0.0152 c -0.467119,-0.75581 0.06808,-0.97933 1.254644,-0.52401 2.309889,0.88638 2.732516,1.84208 0.814607,1.84208 -0.690055,0 -1.621218,-0.59314 -2.069251,-1.31807 z m -39.132244,-5.34853 c 0,-1.83334 0.302631,-2.58334 0.672515,-1.66667 0.369883,0.91667 0.369883,2.41667 0,3.33333 -0.369884,0.91667 -0.672515,0.16667 -0.672515,-1.66666 z m 475.999975,0 c 0,-1.83334 0.30264,-2.58334 0.67252,-1.66667 0.36988,0.91667 0.36988,2.41667 0,3.33333 -0.36988,0.91667 -0.67252,0.16667 -0.67252,-1.66666 z M 84.752387,166.27583 c 0.500708,-1.31496 1.246256,-2.05496 1.656772,-1.64444 0.410516,0.41052 8.45e-4,1.48638 -0.910379,2.39084 -1.316821,1.30701 -1.469973,1.15386 -0.746393,-0.7464 z m -80.647124,-3.0536 c 0.063979,-1.55327 0.3799204,-1.8692 0.8055555,-0.80556 0.3851607,0.96249 0.3377923,2.11249 -0.1052627,2.55556 -0.4430556,0.44305 -0.7581872,-0.34446 -0.7002928,-1.75 z m 57.33333,0 c 0.06397,-1.55327 0.379922,-1.8692 0.805556,-0.80556 0.385162,0.96249 0.337792,2.11249 -0.105266,2.55556 -0.443056,0.44305 -0.758188,-0.34446 -0.700294,-1.75 z m 466.666647,0 c 0.064,-1.55327 0.37992,-1.8692 0.80555,-0.80556 0.38516,0.96249 0.3378,2.11249 -0.1052,2.55556 -0.44305,0.44305 -0.75819,-0.34446 -0.70029,-1.75 z m -498.666645,-4 c 0.06397,-1.55327 0.379921,-1.8692 0.805556,-0.80556 0.385161,0.96249 0.337792,2.11249 -0.105267,2.55556 -0.443056,0.44305 -0.758188,-0.34446 -0.700293,-1.75 z m 473.333315,0 c 0.064,-1.55327 0.37992,-1.8692 0.80555,-0.80556 0.38516,0.96249 0.3378,2.11249 -0.1052,2.55556 -0.44306,0.44305 -0.75819,-0.34446 -0.7003,-1.75 z m -441.075427,-5.8889 c 0,-3.3 0.260021,-4.65 0.577825,-3 0.317804,1.65 0.317804,4.35 0,6 -0.317804,1.65 -0.577825,0.3 -0.577825,-3 z m -56.2578867,1.8889 c 0.063979,-1.55327 0.3799204,-1.8692 0.8055554,-0.80556 0.3851608,0.96249 0.3377924,2.11249 -0.1052626,2.55556 -0.4430556,0.44305 -0.7581872,-0.34446 -0.7002928,-1.75 z m 521.3333137,0 c 0.064,-1.55327 0.37992,-1.8692 0.80555,-0.80556 0.38516,0.96249 0.3378,2.11249 -0.1052,2.55556 -0.44306,0.44305 -0.75819,-0.34446 -0.7003,-1.75 z M 30.771928,152.55556 c 0.06397,-1.55327 0.379921,-1.8692 0.805556,-0.80556 0.385161,0.96249 0.337792,2.11249 -0.105267,2.55556 -0.443056,0.44305 -0.758188,-0.34445 -0.700293,-1.75 z m 56.154667,-1.22223 c 0.02717,-2.2 0.325997,-2.93858 0.664056,-1.64129 0.338057,1.29729 0.315825,3.09729 -0.0494,4 -0.365236,0.90271 -0.641829,-0.15871 -0.614656,-2.35871 z m 414.511985,1.22223 c 0.064,-1.55327 0.37992,-1.8692 0.80554,-0.80556 0.38516,0.96249 0.3378,2.11249 -0.1052,2.55556 -0.44305,0.44305 -0.75818,-0.34445 -0.70029,-1.75 z M 62.771927,141.88889 c 0.06397,-1.55326 0.379921,-1.8692 0.805556,-0.80556 0.385161,0.9625 0.337792,2.1125 -0.105267,2.55556 -0.443056,0.44306 -0.758188,-0.34445 -0.700293,-1.75 z M 111.33333,100 c 2.86432,-2.933333 5.50786,-5.333333 5.87453,-5.333333 0.36666,0 -1.67687,2.4 -4.5412,5.333333 -2.86432,2.93333 -5.50786,5.33333 -5.87453,5.33333 -0.36666,0 1.67687,-2.4 4.5412,-5.33333 z M 50.666664,94.745356 c 0,-0.690055 0.593128,-1.621217 1.318062,-2.069251 0.755813,-0.467118 0.979342,0.06808 0.524014,1.254644 -0.886388,2.30989 -1.842076,2.732516 -1.842076,0.814607 z M 480.75237,93.724171 c -0.72358,-1.900264 -0.57043,-2.053416 0.7464,-0.746394 0.91122,0.904446 1.32089,1.980322 0.91037,2.390838 -0.41052,0.410517 -1.15607,-0.329483 -1.65677,-1.644444 z M 85.999996,90.666667 C 87.327311,89.2 88.713296,88 89.079963,88 c 0.366666,0 -0.419319,1.2 -1.746633,2.666667 -1.327315,1.466666 -2.7133,2.666666 -3.079967,2.666666 -0.366667,0 0.419319,-1.2 1.746633,-2.666666 z m 33.999994,2.16326 c 0,-0.276875 1.05,-1.326875 2.33334,-2.333334 2.11474,-1.658494 2.1619,-1.611334 0.5034,0.503407 -1.74182,2.220997 -2.83674,2.927305 -2.83674,1.829927 z M 101.33333,75.496593 c 0,-0.276874 1.05,-1.326874 2.33333,-2.333333 2.11474,-1.658495 2.1619,-1.611335 0.50341,0.503407 -1.74183,2.220997 -2.83674,2.927305 -2.83674,1.829926 z m 58.41666,-0.407412 c 0.9625,-0.385161 2.1125,-0.337792 2.55556,0.105267 0.44306,0.443056 -0.34445,0.758188 -1.75,0.700293 -1.55326,-0.06397 -1.8692,-0.379921 -0.80556,-0.805556 z m 11.25,-1.341616 c 1.28334,-0.335369 3.38334,-0.335369 4.66667,0 1.28333,0.335371 0.23333,0.609764 -2.33333,0.609764 -2.56667,0 -3.61667,-0.274393 -2.33334,-0.609764 z M 185.59326,62 c 0.0272,-2.2 0.326,-2.938581 0.66405,-1.641291 0.33806,1.29729 0.31583,3.09729 -0.0495,4 C 185.84267,65.261419 185.56609,64.2 185.59326,62 Z M 78.666663,55.333333 c 4.724297,-4.766666 8.889631,-8.666666 9.256297,-8.666666 0.366667,0 -3.198666,3.9 -7.922964,8.666666 C 75.275699,60.1 71.110366,64 70.7437,64 c -0.366667,0 3.198666,-3.9 7.922963,-8.666667 z M 453.29479,55 l -8.62814,-9 9,8.628149 c 4.95,4.745482 9,8.795482 9,9 0,0.981356 -1.35766,-0.268566 -9.37186,-8.628149 z m -198.96147,5.450292 c 0.91667,-0.369883 2.41667,-0.369883 3.33334,0 0.91666,0.369884 0.16666,0.672515 -1.66667,0.672515 -1.83333,0 -2.58333,-0.302631 -1.66667,-0.672515 z m 21.33333,0 c 0.91667,-0.369883 2.41667,-0.369883 3.33334,0 0.91666,0.369884 0.16666,0.672515 -1.66667,0.672515 -1.83333,0 -2.58333,-0.302631 -1.66667,-0.672515 z m -94.5034,-8.116959 c -1.6585,-2.114741 -1.61134,-2.161901 0.50341,-0.503406 2.221,1.741825 2.92731,2.83674 1.82992,2.83674 -0.27687,0 -1.32687,-1.05 -2.33333,-2.333334 z m -30.74659,-1.244152 c 0.96249,-0.385161 2.11249,-0.337792 2.55556,0.105267 0.44305,0.443056 -0.34445,0.758188 -1.75,0.700293 -1.55327,-0.06397 -1.8692,-0.379921 -0.80556,-0.805556 z M 50.666664,50.16326 c 0,-0.276875 1.05,-1.326875 2.333334,-2.333333 2.114741,-1.658495 2.161901,-1.611335 0.503406,0.503406 -1.741825,2.220998 -2.83674,2.927306 -2.83674,1.829927 z M 158.33333,49.783625 c 0.91666,-0.369882 2.41666,-0.369882 3.33333,0 0.91667,0.369884 0.16667,0.672515 -1.66667,0.672515 -1.83333,0 -2.58333,-0.302631 -1.66666,-0.672515 z M 479.8299,48.333333 c -1.65849,-2.114741 -1.61133,-2.161901 0.50341,-0.503406 2.221,1.741825 2.92731,2.83674 1.82992,2.83674 -0.27686,0 -1.32686,-1.05 -2.33333,-2.333334 z M 90.666663,44.829927 c 0,-0.276875 1.05,-1.326875 2.333333,-2.333334 2.114741,-1.658494 2.161901,-1.611334 0.503407,0.503407 -1.741826,2.220997 -2.83674,2.927305 -2.83674,1.829927 z M 439.8299,43 c -1.65849,-2.114741 -1.61133,-2.161901 0.50341,-0.503407 2.221,1.741826 2.92731,2.83674 1.82992,2.83674 -0.27686,0 -1.32686,-1.05 -2.33333,-2.333333 z M 62.610941,37 c 3.269352,-3.483333 6.119352,-6.333333 6.333333,-6.333333 1.001182,0 -0.05736,1.197102 -5.944277,6.722389 l -6.333333,5.944277 z M 469.33331,36.666667 c -3.2387,-3.3 -5.58856,-6 -5.22189,-6 0.36667,0 3.31652,2.7 6.55523,6 3.2387,3.3 5.58856,6 5.22189,6 -0.36667,0 -3.31652,-2.7 -6.55523,-6 z M 258.33332,36.450292 c 0.91667,-0.369883 2.41667,-0.369883 3.33334,0 0.91666,0.369884 0.16666,0.672515 -1.66667,0.672515 -1.83333,0 -2.58333,-0.302631 -1.66667,-0.672515 z m 13.33333,0 c 0.91667,-0.369883 2.41667,-0.369883 3.33334,0 0.91666,0.369884 0.16666,0.672515 -1.66667,0.672515 -1.83333,0 -2.58333,-0.302631 -1.66667,-0.672515 z M 73.33333,27.496593 c 0,-0.276874 1.05,-1.326874 2.333333,-2.333333 2.114742,-1.658495 2.161902,-1.611335 0.503407,0.503407 -1.741825,2.220997 -2.83674,2.927305 -2.83674,1.829926 z m 383.8299,-1.829926 c -1.65849,-2.114742 -1.61133,-2.161902 0.50342,-0.503407 2.221,1.741825 2.9273,2.83674 1.82992,2.83674 -0.27687,0 -1.32687,-1.05 -2.33334,-2.333333 z M 137.66666,24.414232 c 1.28333,-0.335369 3.38333,-0.335369 4.66667,0 1.28333,0.335371 0.23333,0.609764 -2.33334,0.609764 -2.56666,0 -3.61666,-0.274393 -2.33333,-0.609764 z m 15.33333,0.03607 c 0.91667,-0.369883 2.41667,-0.369883 3.33334,0 0.91666,0.369884 0.16666,0.672514 -1.66667,0.672514 -1.83333,0 -2.58333,-0.30263 -1.66667,-0.672514 z m 223.99999,0 c 0.91667,-0.369883 2.41667,-0.369883 3.33334,0 0.91666,0.369884 0.16666,0.672514 -1.66667,0.672514 -1.83333,0 -2.58333,-0.30263 -1.66667,-0.672514 z m 14,-0.03607 c 1.28334,-0.335369 3.38334,-0.335369 4.66667,0 1.28333,0.335371 0.23333,0.609764 -2.33333,0.609764 -2.56667,0 -3.61667,-0.274393 -2.33334,-0.609764 z M 126.41666,1.755848 c 0.9625,-0.3851608 2.1125,-0.3377924 2.55556,0.1052627 0.44305,0.4430556 -0.34445,0.7581872 -1.75,0.7002924 -1.55326,-0.063978 -1.8692,-0.37992 -0.80556,-0.8055551 z m 40,0 c 0.96249,-0.3851608 2.11249,-0.3377924 2.55556,0.1052627 0.44305,0.4430556 -0.34445,0.7581872 -1.75,0.7002924 -1.55327,-0.063979 -1.8692,-0.3799204 -0.80556,-0.8055551 z m 238.66666,0 c 0.96249,-0.3851608 2.1125,-0.3377924 2.55556,0.1052627 0.44305,0.4430556 -0.34446,0.7581872 -1.75,0.7002924 -1.55327,-0.063979 -1.8692,-0.3799204 -0.80556,-0.8055551 z M 133.69203,0.40934571 c 1.2973,-0.33805788 3.0973,-0.3158255 4,0.0494053 0.90271,0.3652308 -0.1587,0.64182369 -2.3587,0.61465069 -2.2,-0.027173 -2.93858,-0.32599812 -1.6413,-0.66405599 z m 24.72463,0.0131693 c 0.96249,-0.38516081 2.11249,-0.33779239 2.55556,0.1052632 0.44305,0.44305556 -0.34445,0.75818719 -1.75,0.70029239 -1.55327,-0.063978 -1.8692,-0.37992039 -0.80556,-0.80555559 z m 214.66666,0 c 0.96249,-0.38516081 2.1125,-0.33779239 2.55556,0.1052632 0.44305,0.44305556 -0.34446,0.75818719 -1.75,0.70029239 -1.55327,-0.063978 -1.8692,-0.37992039 -0.80556,-0.80555559 z m 23.27537,-0.0131693 c 1.29729,-0.33805788 3.09729,-0.3158255 4,0.0494053 0.90271,0.3652308 -0.15871,0.64182369 -2.35871,0.61465069 -2.2,-0.027173 -2.93858,-0.32599812 -1.64129,-0.66405599 z"
         style="fill:#fff;fill-opacity:1;stroke-width:1.33333" />
      <path
         id="path144"
         d="M 137.71471,718.06567 C 114.34768,710.76292 92.551099,681.78824 72.970673,632 42.629151,554.84892 14.973929,417.15876 3.2083859,284.66667 0.46054875,253.7232 0.07003341,199.38129 2.4610143,180.66667 10.02261,121.48071 29.574669,73.772595 59.527853,41.420387 81.791643,17.373436 110.32339,3.0922939 141.25591,0.51261971 160.32469,-1.0776561 175.68075,3.0877951 212.35826,19.799677 c 32.84436,14.965336 38.96456,16.866027 54.30839,16.866027 15.34384,0 21.46404,-1.900691 54.3084,-16.866027 C 357.65256,3.0877951 373.00862,-1.0776561 392.0774,0.51261971 423.00991,3.0922939 451.54167,17.373436 473.80546,41.420387 516.73102,87.783968 537.41446,162.75625 532.0843,252.66667 525.86939,357.50115 504.97456,487.1416 480.61569,572 453.63906,665.97779 423.28351,714.79531 388.89202,719.50919 375.92436,721.2866 364.35698,712.8132 356.20904,695.56804 347.93108,678.04771 342.78451,656.3296 329.3072,582.04477 319.16752,526.15643 314.1884,502.31935 307.85271,479.33333 291.54025,420.15152 269.2534,398.80067 251.86776,425.69964 c -13.4941,20.878 -23.59429,57.0888 -44.52625,159.63369 -9.05295,44.35006 -15.04113,69.58219 -20.72625,87.33334 -12.21111,38.12769 -27.31091,52.14626 -48.90055,45.399 z M 153.92523,691 c 8.35727,-12.67632 16.79428,-44.16277 32.7801,-122.33333 C 204.2505,482.87076 212.53038,452.32171 225.37306,426 c 7.93248,-16.258 17.17374,-27.10723 27.31672,-32.06972 6.27669,-3.07089 8.53882,-3.48604 16.29921,-2.99119 21.0317,1.34112 36.74577,16.65954 50.50074,49.2292 10.8028,25.57938 18.94006,59.5522 33.17347,138.49838 13.24077,73.44042 20.65961,103.1569 28.23212,113.08498 3.04829,3.99651 4.00541,4.4511 8.00512,3.80203 29.25756,-4.74785 63.27121,-87.88941 89.76277,-219.4124 C 504.10882,349.81116 514.77763,232.10652 506.08615,173.59521 500.41259,135.40063 488.50453,102.06888 470.98738,75.350597 462.62401,62.594243 444.12399,44.443669 432.36513,37.457853 416.58906,28.08546 404.79196,24.812929 386.66665,24.781029 c -18.19849,-0.03203 -23.72808,1.605839 -56,16.58725 -11.36666,5.276684 -26.96666,11.739008 -34.66666,14.36072 -12.86074,4.37885 -15.24778,4.76675 -29.33334,4.76675 -14.08555,0 -16.47259,-0.3879 -29.33333,-4.76675 -7.7,-2.621712 -23.3,-9.084036 -34.66666,-14.36072 -32.27192,-14.981411 -37.80151,-16.619279 -56,-16.58725 -12.91744,0.02274 -16.96733,0.573124 -25.70407,3.493244 C 105.78446,33.347328 92.946753,41.575955 79.910454,54.587588 52.845646,81.601189 34.882458,122.19409 27.247157,173.59521 18.49203,232.53503 29.75756,354.78003 55.545436,480.66667 80.318083,601.59736 110.65022,678.75229 139.33333,693.7954 c 6.87985,3.6082 10.87468,2.84291 14.5919,-2.7954 z M 67.726189,171.26856 c -4.987728,-2.70741 -6.179594,-8.30133 -4.794758,-22.50376 4.811791,-49.348177 44.049499,-90.099687 94.401899,-98.043953 15.0811,-2.379398 19.69356,-1.899079 24.10256,2.509922 5.00597,5.005971 5.34962,12.104924 0.80594,16.64861 -2.36857,2.368566 -5.25266,3.312216 -12.33333,4.035356 -24.64503,2.516962 -41.89845,10.175112 -57.1344,25.359821 -15.6788,15.626064 -24.166048,33.465754 -25.718509,54.058774 -0.414633,5.5 -1.577975,11.63222 -2.585204,13.62715 -3.223325,6.38415 -9.80156,8.07664 -16.744198,4.30808 z"
         style="fill:#fff;fill-opacity:1;stroke-width:1.33333" />
    </g>
  </g>
</svg>
