<?xml version="1.0" encoding="UTF-8" standalone="no"?>
<svg
   xmlns:dc="http://purl.org/dc/elements/1.1/"
   xmlns:cc="http://creativecommons.org/ns#"
   xmlns:rdf="http://www.w3.org/1999/02/22-rdf-syntax-ns#"
   xmlns:svg="http://www.w3.org/2000/svg"
   xmlns="http://www.w3.org/2000/svg"
   xmlns:sodipodi="http://sodipodi.sourceforge.net/DTD/sodipodi-0.dtd"
   xmlns:inkscape="http://www.inkscape.org/namespaces/inkscape"
   inkscape:version="1.0 (1.0+r73+1)"
   sodipodi:docname="vk-icon.svg"
   viewBox="0 0 279.95965 158.16095"
   height="158.16095"
   width="279.95966"
   id="svg78"
   version="1.1">
  <g
     transform="translate(305.96299,53.063668)"
     id="g86"
     inkscape:label="Image"
     inkscape:groupmode="layer">
    <path
       id="path90"
       d="m -86.360787,103.73678 c -7.42605,-2.81256 -11.95245,-6.541954 -24.405103,-20.107924 -6.3208,-6.88588 -13.30798,-13.27185 -15.52708,-14.19103 -8.59174,-3.55881 -13.8983,3.45751 -15.86264,20.97351 -0.82376,7.34549 -1.82428,10.752014 -3.52274,11.993944 -4.01346,2.93472 -33.85712,2.30519 -45.65066,-0.96297 -31.51636,-8.733634 -54.61701,-30.245584 -82.79264,-77.098725 -9.93509,-16.5210173 -30.51052,-57.326822 -31.56547,-62.601572 -1.31587,-6.57936 1.25686,-7.372586 26.00006,-8.01634 29.37295,-0.764209 28.24093,-1.361091 38.63721,20.372358 14.10762,29.4920087 29.06032,50.041846 36.41199,50.041846 5.73265,0 7.98074,-5.815694 8.78189,-22.7182903 1.32956,-28.0509317 -1.93276,-39.3253037 -12.11321,-41.8624417 -6.73548,-1.678595 -5.97225,-4.559965 2.29287,-8.656106 5.64912,-2.799669 8.89057,-3.314635 24,-3.81285 21.49419,-0.708745 32.27863,0.999798 36.46876,5.77762 2.91999,3.329542 3,4.217187 3,33.283683 0,31.986943 0.69664,36.1098 6.34079,37.526391 2.58461,0.648698 4.44637,-0.403556 9.47176,-5.353366 8.01531,-7.894785 21.68459,-29.776505 29.267523,-46.851306 3.25675,-7.333334 6.59603,-14.047386 7.42064,-14.920116 2.27451,-2.40723 58.540803,-2.868547 61.390723,-0.503331 6.35466,5.2739 -1.61189,21.240125 -26.860693,53.8330637 -6.13949,7.9252893 -12.33077,16.3252893 -13.7584,18.6666673 -5.16625,8.472869 -4.28285,10.181734 15.953233,30.860071 27.6781,28.28301 32.37872,37.65835 21.70141,43.283374 -4.79027,2.52361 -48.962853,3.36073 -55.080223,1.04384 z"
       style="fill-opacity:1;stroke-width:1.33333" />
  </g>
</svg>
